%TF.GenerationSoftware,KiCad,Pcbnew,8.0.5-8.0.5-0~ubuntu22.04.1*%
%TF.CreationDate,2024-11-13T11:33:31+02:00*%
%TF.ProjectId,spindle_fan_control,7370696e-646c-4655-9f66-616e5f636f6e,rev?*%
%TF.SameCoordinates,PX7735940PY6252e60*%
%TF.FileFunction,Copper,L2,Bot*%
%TF.FilePolarity,Positive*%
%FSLAX46Y46*%
G04 Gerber Fmt 4.6, Leading zero omitted, Abs format (unit mm)*
G04 Created by KiCad (PCBNEW 8.0.5-8.0.5-0~ubuntu22.04.1) date 2024-11-13 11:33:31*
%MOMM*%
%LPD*%
G01*
G04 APERTURE LIST*
G04 Aperture macros list*
%AMRoundRect*
0 Rectangle with rounded corners*
0 $1 Rounding radius*
0 $2 $3 $4 $5 $6 $7 $8 $9 X,Y pos of 4 corners*
0 Add a 4 corners polygon primitive as box body*
4,1,4,$2,$3,$4,$5,$6,$7,$8,$9,$2,$3,0*
0 Add four circle primitives for the rounded corners*
1,1,$1+$1,$2,$3*
1,1,$1+$1,$4,$5*
1,1,$1+$1,$6,$7*
1,1,$1+$1,$8,$9*
0 Add four rect primitives between the rounded corners*
20,1,$1+$1,$2,$3,$4,$5,0*
20,1,$1+$1,$4,$5,$6,$7,0*
20,1,$1+$1,$6,$7,$8,$9,0*
20,1,$1+$1,$8,$9,$2,$3,0*%
G04 Aperture macros list end*
%TA.AperFunction,ComponentPad*%
%ADD10RoundRect,0.212500X0.637500X-0.787500X0.637500X0.787500X-0.637500X0.787500X-0.637500X-0.787500X0*%
%TD*%
%TA.AperFunction,ComponentPad*%
%ADD11R,2.000000X2.000000*%
%TD*%
%TA.AperFunction,ComponentPad*%
%ADD12O,2.000000X2.000000*%
%TD*%
%TA.AperFunction,ComponentPad*%
%ADD13R,1.700000X1.700000*%
%TD*%
%TA.AperFunction,ComponentPad*%
%ADD14O,1.700000X1.700000*%
%TD*%
%TA.AperFunction,ViaPad*%
%ADD15C,2.000000*%
%TD*%
G04 APERTURE END LIST*
D10*
%TO.P,U2,1,VCC*%
%TO.N,+12V*%
X8900000Y-100000D03*
%TO.P,U2,2,VOUT*%
%TO.N,/SPINDLE_SPEED*%
X10300000Y-2600000D03*
%TO.P,U2,3,GND*%
%TO.N,GND*%
X11400000Y-100000D03*
%TO.P,U2,5,K*%
X8860000Y14900000D03*
%TO.P,U2,4,A*%
%TO.N,Net-(U2-A)*%
X11400000Y14900000D03*
%TD*%
D11*
%TO.P,J1,1,Pin_1*%
%TO.N,/FAN_SPEED*%
X-23400000Y-15300000D03*
D12*
%TO.P,J1,2,Pin_2*%
%TO.N,/SPINDLE_SPEED*%
X-23400000Y-12760000D03*
%TO.P,J1,3,Pin_3*%
%TO.N,GND*%
X-20860000Y-12760000D03*
%TO.P,J1,4,Pin_4*%
%TO.N,+12V*%
X-20860000Y-15300000D03*
%TD*%
D13*
%TO.P,TH1,1*%
%TO.N,Net-(D1-K)*%
X-21080000Y3450000D03*
D14*
%TO.P,TH1,2*%
%TO.N,GND*%
X-18540000Y3450000D03*
%TD*%
D13*
%TO.P,J2,1,Pin_1*%
%TO.N,/PWM_5V*%
X-6980000Y1225000D03*
D14*
%TO.P,J2,2,Pin_2*%
%TO.N,/FAN_SPEED*%
X-9520000Y1225000D03*
%TO.P,J2,3,Pin_3*%
%TO.N,+12V*%
X-12060000Y1225000D03*
%TO.P,J2,4,Pin_4*%
%TO.N,GND*%
X-14600000Y1225000D03*
%TD*%
D15*
%TO.N,GND*%
X6900000Y10700000D03*
X-27500000Y-10900000D03*
X-5500000Y4100000D03*
X-25576129Y-7176129D03*
X10000000Y-7900000D03*
%TD*%
%TA.AperFunction,Conductor*%
%TO.N,GND*%
G36*
X10006506Y18299159D02*
G01*
X10050594Y18296849D01*
X10321415Y18282656D01*
X10347330Y18279932D01*
X10652321Y18231625D01*
X10677810Y18226207D01*
X10976097Y18146281D01*
X11000884Y18138228D01*
X11289175Y18027564D01*
X11312973Y18016969D01*
X11588137Y17876765D01*
X11610691Y17863743D01*
X11869675Y17695557D01*
X11890761Y17680237D01*
X12130736Y17485909D01*
X12150105Y17468470D01*
X12368469Y17250106D01*
X12385908Y17230737D01*
X12580236Y16990762D01*
X12595556Y16969676D01*
X12763742Y16710692D01*
X12776768Y16688132D01*
X12833574Y16576643D01*
X12859945Y16483138D01*
X12848526Y16386656D01*
X12801054Y16301889D01*
X12724757Y16241740D01*
X12631250Y16215369D01*
X12534768Y16226788D01*
X12480994Y16251673D01*
X12340883Y16338095D01*
X12340878Y16338097D01*
X12182660Y16390525D01*
X12114938Y16397443D01*
X12085013Y16400500D01*
X12085010Y16400500D01*
X10714989Y16400500D01*
X10646751Y16393529D01*
X10617337Y16390524D01*
X10617335Y16390524D01*
X10617331Y16390523D01*
X10459126Y16338100D01*
X10459116Y16338095D01*
X10317264Y16250599D01*
X10317259Y16250595D01*
X10305716Y16239051D01*
X10224934Y16185075D01*
X10129646Y16166121D01*
X10034358Y16185075D01*
X9953576Y16239051D01*
X9942427Y16250200D01*
X9942423Y16250203D01*
X9800666Y16337640D01*
X9642558Y16390030D01*
X9544975Y16400000D01*
X9110001Y16400000D01*
X9110000Y16399999D01*
X9110000Y15275278D01*
X9033694Y15319333D01*
X8919244Y15350000D01*
X8800756Y15350000D01*
X8686306Y15319333D01*
X8610000Y15275278D01*
X8610000Y16399999D01*
X8609999Y16400000D01*
X8175030Y16400000D01*
X8077435Y16390030D01*
X8077432Y16390029D01*
X7919337Y16337642D01*
X7919335Y16337641D01*
X7777576Y16250203D01*
X7777572Y16250200D01*
X7659800Y16132428D01*
X7659797Y16132424D01*
X7572360Y15990667D01*
X7519970Y15832559D01*
X7510000Y15734976D01*
X7510000Y15150001D01*
X7510001Y15150000D01*
X8484722Y15150000D01*
X8440667Y15073694D01*
X8410000Y14959244D01*
X8410000Y14840756D01*
X8440667Y14726306D01*
X8484722Y14650000D01*
X7510002Y14650000D01*
X7510001Y14649999D01*
X7510001Y14065022D01*
X7519970Y13967436D01*
X7519971Y13967433D01*
X7572358Y13809338D01*
X7572359Y13809336D01*
X7659797Y13667577D01*
X7659800Y13667573D01*
X7777572Y13549801D01*
X7777576Y13549798D01*
X7919333Y13462361D01*
X8077441Y13409971D01*
X8175029Y13400001D01*
X8610000Y13400001D01*
X8610000Y14524723D01*
X8686306Y14480667D01*
X8800756Y14450000D01*
X8919244Y14450000D01*
X9033694Y14480667D01*
X9110000Y14524723D01*
X9110000Y13400002D01*
X9110001Y13400001D01*
X9544962Y13400001D01*
X9544978Y13400002D01*
X9642564Y13409971D01*
X9642567Y13409972D01*
X9800662Y13462359D01*
X9800664Y13462360D01*
X9942423Y13549798D01*
X9942429Y13549803D01*
X9953572Y13560945D01*
X10034352Y13614924D01*
X10129640Y13633880D01*
X10224929Y13614928D01*
X10305711Y13560954D01*
X10317261Y13549404D01*
X10317263Y13549403D01*
X10317264Y13549402D01*
X10459116Y13461906D01*
X10459119Y13461905D01*
X10459122Y13461903D01*
X10617337Y13409476D01*
X10714987Y13399500D01*
X12085012Y13399501D01*
X12182663Y13409476D01*
X12261770Y13435690D01*
X12340873Y13461901D01*
X12340875Y13461903D01*
X12340878Y13461903D01*
X12482739Y13549404D01*
X12600596Y13667261D01*
X12688097Y13809122D01*
X12714139Y13887714D01*
X12762102Y13972201D01*
X12838748Y14031904D01*
X12932407Y14057732D01*
X13028821Y14045752D01*
X13113311Y13997788D01*
X13173014Y13921142D01*
X13198842Y13827483D01*
X13199500Y13809390D01*
X13199500Y989020D01*
X13180546Y893732D01*
X13126570Y812950D01*
X13045788Y758974D01*
X12950500Y740020D01*
X12855212Y758974D01*
X12774430Y812950D01*
X12720454Y893732D01*
X12714139Y910698D01*
X12687641Y990663D01*
X12687640Y990665D01*
X12600202Y1132424D01*
X12600199Y1132428D01*
X12482427Y1250200D01*
X12482423Y1250203D01*
X12340666Y1337640D01*
X12182558Y1390030D01*
X12084975Y1400000D01*
X11650001Y1400000D01*
X11650000Y1399999D01*
X11650000Y275278D01*
X11573694Y319333D01*
X11459244Y350000D01*
X11340756Y350000D01*
X11226306Y319333D01*
X11150000Y275278D01*
X11150000Y1399999D01*
X11149999Y1400000D01*
X10715030Y1400000D01*
X10617435Y1390030D01*
X10617432Y1390029D01*
X10459337Y1337642D01*
X10459335Y1337641D01*
X10317576Y1250203D01*
X10306194Y1241203D01*
X10303953Y1244037D01*
X10245642Y1205075D01*
X10150354Y1186121D01*
X10055066Y1205075D01*
X9996291Y1244347D01*
X9994119Y1241598D01*
X9982735Y1250599D01*
X9840883Y1338095D01*
X9840878Y1338097D01*
X9682660Y1390525D01*
X9614938Y1397443D01*
X9585013Y1400500D01*
X9585010Y1400500D01*
X8214989Y1400500D01*
X8146751Y1393529D01*
X8117337Y1390524D01*
X8117335Y1390524D01*
X8117331Y1390523D01*
X7959126Y1338100D01*
X7959116Y1338095D01*
X7817264Y1250599D01*
X7817259Y1250595D01*
X7699405Y1132741D01*
X7699401Y1132736D01*
X7611905Y990884D01*
X7611903Y990879D01*
X7559475Y832661D01*
X7549500Y735018D01*
X7549500Y-935010D01*
X7559477Y-1032668D01*
X7611900Y-1190873D01*
X7611905Y-1190883D01*
X7699401Y-1332735D01*
X7699403Y-1332737D01*
X7699404Y-1332739D01*
X7817261Y-1450596D01*
X7817263Y-1450597D01*
X7817264Y-1450598D01*
X7959116Y-1538094D01*
X7959119Y-1538095D01*
X7959122Y-1538097D01*
X8117337Y-1590524D01*
X8214987Y-1600500D01*
X8700500Y-1600499D01*
X8795788Y-1619453D01*
X8876569Y-1673429D01*
X8930546Y-1754210D01*
X8949500Y-1849498D01*
X8949500Y-3435010D01*
X8959477Y-3532668D01*
X9011900Y-3690873D01*
X9011905Y-3690883D01*
X9099401Y-3832735D01*
X9099403Y-3832737D01*
X9099404Y-3832739D01*
X9217261Y-3950596D01*
X9217263Y-3950597D01*
X9217264Y-3950598D01*
X9359116Y-4038094D01*
X9359119Y-4038095D01*
X9359122Y-4038097D01*
X9517337Y-4090524D01*
X9614987Y-4100500D01*
X10985012Y-4100499D01*
X11082663Y-4090524D01*
X11161770Y-4064310D01*
X11240873Y-4038099D01*
X11240875Y-4038097D01*
X11240878Y-4038097D01*
X11382739Y-3950596D01*
X11500596Y-3832739D01*
X11588097Y-3690878D01*
X11640524Y-3532663D01*
X11650500Y-3435013D01*
X11650499Y-1848998D01*
X11669453Y-1753711D01*
X11723429Y-1672930D01*
X11804211Y-1618953D01*
X11899499Y-1599999D01*
X12084962Y-1599999D01*
X12084978Y-1599998D01*
X12182564Y-1590029D01*
X12182567Y-1590028D01*
X12340662Y-1537641D01*
X12340664Y-1537640D01*
X12482423Y-1450202D01*
X12482427Y-1450199D01*
X12600199Y-1332427D01*
X12600202Y-1332423D01*
X12687639Y-1190666D01*
X12714138Y-1110697D01*
X12762102Y-1026207D01*
X12838748Y-966504D01*
X12932407Y-940676D01*
X13028821Y-952656D01*
X13113311Y-1000620D01*
X13173014Y-1077266D01*
X13198842Y-1170925D01*
X13199500Y-1189018D01*
X13199500Y-8393474D01*
X13199159Y-8406506D01*
X13182655Y-8721412D01*
X13179930Y-8747332D01*
X13131625Y-9052316D01*
X13126206Y-9077810D01*
X13046280Y-9376097D01*
X13038227Y-9400884D01*
X12927563Y-9689175D01*
X12916962Y-9712986D01*
X12776774Y-9988120D01*
X12763742Y-10010691D01*
X12595556Y-10269675D01*
X12580236Y-10290761D01*
X12385908Y-10530736D01*
X12368469Y-10550105D01*
X12150105Y-10768469D01*
X12130736Y-10785908D01*
X11890761Y-10980236D01*
X11869675Y-10995556D01*
X11610691Y-11163742D01*
X11588120Y-11176774D01*
X11312986Y-11316962D01*
X11289175Y-11327563D01*
X11000884Y-11438227D01*
X10976097Y-11446280D01*
X10677810Y-11526206D01*
X10652316Y-11531625D01*
X10347332Y-11579930D01*
X10321412Y-11582655D01*
X10006507Y-11599159D01*
X9993475Y-11599500D01*
X290395Y-11599500D01*
X-127185Y-11636034D01*
X-127196Y-11636035D01*
X-539995Y-11708823D01*
X-540028Y-11708830D01*
X-944913Y-11817319D01*
X-944921Y-11817322D01*
X-1338819Y-11960689D01*
X-1338834Y-11960695D01*
X-1718726Y-12137842D01*
X-1718755Y-12137857D01*
X-2081751Y-12347434D01*
X-2081772Y-12347447D01*
X-2425131Y-12587869D01*
X-2425143Y-12587878D01*
X-2425143Y-12587879D01*
X-2746260Y-12857329D01*
X-3042671Y-13153740D01*
X-3122504Y-13248881D01*
X-3312131Y-13474869D01*
X-3552553Y-13818228D01*
X-3552566Y-13818249D01*
X-3762143Y-14181245D01*
X-3762158Y-14181274D01*
X-3939305Y-14561166D01*
X-3939311Y-14561181D01*
X-4082678Y-14955079D01*
X-4082681Y-14955087D01*
X-4191170Y-15359972D01*
X-4191177Y-15360005D01*
X-4263965Y-15772804D01*
X-4263966Y-15772815D01*
X-4300500Y-16190395D01*
X-4300500Y-18393474D01*
X-4300841Y-18406506D01*
X-4317345Y-18721412D01*
X-4320070Y-18747332D01*
X-4368375Y-19052316D01*
X-4373794Y-19077810D01*
X-4453720Y-19376097D01*
X-4461773Y-19400884D01*
X-4572437Y-19689175D01*
X-4583038Y-19712986D01*
X-4723226Y-19988120D01*
X-4736258Y-20010691D01*
X-4904444Y-20269675D01*
X-4919764Y-20290761D01*
X-5114092Y-20530736D01*
X-5131531Y-20550105D01*
X-5349895Y-20768469D01*
X-5369264Y-20785908D01*
X-5609239Y-20980236D01*
X-5630325Y-20995556D01*
X-5889309Y-21163742D01*
X-5911880Y-21176774D01*
X-6187014Y-21316962D01*
X-6210825Y-21327563D01*
X-6499116Y-21438227D01*
X-6523903Y-21446280D01*
X-6822190Y-21526206D01*
X-6847684Y-21531625D01*
X-7152668Y-21579930D01*
X-7178588Y-21582655D01*
X-7493493Y-21599159D01*
X-7506525Y-21599500D01*
X-25993475Y-21599500D01*
X-26006507Y-21599159D01*
X-26321413Y-21582655D01*
X-26347333Y-21579930D01*
X-26652317Y-21531625D01*
X-26677811Y-21526206D01*
X-26976098Y-21446280D01*
X-27000885Y-21438227D01*
X-27289176Y-21327563D01*
X-27312982Y-21316964D01*
X-27588132Y-21176768D01*
X-27610692Y-21163742D01*
X-27869676Y-20995556D01*
X-27890762Y-20980236D01*
X-28130737Y-20785908D01*
X-28150106Y-20768469D01*
X-28368470Y-20550105D01*
X-28385909Y-20530736D01*
X-28580237Y-20290761D01*
X-28595557Y-20269675D01*
X-28763743Y-20010691D01*
X-28776765Y-19988137D01*
X-28916969Y-19712973D01*
X-28927564Y-19689175D01*
X-29038228Y-19400884D01*
X-29046281Y-19376097D01*
X-29126207Y-19077810D01*
X-29131626Y-19052316D01*
X-29179931Y-18747332D01*
X-29182656Y-18721411D01*
X-29199159Y-18406505D01*
X-29199500Y-18393474D01*
X-29199500Y-12760000D01*
X-24905643Y-12760000D01*
X-24885108Y-13007823D01*
X-24885106Y-13007831D01*
X-24824065Y-13248874D01*
X-24824064Y-13248878D01*
X-24724278Y-13476369D01*
X-24724173Y-13476607D01*
X-24658499Y-13577129D01*
X-24622250Y-13667265D01*
X-24623255Y-13764415D01*
X-24661360Y-13853786D01*
X-24717732Y-13912649D01*
X-24757544Y-13942452D01*
X-24757547Y-13942455D01*
X-24843796Y-14057669D01*
X-24894092Y-14192518D01*
X-24900500Y-14252123D01*
X-24900500Y-16347865D01*
X-24900499Y-16347869D01*
X-24894092Y-16407480D01*
X-24894091Y-16407484D01*
X-24850404Y-16524614D01*
X-24843796Y-16542331D01*
X-24757546Y-16657546D01*
X-24642331Y-16743796D01*
X-24507483Y-16794091D01*
X-24447873Y-16800500D01*
X-22352128Y-16800499D01*
X-22292517Y-16794091D01*
X-22157669Y-16743796D01*
X-22042454Y-16657546D01*
X-22015739Y-16621858D01*
X-21943462Y-16556936D01*
X-21851841Y-16524614D01*
X-21754825Y-16529815D01*
X-21693276Y-16556882D01*
X-21692566Y-16555572D01*
X-21683512Y-16560472D01*
X-21683509Y-16560474D01*
X-21464810Y-16678828D01*
X-21395264Y-16702703D01*
X-21229622Y-16759569D01*
X-21229618Y-16759569D01*
X-21229614Y-16759571D01*
X-20984335Y-16800500D01*
X-20735665Y-16800500D01*
X-20490386Y-16759571D01*
X-20490382Y-16759569D01*
X-20490379Y-16759569D01*
X-20400923Y-16728858D01*
X-20255190Y-16678828D01*
X-20036491Y-16560474D01*
X-19840256Y-16407738D01*
X-19671836Y-16224785D01*
X-19535827Y-16016607D01*
X-19435937Y-15788881D01*
X-19374892Y-15547821D01*
X-19354357Y-15300000D01*
X-19374892Y-15052179D01*
X-19435937Y-14811119D01*
X-19535827Y-14583393D01*
X-19589003Y-14502001D01*
X-19671831Y-14375221D01*
X-19671837Y-14375214D01*
X-19834725Y-14198271D01*
X-19885315Y-14115330D01*
X-19900315Y-14019340D01*
X-19877440Y-13924917D01*
X-19834722Y-13860986D01*
X-19672233Y-13684477D01*
X-19672231Y-13684475D01*
X-19536269Y-13476369D01*
X-19536269Y-13476368D01*
X-19436414Y-13248722D01*
X-19375961Y-13010000D01*
X-20484722Y-13010000D01*
X-20440667Y-12933694D01*
X-20410000Y-12819244D01*
X-20410000Y-12700756D01*
X-20440667Y-12586306D01*
X-20484722Y-12510000D01*
X-19375961Y-12510000D01*
X-19436414Y-12271277D01*
X-19536269Y-12043631D01*
X-19536269Y-12043630D01*
X-19672231Y-11835524D01*
X-19672233Y-11835522D01*
X-19840589Y-11652639D01*
X-19840601Y-11652629D01*
X-20036763Y-11499949D01*
X-20036770Y-11499944D01*
X-20255394Y-11381630D01*
X-20490513Y-11300915D01*
X-20610000Y-11280976D01*
X-20610000Y-12384722D01*
X-20686306Y-12340667D01*
X-20800756Y-12310000D01*
X-20919244Y-12310000D01*
X-21033694Y-12340667D01*
X-21110000Y-12384722D01*
X-21110000Y-11280976D01*
X-21110001Y-11280976D01*
X-21229488Y-11300915D01*
X-21464607Y-11381630D01*
X-21683231Y-11499944D01*
X-21683238Y-11499949D01*
X-21879400Y-11652629D01*
X-21879407Y-11652635D01*
X-21946466Y-11725480D01*
X-22024949Y-11782748D01*
X-22119372Y-11805622D01*
X-22215362Y-11790621D01*
X-22298305Y-11740029D01*
X-22312854Y-11725479D01*
X-22380248Y-11652270D01*
X-22380253Y-11652265D01*
X-22380256Y-11652262D01*
X-22401104Y-11636035D01*
X-22576486Y-11499529D01*
X-22576490Y-11499526D01*
X-22576491Y-11499526D01*
X-22681117Y-11442905D01*
X-22795189Y-11381172D01*
X-23030379Y-11300430D01*
X-23030390Y-11300428D01*
X-23275665Y-11259500D01*
X-23524335Y-11259500D01*
X-23769611Y-11300428D01*
X-23769622Y-11300430D01*
X-24004812Y-11381172D01*
X-24223515Y-11499529D01*
X-24419739Y-11652257D01*
X-24419752Y-11652269D01*
X-24588164Y-11835214D01*
X-24588170Y-11835221D01*
X-24724172Y-12043391D01*
X-24724175Y-12043396D01*
X-24824064Y-12271121D01*
X-24824065Y-12271125D01*
X-24885106Y-12512168D01*
X-24885108Y-12512176D01*
X-24905643Y-12760000D01*
X-29199500Y-12760000D01*
X-29199500Y1475002D01*
X-15930637Y1475002D01*
X-15930636Y1475000D01*
X-15033012Y1475000D01*
X-15065925Y1417993D01*
X-15100000Y1290826D01*
X-15100000Y1159174D01*
X-15065925Y1032007D01*
X-15033012Y975000D01*
X-15930636Y975000D01*
X-15930637Y974999D01*
X-15873434Y761517D01*
X-15873434Y761515D01*
X-15773601Y547424D01*
X-15638111Y353924D01*
X-15471077Y186890D01*
X-15277577Y51400D01*
X-15063489Y-48431D01*
X-14850000Y-105635D01*
X-14850000Y791988D01*
X-14792993Y759075D01*
X-14665826Y725000D01*
X-14534174Y725000D01*
X-14407007Y759075D01*
X-14350000Y791988D01*
X-14350000Y-105635D01*
X-14136512Y-48431D01*
X-13922424Y51400D01*
X-13728924Y186890D01*
X-13561889Y353925D01*
X-13534276Y393360D01*
X-13464095Y460544D01*
X-13373546Y495758D01*
X-13276414Y493639D01*
X-13187487Y454511D01*
X-13126338Y393362D01*
X-13098723Y353924D01*
X-13098495Y353599D01*
X-12931401Y186505D01*
X-12737830Y50965D01*
X-12523663Y-48903D01*
X-12295408Y-110063D01*
X-12295405Y-110063D01*
X-12295402Y-110064D01*
X-12060005Y-130659D01*
X-12060000Y-130659D01*
X-12059995Y-130659D01*
X-11824599Y-110064D01*
X-11824597Y-110063D01*
X-11824592Y-110063D01*
X-11596337Y-48903D01*
X-11382170Y50965D01*
X-11188599Y186505D01*
X-11021505Y353599D01*
X-10993968Y392926D01*
X-10923789Y460109D01*
X-10833240Y495322D01*
X-10736108Y493203D01*
X-10647181Y454075D01*
X-10586033Y392927D01*
X-10558495Y353599D01*
X-10391401Y186505D01*
X-10197830Y50965D01*
X-9983663Y-48903D01*
X-9755408Y-110063D01*
X-9755405Y-110063D01*
X-9755402Y-110064D01*
X-9520005Y-130659D01*
X-9520000Y-130659D01*
X-9519995Y-130659D01*
X-9284599Y-110064D01*
X-9284597Y-110063D01*
X-9284592Y-110063D01*
X-9056337Y-48903D01*
X-8842170Y50965D01*
X-8648599Y186505D01*
X-8648598Y186506D01*
X-8644622Y189842D01*
X-8640978Y191842D01*
X-8639693Y192741D01*
X-8639595Y192601D01*
X-8559445Y236574D01*
X-8462867Y247153D01*
X-8369593Y219968D01*
X-8293823Y159157D01*
X-8285134Y146430D01*
X-8284469Y146927D01*
X-8273797Y132671D01*
X-8273796Y132669D01*
X-8187546Y17454D01*
X-8072331Y-68796D01*
X-7937483Y-119091D01*
X-7877873Y-125500D01*
X-6082128Y-125499D01*
X-6022517Y-119091D01*
X-5887669Y-68796D01*
X-5772454Y17454D01*
X-5687364Y131120D01*
X-2000500Y131120D01*
X-2000500Y-131119D01*
X-1966271Y-391112D01*
X-1898399Y-644417D01*
X-1798047Y-886689D01*
X-1798045Y-886693D01*
X-1798043Y-886697D01*
X-1732270Y-1000620D01*
X-1666927Y-1113798D01*
X-1666918Y-1113812D01*
X-1507287Y-1321845D01*
X-1507282Y-1321851D01*
X-1321851Y-1507282D01*
X-1321847Y-1507285D01*
X-1321846Y-1507286D01*
X-1113813Y-1666917D01*
X-1113808Y-1666920D01*
X-1113803Y-1666924D01*
X-886697Y-1798043D01*
X-644419Y-1898398D01*
X-391116Y-1966270D01*
X-131120Y-2000500D01*
X131120Y-2000500D01*
X391116Y-1966270D01*
X644419Y-1898398D01*
X886697Y-1798043D01*
X1113803Y-1666924D01*
X1321851Y-1507282D01*
X1507282Y-1321851D01*
X1666924Y-1113803D01*
X1798043Y-886697D01*
X1898398Y-644419D01*
X1966270Y-391116D01*
X2000500Y-131120D01*
X2000500Y131120D01*
X1966270Y391116D01*
X1898398Y644419D01*
X1798043Y886697D01*
X1666924Y1113803D01*
X1666920Y1113808D01*
X1666917Y1113813D01*
X1507286Y1321846D01*
X1507285Y1321847D01*
X1507282Y1321851D01*
X1321851Y1507282D01*
X1321846Y1507286D01*
X1321845Y1507287D01*
X1113812Y1666918D01*
X1113798Y1666927D01*
X1013212Y1725000D01*
X886697Y1798043D01*
X886695Y1798044D01*
X886693Y1798045D01*
X886689Y1798047D01*
X644417Y1898399D01*
X534730Y1927789D01*
X391116Y1966270D01*
X391111Y1966271D01*
X391114Y1966271D01*
X131120Y2000500D01*
X-131120Y2000500D01*
X-391113Y1966271D01*
X-644418Y1898399D01*
X-886690Y1798047D01*
X-886694Y1798045D01*
X-1113799Y1666927D01*
X-1113813Y1666918D01*
X-1321846Y1507287D01*
X-1507287Y1321846D01*
X-1666918Y1113813D01*
X-1666927Y1113799D01*
X-1798045Y886694D01*
X-1798047Y886690D01*
X-1898399Y644418D01*
X-1966271Y391113D01*
X-2000500Y131120D01*
X-5687364Y131120D01*
X-5686204Y132669D01*
X-5635909Y267517D01*
X-5629500Y327127D01*
X-5629501Y2122872D01*
X-5635909Y2182483D01*
X-5686204Y2317331D01*
X-5772454Y2432546D01*
X-5887669Y2518796D01*
X-5977045Y2552131D01*
X-6022519Y2569092D01*
X-6082127Y2575500D01*
X-7877866Y2575500D01*
X-7877870Y2575500D01*
X-7877872Y2575499D01*
X-7890686Y2574122D01*
X-7937481Y2569092D01*
X-7937485Y2569091D01*
X-8072330Y2518797D01*
X-8187545Y2432547D01*
X-8187547Y2432545D01*
X-8284469Y2303073D01*
X-8287766Y2305541D01*
X-8328413Y2256949D01*
X-8414522Y2211956D01*
X-8511294Y2203340D01*
X-8603997Y2232413D01*
X-8644613Y2260151D01*
X-8648597Y2263493D01*
X-8648599Y2263495D01*
X-8842170Y2399035D01*
X-9056337Y2498903D01*
X-9056340Y2498904D01*
X-9284599Y2560065D01*
X-9519995Y2580659D01*
X-9520005Y2580659D01*
X-9755402Y2560065D01*
X-9983665Y2498903D01*
X-9983667Y2498902D01*
X-10197823Y2399039D01*
X-10197831Y2399035D01*
X-10391400Y2263496D01*
X-10558499Y2096397D01*
X-10586032Y2057075D01*
X-10656213Y1989891D01*
X-10746763Y1954679D01*
X-10843894Y1956799D01*
X-10932821Y1995928D01*
X-10993968Y2057075D01*
X-11021502Y2096397D01*
X-11021503Y2096398D01*
X-11021505Y2096401D01*
X-11188599Y2263495D01*
X-11382170Y2399035D01*
X-11596337Y2498903D01*
X-11596340Y2498904D01*
X-11824599Y2560065D01*
X-12059995Y2580659D01*
X-12060005Y2580659D01*
X-12295402Y2560065D01*
X-12523665Y2498903D01*
X-12523667Y2498902D01*
X-12737823Y2399039D01*
X-12737831Y2399035D01*
X-12931400Y2263496D01*
X-13098498Y2096398D01*
X-13126339Y2056637D01*
X-13196521Y1989454D01*
X-13287071Y1954242D01*
X-13384203Y1956363D01*
X-13473129Y1995493D01*
X-13534275Y2056639D01*
X-13561890Y2096077D01*
X-13728924Y2263111D01*
X-13922424Y2398601D01*
X-14136516Y2498434D01*
X-14349999Y2555637D01*
X-14350000Y2555636D01*
X-14350000Y1658012D01*
X-14407007Y1690925D01*
X-14534174Y1725000D01*
X-14665826Y1725000D01*
X-14792993Y1690925D01*
X-14850000Y1658012D01*
X-14850000Y2555636D01*
X-14850002Y2555637D01*
X-15063484Y2498434D01*
X-15063495Y2498430D01*
X-15277572Y2398604D01*
X-15277580Y2398600D01*
X-15471077Y2263111D01*
X-15638111Y2096077D01*
X-15773600Y1902580D01*
X-15773604Y1902572D01*
X-15873430Y1688495D01*
X-15873434Y1688484D01*
X-15930637Y1475002D01*
X-29199500Y1475002D01*
X-29199500Y4093479D01*
X-29199159Y4106510D01*
X-29186510Y4347873D01*
X-29186510Y4347877D01*
X-22430500Y4347877D01*
X-22430500Y2552135D01*
X-22430499Y2552131D01*
X-22424092Y2492520D01*
X-22424091Y2492516D01*
X-22373797Y2357671D01*
X-22373796Y2357669D01*
X-22287546Y2242454D01*
X-22172331Y2156204D01*
X-22037483Y2105909D01*
X-21977873Y2099500D01*
X-20182128Y2099501D01*
X-20122517Y2105909D01*
X-19987669Y2156204D01*
X-19872454Y2242454D01*
X-19786204Y2357669D01*
X-19786204Y2357671D01*
X-19775531Y2371927D01*
X-19772308Y2369515D01*
X-19731466Y2418403D01*
X-19645386Y2463451D01*
X-19548619Y2472128D01*
X-19455898Y2443114D01*
X-19415137Y2415296D01*
X-19411082Y2411894D01*
X-19217577Y2276400D01*
X-19003489Y2176569D01*
X-18790000Y2119365D01*
X-18790000Y3016988D01*
X-18732993Y2984075D01*
X-18605826Y2950000D01*
X-18474174Y2950000D01*
X-18347007Y2984075D01*
X-18290000Y3016988D01*
X-18290000Y2119365D01*
X-18076512Y2176569D01*
X-17862424Y2276400D01*
X-17668924Y2411890D01*
X-17501890Y2578924D01*
X-17366400Y2772424D01*
X-17266567Y2986515D01*
X-17266567Y2986517D01*
X-17209364Y3199999D01*
X-17209364Y3200000D01*
X-18106988Y3200000D01*
X-18074075Y3257007D01*
X-18040000Y3384174D01*
X-18040000Y3515826D01*
X-18074075Y3642993D01*
X-18106988Y3700000D01*
X-17209364Y3700000D01*
X-17209364Y3700002D01*
X-17266567Y3913484D01*
X-17266571Y3913495D01*
X-17366397Y4127572D01*
X-17366401Y4127580D01*
X-17501890Y4321077D01*
X-17668924Y4488111D01*
X-17862424Y4623601D01*
X-18076516Y4723434D01*
X-18289999Y4780637D01*
X-18290000Y4780636D01*
X-18290000Y3883012D01*
X-18347007Y3915925D01*
X-18474174Y3950000D01*
X-18605826Y3950000D01*
X-18732993Y3915925D01*
X-18790000Y3883012D01*
X-18790000Y4780636D01*
X-18790002Y4780637D01*
X-19003484Y4723434D01*
X-19003495Y4723430D01*
X-19217572Y4623604D01*
X-19217580Y4623600D01*
X-19411091Y4488101D01*
X-19415146Y4484698D01*
X-19418858Y4482662D01*
X-19419983Y4481874D01*
X-19420070Y4481998D01*
X-19500326Y4437972D01*
X-19596905Y4427400D01*
X-19690177Y4454591D01*
X-19765943Y4515407D01*
X-19774908Y4528540D01*
X-19775531Y4528073D01*
X-19786204Y4542330D01*
X-19786204Y4542331D01*
X-19872454Y4657546D01*
X-19987669Y4743796D01*
X-20086445Y4780637D01*
X-20122519Y4794092D01*
X-20182127Y4800500D01*
X-21977866Y4800500D01*
X-21977870Y4800500D01*
X-21977872Y4800499D01*
X-21990686Y4799122D01*
X-22037481Y4794092D01*
X-22037485Y4794091D01*
X-22172330Y4743797D01*
X-22287545Y4657547D01*
X-22287547Y4657545D01*
X-22373796Y4542331D01*
X-22424092Y4407482D01*
X-22430500Y4347877D01*
X-29186510Y4347877D01*
X-29182656Y4421418D01*
X-29179931Y4447333D01*
X-29174460Y4481874D01*
X-29131625Y4752326D01*
X-29126207Y4777811D01*
X-29046281Y5076098D01*
X-29038228Y5100885D01*
X-28927564Y5389176D01*
X-28916973Y5412967D01*
X-28776761Y5688147D01*
X-28763750Y5710681D01*
X-28595552Y5969684D01*
X-28580243Y5990755D01*
X-28385900Y6230748D01*
X-28368480Y6250096D01*
X-28150096Y6468480D01*
X-28130748Y6485900D01*
X-27890755Y6680243D01*
X-27869684Y6695552D01*
X-27610681Y6863750D01*
X-27588147Y6876761D01*
X-27312967Y7016973D01*
X-27289182Y7027562D01*
X-27000879Y7138230D01*
X-26976098Y7146281D01*
X-26677811Y7226207D01*
X-26652326Y7231625D01*
X-26347329Y7279932D01*
X-26321418Y7282656D01*
X-26043611Y7297215D01*
X-26006506Y7299159D01*
X-25993475Y7299500D01*
X-6280771Y7299500D01*
X-6280770Y7299500D01*
X-6280769Y7299501D01*
X-6280748Y7299501D01*
X-5914970Y7329812D01*
X-5843807Y7335708D01*
X-5411326Y7407876D01*
X-4986282Y7515512D01*
X-4571579Y7657879D01*
X-4170048Y7834007D01*
X-3784433Y8042691D01*
X-3417369Y8282507D01*
X-3266414Y8400000D01*
X8800000Y8400000D01*
X10999999Y8400000D01*
X11000000Y8400000D01*
X11000000Y9600000D01*
X10999999Y9600000D01*
X8800001Y9600000D01*
X8800000Y9600000D01*
X8800000Y8400000D01*
X-3266414Y8400000D01*
X-3071362Y8551815D01*
X-2748776Y8848776D01*
X-2451815Y9171362D01*
X-2182507Y9517369D01*
X-1942691Y9884433D01*
X-1734007Y10270048D01*
X-1557879Y10671579D01*
X-1415512Y11086282D01*
X-1307876Y11511326D01*
X-1235708Y11943807D01*
X-1229812Y12014970D01*
X-1199501Y12380748D01*
X-1199500Y12380772D01*
X-1199500Y15093475D01*
X-1199159Y15106506D01*
X-1189715Y15286707D01*
X-1182656Y15421418D01*
X-1179931Y15447333D01*
X-1146513Y15658322D01*
X-1131625Y15752326D01*
X-1126207Y15777811D01*
X-1046281Y16076098D01*
X-1038228Y16100885D01*
X-1026119Y16132428D01*
X-927562Y16389182D01*
X-916973Y16412967D01*
X-776761Y16688147D01*
X-763750Y16710681D01*
X-595552Y16969684D01*
X-580243Y16990755D01*
X-385900Y17230748D01*
X-368480Y17250096D01*
X-150096Y17468480D01*
X-130748Y17485900D01*
X109245Y17680243D01*
X130316Y17695552D01*
X389319Y17863750D01*
X411853Y17876761D01*
X687033Y18016973D01*
X710818Y18027562D01*
X999121Y18138230D01*
X1023902Y18146281D01*
X1322189Y18226207D01*
X1347674Y18231625D01*
X1652671Y18279932D01*
X1678582Y18282656D01*
X1956389Y18297215D01*
X1993494Y18299159D01*
X2006525Y18299500D01*
X2047595Y18299500D01*
X9952405Y18299500D01*
X9993475Y18299500D01*
X10006506Y18299159D01*
G37*
%TD.AperFunction*%
%TD*%
M02*
