%TF.GenerationSoftware,KiCad,Pcbnew,8.0.5-8.0.5-0~ubuntu22.04.1*%
%TF.CreationDate,2024-11-13T11:33:30+02:00*%
%TF.ProjectId,spindle_fan_control,7370696e-646c-4655-9f66-616e5f636f6e,rev?*%
%TF.SameCoordinates,PX7735940PY6252e60*%
%TF.FileFunction,Copper,L1,Top*%
%TF.FilePolarity,Positive*%
%FSLAX46Y46*%
G04 Gerber Fmt 4.6, Leading zero omitted, Abs format (unit mm)*
G04 Created by KiCad (PCBNEW 8.0.5-8.0.5-0~ubuntu22.04.1) date 2024-11-13 11:33:30*
%MOMM*%
%LPD*%
G01*
G04 APERTURE LIST*
G04 Aperture macros list*
%AMRoundRect*
0 Rectangle with rounded corners*
0 $1 Rounding radius*
0 $2 $3 $4 $5 $6 $7 $8 $9 X,Y pos of 4 corners*
0 Add a 4 corners polygon primitive as box body*
4,1,4,$2,$3,$4,$5,$6,$7,$8,$9,$2,$3,0*
0 Add four circle primitives for the rounded corners*
1,1,$1+$1,$2,$3*
1,1,$1+$1,$4,$5*
1,1,$1+$1,$6,$7*
1,1,$1+$1,$8,$9*
0 Add four rect primitives between the rounded corners*
20,1,$1+$1,$2,$3,$4,$5,0*
20,1,$1+$1,$4,$5,$6,$7,0*
20,1,$1+$1,$6,$7,$8,$9,0*
20,1,$1+$1,$8,$9,$2,$3,0*%
G04 Aperture macros list end*
%ADD10C,0.300000*%
%TA.AperFunction,NonConductor*%
%ADD11C,0.300000*%
%TD*%
%TA.AperFunction,ComponentPad*%
%ADD12RoundRect,0.212500X0.637500X-0.787500X0.637500X0.787500X-0.637500X0.787500X-0.637500X-0.787500X0*%
%TD*%
%TA.AperFunction,SMDPad,CuDef*%
%ADD13RoundRect,0.200000X-0.200000X-0.275000X0.200000X-0.275000X0.200000X0.275000X-0.200000X0.275000X0*%
%TD*%
%TA.AperFunction,SMDPad,CuDef*%
%ADD14RoundRect,0.218750X0.256250X-0.218750X0.256250X0.218750X-0.256250X0.218750X-0.256250X-0.218750X0*%
%TD*%
%TA.AperFunction,SMDPad,CuDef*%
%ADD15RoundRect,0.200000X0.275000X-0.200000X0.275000X0.200000X-0.275000X0.200000X-0.275000X-0.200000X0*%
%TD*%
%TA.AperFunction,ComponentPad*%
%ADD16R,2.000000X2.000000*%
%TD*%
%TA.AperFunction,ComponentPad*%
%ADD17O,2.000000X2.000000*%
%TD*%
%TA.AperFunction,SMDPad,CuDef*%
%ADD18RoundRect,0.150000X0.150000X-0.825000X0.150000X0.825000X-0.150000X0.825000X-0.150000X-0.825000X0*%
%TD*%
%TA.AperFunction,SMDPad,CuDef*%
%ADD19RoundRect,0.200000X0.200000X0.275000X-0.200000X0.275000X-0.200000X-0.275000X0.200000X-0.275000X0*%
%TD*%
%TA.AperFunction,SMDPad,CuDef*%
%ADD20RoundRect,0.225000X-0.250000X0.225000X-0.250000X-0.225000X0.250000X-0.225000X0.250000X0.225000X0*%
%TD*%
%TA.AperFunction,SMDPad,CuDef*%
%ADD21R,1.200000X1.200000*%
%TD*%
%TA.AperFunction,SMDPad,CuDef*%
%ADD22R,1.600000X1.500000*%
%TD*%
%TA.AperFunction,SMDPad,CuDef*%
%ADD23RoundRect,0.225000X0.225000X0.250000X-0.225000X0.250000X-0.225000X-0.250000X0.225000X-0.250000X0*%
%TD*%
%TA.AperFunction,SMDPad,CuDef*%
%ADD24RoundRect,0.250000X0.475000X-0.250000X0.475000X0.250000X-0.475000X0.250000X-0.475000X-0.250000X0*%
%TD*%
%TA.AperFunction,SMDPad,CuDef*%
%ADD25RoundRect,0.250000X0.650000X-1.000000X0.650000X1.000000X-0.650000X1.000000X-0.650000X-1.000000X0*%
%TD*%
%TA.AperFunction,SMDPad,CuDef*%
%ADD26RoundRect,0.200000X-0.275000X0.200000X-0.275000X-0.200000X0.275000X-0.200000X0.275000X0.200000X0*%
%TD*%
%TA.AperFunction,ComponentPad*%
%ADD27R,1.700000X1.700000*%
%TD*%
%TA.AperFunction,ComponentPad*%
%ADD28O,1.700000X1.700000*%
%TD*%
%TA.AperFunction,SMDPad,CuDef*%
%ADD29RoundRect,0.225000X-0.375000X0.225000X-0.375000X-0.225000X0.375000X-0.225000X0.375000X0.225000X0*%
%TD*%
%TA.AperFunction,ViaPad*%
%ADD30C,2.000000*%
%TD*%
%TA.AperFunction,Conductor*%
%ADD31C,0.600000*%
%TD*%
%TA.AperFunction,Conductor*%
%ADD32C,2.000000*%
%TD*%
G04 APERTURE END LIST*
D10*
D11*
X1500198Y8854511D02*
X1500198Y8354511D01*
X2285912Y8354511D02*
X785912Y8354511D01*
X785912Y8354511D02*
X785912Y9068797D01*
X1857341Y9568797D02*
X1857341Y10283082D01*
X2285912Y9425940D02*
X785912Y9925940D01*
X785912Y9925940D02*
X2285912Y10425940D01*
X2285912Y10925939D02*
X785912Y10925939D01*
X785912Y10925939D02*
X2285912Y11783082D01*
X2285912Y11783082D02*
X785912Y11783082D01*
X2143055Y13354511D02*
X2214484Y13283083D01*
X2214484Y13283083D02*
X2285912Y13068797D01*
X2285912Y13068797D02*
X2285912Y12925940D01*
X2285912Y12925940D02*
X2214484Y12711654D01*
X2214484Y12711654D02*
X2071626Y12568797D01*
X2071626Y12568797D02*
X1928769Y12497368D01*
X1928769Y12497368D02*
X1643055Y12425940D01*
X1643055Y12425940D02*
X1428769Y12425940D01*
X1428769Y12425940D02*
X1143055Y12497368D01*
X1143055Y12497368D02*
X1000198Y12568797D01*
X1000198Y12568797D02*
X857341Y12711654D01*
X857341Y12711654D02*
X785912Y12925940D01*
X785912Y12925940D02*
X785912Y13068797D01*
X785912Y13068797D02*
X857341Y13283083D01*
X857341Y13283083D02*
X928769Y13354511D01*
X785912Y13783083D02*
X785912Y14640225D01*
X2285912Y14211654D02*
X785912Y14211654D01*
X2285912Y15997368D02*
X1571626Y15497368D01*
X2285912Y15140225D02*
X785912Y15140225D01*
X785912Y15140225D02*
X785912Y15711654D01*
X785912Y15711654D02*
X857341Y15854511D01*
X857341Y15854511D02*
X928769Y15925940D01*
X928769Y15925940D02*
X1071626Y15997368D01*
X1071626Y15997368D02*
X1285912Y15997368D01*
X1285912Y15997368D02*
X1428769Y15925940D01*
X1428769Y15925940D02*
X1500198Y15854511D01*
X1500198Y15854511D02*
X1571626Y15711654D01*
X1571626Y15711654D02*
X1571626Y15140225D01*
X2285912Y17354511D02*
X2285912Y16640225D01*
X2285912Y16640225D02*
X785912Y16640225D01*
X3343685Y8283083D02*
X3272257Y8354511D01*
X3272257Y8354511D02*
X3200828Y8497368D01*
X3200828Y8497368D02*
X3200828Y8854511D01*
X3200828Y8854511D02*
X3272257Y8997368D01*
X3272257Y8997368D02*
X3343685Y9068797D01*
X3343685Y9068797D02*
X3486542Y9140226D01*
X3486542Y9140226D02*
X3629400Y9140226D01*
X3629400Y9140226D02*
X3843685Y9068797D01*
X3843685Y9068797D02*
X4700828Y8211654D01*
X4700828Y8211654D02*
X4700828Y9140226D01*
X3200828Y10068797D02*
X3200828Y10211654D01*
X3200828Y10211654D02*
X3272257Y10354511D01*
X3272257Y10354511D02*
X3343685Y10425939D01*
X3343685Y10425939D02*
X3486542Y10497368D01*
X3486542Y10497368D02*
X3772257Y10568797D01*
X3772257Y10568797D02*
X4129400Y10568797D01*
X4129400Y10568797D02*
X4415114Y10497368D01*
X4415114Y10497368D02*
X4557971Y10425939D01*
X4557971Y10425939D02*
X4629400Y10354511D01*
X4629400Y10354511D02*
X4700828Y10211654D01*
X4700828Y10211654D02*
X4700828Y10068797D01*
X4700828Y10068797D02*
X4629400Y9925939D01*
X4629400Y9925939D02*
X4557971Y9854511D01*
X4557971Y9854511D02*
X4415114Y9783082D01*
X4415114Y9783082D02*
X4129400Y9711654D01*
X4129400Y9711654D02*
X3772257Y9711654D01*
X3772257Y9711654D02*
X3486542Y9783082D01*
X3486542Y9783082D02*
X3343685Y9854511D01*
X3343685Y9854511D02*
X3272257Y9925939D01*
X3272257Y9925939D02*
X3200828Y10068797D01*
X3343685Y11140225D02*
X3272257Y11211653D01*
X3272257Y11211653D02*
X3200828Y11354510D01*
X3200828Y11354510D02*
X3200828Y11711653D01*
X3200828Y11711653D02*
X3272257Y11854510D01*
X3272257Y11854510D02*
X3343685Y11925939D01*
X3343685Y11925939D02*
X3486542Y11997368D01*
X3486542Y11997368D02*
X3629400Y11997368D01*
X3629400Y11997368D02*
X3843685Y11925939D01*
X3843685Y11925939D02*
X4700828Y11068796D01*
X4700828Y11068796D02*
X4700828Y11997368D01*
X3700828Y13283081D02*
X4700828Y13283081D01*
X3129400Y12925939D02*
X4200828Y12568796D01*
X4200828Y12568796D02*
X4200828Y13497367D01*
D12*
%TO.P,U2,1,VCC*%
%TO.N,+12V*%
X8900000Y-100000D03*
%TO.P,U2,2,VOUT*%
%TO.N,/SPINDLE_SPEED*%
X10300000Y-2600000D03*
%TO.P,U2,3,GND*%
%TO.N,GND*%
X11400000Y-100000D03*
%TO.P,U2,5,K*%
X8860000Y14900000D03*
%TO.P,U2,4,A*%
%TO.N,Net-(U2-A)*%
X11400000Y14900000D03*
%TD*%
D13*
%TO.P,R3,1*%
%TO.N,Net-(R3-Pad1)*%
X9675000Y12600000D03*
%TO.P,R3,2*%
%TO.N,Net-(U2-A)*%
X11325000Y12600000D03*
%TD*%
D14*
%TO.P,D3,1,K*%
%TO.N,/SPINDLE_SPEED*%
X7800000Y2312500D03*
%TO.P,D3,2,A*%
%TO.N,Net-(D3-A)*%
X7800000Y3887500D03*
%TD*%
D15*
%TO.P,R1,1*%
%TO.N,/THR*%
X-23680000Y1990092D03*
%TO.P,R1,2*%
%TO.N,Net-(D1-K)*%
X-23680000Y3640092D03*
%TD*%
D16*
%TO.P,J1,1,Pin_1*%
%TO.N,/FAN_SPEED*%
X-23400000Y-15300000D03*
D17*
%TO.P,J1,2,Pin_2*%
%TO.N,/SPINDLE_SPEED*%
X-23400000Y-12760000D03*
%TO.P,J1,3,Pin_3*%
%TO.N,GND*%
X-20860000Y-12760000D03*
%TO.P,J1,4,Pin_4*%
%TO.N,+12V*%
X-20860000Y-15300000D03*
%TD*%
D13*
%TO.P,R7,1*%
%TO.N,/PWM_5V*%
X-11605000Y4450000D03*
%TO.P,R7,2*%
%TO.N,GND*%
X-9955000Y4450000D03*
%TD*%
D18*
%TO.P,U1,1,GND*%
%TO.N,GND*%
X-24085000Y-5734908D03*
%TO.P,U1,2,TR*%
%TO.N,/THR*%
X-22815000Y-5734908D03*
%TO.P,U1,3,Q*%
%TO.N,/PWM*%
X-21545000Y-5734908D03*
%TO.P,U1,4,R*%
%TO.N,+12V*%
X-20275000Y-5734908D03*
%TO.P,U1,5,CV*%
%TO.N,Net-(U1-CV)*%
X-20275000Y-784908D03*
%TO.P,U1,6,THR*%
%TO.N,/THR*%
X-21545000Y-784908D03*
%TO.P,U1,7,DIS*%
%TO.N,Net-(D1-A)*%
X-22815000Y-784908D03*
%TO.P,U1,8,VCC*%
%TO.N,+12V*%
X-24085000Y-784908D03*
%TD*%
D13*
%TO.P,R6,1*%
%TO.N,/PWM*%
X-14705000Y4450000D03*
%TO.P,R6,2*%
%TO.N,/PWM_5V*%
X-13055000Y4450000D03*
%TD*%
D19*
%TO.P,R4,1*%
%TO.N,Net-(D3-A)*%
X9425000Y5500000D03*
%TO.P,R4,2*%
%TO.N,GND*%
X7775000Y5500000D03*
%TD*%
D20*
%TO.P,C2,1*%
%TO.N,GND*%
X-18680000Y590092D03*
%TO.P,C2,2*%
%TO.N,Net-(U1-CV)*%
X-18680000Y-959908D03*
%TD*%
D21*
%TO.P,RV1,1,1*%
%TO.N,+12V*%
X9300000Y7400000D03*
D22*
%TO.P,RV1,2,2*%
%TO.N,Net-(R3-Pad1)*%
X10300000Y10650000D03*
D21*
%TO.P,RV1,3,3*%
X11300000Y7400000D03*
%TD*%
D23*
%TO.P,C4,1*%
%TO.N,GND*%
X10975000Y1900000D03*
%TO.P,C4,2*%
%TO.N,+12V*%
X9425000Y1900000D03*
%TD*%
D24*
%TO.P,C3,1*%
%TO.N,GND*%
X-25900000Y-5350000D03*
%TO.P,C3,2*%
%TO.N,+12V*%
X-25900000Y-3450000D03*
%TD*%
D19*
%TO.P,R5,1*%
%TO.N,+12V*%
X11025000Y3900000D03*
%TO.P,R5,2*%
%TO.N,Net-(D3-A)*%
X9375000Y3900000D03*
%TD*%
D25*
%TO.P,D2,1,K*%
%TO.N,+12V*%
X-17300000Y-15600000D03*
%TO.P,D2,2,A*%
%TO.N,GND*%
X-17300000Y-11600000D03*
%TD*%
D23*
%TO.P,C1,1*%
%TO.N,/THR*%
X-22805000Y-7884908D03*
%TO.P,C1,2*%
%TO.N,GND*%
X-24355000Y-7884908D03*
%TD*%
D26*
%TO.P,R2,1*%
%TO.N,Net-(D1-A)*%
X-25800000Y-275000D03*
%TO.P,R2,2*%
%TO.N,+12V*%
X-25800000Y-1925000D03*
%TD*%
D27*
%TO.P,TH1,1*%
%TO.N,Net-(D1-K)*%
X-21080000Y3450000D03*
D28*
%TO.P,TH1,2*%
%TO.N,GND*%
X-18540000Y3450000D03*
%TD*%
D27*
%TO.P,J2,1,Pin_1*%
%TO.N,/PWM_5V*%
X-6980000Y1225000D03*
D28*
%TO.P,J2,2,Pin_2*%
%TO.N,/FAN_SPEED*%
X-9520000Y1225000D03*
%TO.P,J2,3,Pin_3*%
%TO.N,+12V*%
X-12060000Y1225000D03*
%TO.P,J2,4,Pin_4*%
%TO.N,GND*%
X-14600000Y1225000D03*
%TD*%
D29*
%TO.P,D1,1,K*%
%TO.N,Net-(D1-K)*%
X-25600000Y4550000D03*
%TO.P,D1,2,A*%
%TO.N,Net-(D1-A)*%
X-25600000Y1250000D03*
%TD*%
D30*
%TO.N,GND*%
X6900000Y10700000D03*
X-27500000Y-10900000D03*
X-5500000Y4100000D03*
X-25576129Y-7176129D03*
X10000000Y-7900000D03*
%TD*%
D31*
%TO.N,Net-(R3-Pad1)*%
X9675000Y12600000D02*
X9675000Y11275000D01*
X9675000Y11275000D02*
X10300000Y10650000D01*
%TO.N,Net-(U2-A)*%
X11325000Y12600000D02*
X11325000Y14825000D01*
X11325000Y14825000D02*
X11400000Y14900000D01*
%TO.N,GND*%
X12900000Y-800000D02*
X12900000Y2500000D01*
X12900000Y-100000D02*
X12900000Y-800000D01*
X12900000Y-800000D02*
X12900000Y-5900000D01*
X11400000Y-100000D02*
X12900000Y-100000D01*
X12900000Y-5900000D02*
X10900000Y-7900000D01*
X10900000Y-7900000D02*
X10000000Y-7900000D01*
%TO.N,/THR*%
X-22815000Y-4119908D02*
X-21545000Y-2849908D01*
X-21545000Y-2849908D02*
X-21545000Y-784908D01*
X-22815000Y-5734908D02*
X-22815000Y-7874908D01*
X-21545000Y945000D02*
X-22590092Y1990092D01*
X-22815000Y-7874908D02*
X-22805000Y-7884908D01*
X-21545000Y-784908D02*
X-21545000Y945000D01*
X-22590092Y1990092D02*
X-23680000Y1990092D01*
X-22815000Y-5734908D02*
X-22815000Y-4119908D01*
%TO.N,GND*%
X-10130000Y5600000D02*
X-16930000Y5600000D01*
X-24085000Y-7614908D02*
X-24355000Y-7884908D01*
D32*
X-18260000Y-12760000D02*
X-14600000Y-9100000D01*
D31*
X-18680000Y3310000D02*
X-18540000Y3450000D01*
X-16930000Y5600000D02*
X-18540000Y3990000D01*
X-10030000Y5500000D02*
X-10130000Y5600000D01*
D32*
X-20860000Y-12760000D02*
X-18260000Y-12760000D01*
D31*
X-25515092Y-5734908D02*
X-25900000Y-5350000D01*
X-18680000Y590092D02*
X-18680000Y3310000D01*
X-24085000Y-5734908D02*
X-25515092Y-5734908D01*
X7775000Y5500000D02*
X-10030000Y5500000D01*
X10975000Y1900000D02*
X10975000Y325000D01*
X10975000Y325000D02*
X11400000Y-100000D01*
D32*
X-14600000Y-2150000D02*
X-14600000Y-50000D01*
D31*
X-5500000Y4100000D02*
X-5850000Y4450000D01*
X-14875000Y-7525000D02*
X-14600000Y-7250000D01*
X-5850000Y4450000D02*
X-9955000Y4450000D01*
X-24085000Y-5734908D02*
X-24085000Y-7614908D01*
X-18540000Y3990000D02*
X-18540000Y3450000D01*
X-24867350Y-7884908D02*
X-24355000Y-7884908D01*
X-9955000Y5425000D02*
X-10130000Y5600000D01*
X-14850000Y200000D02*
X-14600000Y-50000D01*
X-25576129Y-7176129D02*
X-24867350Y-7884908D01*
D32*
X-14600000Y-50000D02*
X-14600000Y1225000D01*
D31*
X-14600000Y-7250000D02*
X-14600000Y-2150000D01*
X-9955000Y4450000D02*
X-9955000Y5425000D01*
D32*
X-14600000Y-9100000D02*
X-14600000Y-2150000D01*
D31*
%TO.N,Net-(U1-CV)*%
X-18680000Y-959908D02*
X-20100000Y-959908D01*
X-20100000Y-959908D02*
X-20275000Y-784908D01*
%TO.N,+12V*%
X-25800000Y-1925000D02*
X-25800000Y-3350000D01*
X-25900000Y-3450000D02*
X-24950000Y-3450000D01*
X11025000Y3597960D02*
X9425000Y1997960D01*
X-15380000Y3050000D02*
X-16580000Y1850000D01*
X-27400000Y-2395000D02*
X-27400000Y-3600000D01*
X-27400000Y-8300000D02*
X-26700000Y-9000000D01*
X8700000Y6800000D02*
X-25800000Y6800000D01*
X-24085000Y-2585000D02*
X-24085000Y-784908D01*
X-27050000Y-3450000D02*
X-25900000Y-3450000D01*
D32*
X-12060000Y-10260000D02*
X-17300000Y-15500000D01*
D31*
X-12060000Y1225000D02*
X-12060000Y2530000D01*
X-21775000Y-9000000D02*
X-20275000Y-7500000D01*
X-12580000Y3050000D02*
X-15380000Y3050000D01*
X9425000Y1900000D02*
X9425000Y425000D01*
D32*
X-17300000Y-15500000D02*
X-20660000Y-15500000D01*
D31*
X-25800000Y-3350000D02*
X-25900000Y-3450000D01*
X-16580000Y1850000D02*
X-16580000Y-4780000D01*
X-27400000Y-3600000D02*
X-27300000Y-3700000D01*
X9736912Y6800000D02*
X11025000Y5511912D01*
X-27300000Y-3700000D02*
X-27050000Y-3450000D01*
X9425000Y1997960D02*
X9425000Y1900000D01*
X11025000Y3900000D02*
X11025000Y3597960D01*
X-19300000Y-7500000D02*
X-20275000Y-7500000D01*
X-25800000Y6800000D02*
X-27400000Y5200000D01*
D32*
X-12060000Y1225000D02*
X-12060000Y-10260000D01*
D31*
X11025000Y5511912D02*
X11025000Y3900000D01*
D32*
X-20660000Y-15500000D02*
X-20860000Y-15300000D01*
D31*
X9300000Y7400000D02*
X8700000Y6800000D01*
X-27400000Y-2395000D02*
X-27400000Y-8300000D01*
X8700000Y6800000D02*
X9736912Y6800000D01*
X-20275000Y-7500000D02*
X-20275000Y-5734908D01*
X9425000Y425000D02*
X8900000Y-100000D01*
X-12060000Y2530000D02*
X-12580000Y3050000D01*
X-16580000Y-4780000D02*
X-19300000Y-7500000D01*
X-24950000Y-3450000D02*
X-24085000Y-2585000D01*
X-27400000Y5200000D02*
X-27400000Y-2395000D01*
X-26700000Y-9000000D02*
X-21775000Y-9000000D01*
%TO.N,Net-(D1-K)*%
X-21500000Y5100000D02*
X-23500000Y5100000D01*
X-23680000Y4920000D02*
X-23500000Y5100000D01*
X-21080000Y4680000D02*
X-21500000Y5100000D01*
X-23500000Y5100000D02*
X-25050000Y5100000D01*
X-23680000Y3640092D02*
X-23680000Y4920000D01*
X-21080000Y3450000D02*
X-21080000Y4680000D01*
X-25050000Y5100000D02*
X-25600000Y4550000D01*
%TO.N,Net-(D1-A)*%
X-25800000Y-275000D02*
X-25800000Y1050000D01*
X-25800000Y1050000D02*
X-25600000Y1250000D01*
X-22815000Y-784908D02*
X-22815000Y190091D01*
X-23524909Y900000D02*
X-25250000Y900000D01*
X-25250000Y900000D02*
X-25600000Y1250000D01*
X-22815000Y190091D02*
X-23524909Y900000D01*
%TO.N,/SPINDLE_SPEED*%
X-24360000Y-12760000D02*
X-25200000Y-13600000D01*
X-23600000Y-18400000D02*
X-14000000Y-18400000D01*
X-23400000Y-12760000D02*
X-24360000Y-12760000D01*
X-25200000Y-16800000D02*
X-23600000Y-18400000D01*
X-14000000Y-18400000D02*
X-2300000Y-6700000D01*
X3200000Y-6700000D02*
X7300000Y-2600000D01*
X-25200000Y-13600000D02*
X-25200000Y-16800000D01*
X7300000Y-2600000D02*
X10300000Y-2600000D01*
X7300000Y-2600000D02*
X7300000Y1812500D01*
X-2300000Y-6700000D02*
X3200000Y-6700000D01*
X7300000Y1812500D02*
X7800000Y2312500D01*
%TO.N,Net-(D3-A)*%
X9425000Y3950000D02*
X9375000Y3900000D01*
X7800000Y3887500D02*
X9362500Y3887500D01*
X9362500Y3887500D02*
X9375000Y3900000D01*
X9425000Y5500000D02*
X9425000Y3950000D01*
%TO.N,/FAN_SPEED*%
X-9520000Y-11690000D02*
X-15330000Y-17500000D01*
X-22700000Y-17500000D02*
X-23400000Y-16800000D01*
X-15330000Y-17500000D02*
X-22700000Y-17500000D01*
X-9520000Y1225000D02*
X-9520000Y-11690000D01*
X-23400000Y-16800000D02*
X-23400000Y-15300000D01*
%TO.N,/PWM_5V*%
X-7580000Y3150000D02*
X-6980000Y2550000D01*
X-10880000Y3150000D02*
X-7580000Y3150000D01*
X-11605000Y3875000D02*
X-10880000Y3150000D01*
X-6980000Y2550000D02*
X-6980000Y1225000D01*
X-11605000Y4450000D02*
X-11605000Y3875000D01*
X-13055000Y4450000D02*
X-11605000Y4450000D01*
%TO.N,Net-(R3-Pad1)*%
X11300000Y7400000D02*
X11300000Y9650000D01*
X11300000Y9650000D02*
X10300000Y10650000D01*
X10425000Y10775000D02*
X10300000Y10650000D01*
%TO.N,GND*%
X8775000Y14815000D02*
X8860000Y14900000D01*
%TO.N,/PWM*%
X-15380000Y4450000D02*
X-17480000Y2350000D01*
X-17480000Y2350000D02*
X-17480000Y-2380000D01*
X-21545000Y-4515000D02*
X-21545000Y-5734908D01*
X-18950000Y-3850000D02*
X-20880000Y-3850000D01*
X-20880000Y-3850000D02*
X-21545000Y-4515000D01*
X-17480000Y-2380000D02*
X-18950000Y-3850000D01*
X-14705000Y4450000D02*
X-15380000Y4450000D01*
%TD*%
%TA.AperFunction,Conductor*%
%TO.N,GND*%
G36*
X-27304812Y6939277D02*
G01*
X-27220044Y6891806D01*
X-27159896Y6815509D01*
X-27133524Y6722002D01*
X-27144943Y6625520D01*
X-27192414Y6540752D01*
X-27205686Y6526395D01*
X-27910289Y5821790D01*
X-28021788Y5710291D01*
X-28021790Y5710288D01*
X-28109394Y5579181D01*
X-28109397Y5579174D01*
X-28169737Y5433498D01*
X-28169739Y5433493D01*
X-28200500Y5278847D01*
X-28200500Y-8378846D01*
X-28169739Y-8533492D01*
X-28169737Y-8533497D01*
X-28109397Y-8679173D01*
X-28109394Y-8679180D01*
X-28021790Y-8810287D01*
X-28021789Y-8810289D01*
X-27321790Y-9510289D01*
X-27210291Y-9621787D01*
X-27210289Y-9621789D01*
X-27079179Y-9709394D01*
X-26976167Y-9752062D01*
X-26933498Y-9769737D01*
X-26778843Y-9800500D01*
X-26778842Y-9800500D01*
X-26778840Y-9800500D01*
X-21696158Y-9800500D01*
X-21541503Y-9769737D01*
X-21395821Y-9709394D01*
X-21264711Y-9621789D01*
X-20016352Y-8373430D01*
X-19935570Y-8319454D01*
X-19840282Y-8300500D01*
X-19221158Y-8300500D01*
X-19066503Y-8269737D01*
X-18920821Y-8209394D01*
X-18789711Y-8121789D01*
X-15958211Y-5290289D01*
X-15870606Y-5159179D01*
X-15810263Y-5013497D01*
X-15779500Y-4858842D01*
X-15779500Y-4701158D01*
X-15779500Y-75475D01*
X-15760546Y19813D01*
X-15706570Y100595D01*
X-15625788Y154571D01*
X-15530500Y173525D01*
X-15435212Y154571D01*
X-15387679Y128494D01*
X-15277577Y51400D01*
X-15063489Y-48431D01*
X-14850000Y-105635D01*
X-14850000Y791988D01*
X-14792993Y759075D01*
X-14665826Y725000D01*
X-14534174Y725000D01*
X-14407007Y759075D01*
X-14350000Y791988D01*
X-14350000Y-105635D01*
X-14136512Y-48431D01*
X-13914732Y54986D01*
X-13820361Y78078D01*
X-13724337Y63299D01*
X-13641278Y12897D01*
X-13583829Y-65453D01*
X-13560737Y-159824D01*
X-13560500Y-170685D01*
X-13560500Y-9535332D01*
X-13579454Y-9630620D01*
X-13633430Y-9711402D01*
X-17698599Y-13776570D01*
X-17779381Y-13830546D01*
X-17874667Y-13849500D01*
X-18000006Y-13849500D01*
X-18102801Y-13860001D01*
X-18269335Y-13915185D01*
X-18269336Y-13915186D01*
X-18345929Y-13962429D01*
X-18436981Y-13996320D01*
X-18476646Y-13999500D01*
X-19417935Y-13999500D01*
X-19513223Y-13980546D01*
X-19594005Y-13926570D01*
X-19647981Y-13845788D01*
X-19666935Y-13750500D01*
X-19647981Y-13655212D01*
X-19626389Y-13614310D01*
X-19536274Y-13476377D01*
X-19536269Y-13476368D01*
X-19436414Y-13248722D01*
X-19375961Y-13010000D01*
X-20484722Y-13010000D01*
X-20440667Y-12933694D01*
X-20410000Y-12819244D01*
X-20410000Y-12700756D01*
X-20440667Y-12586306D01*
X-20484722Y-12510000D01*
X-19375961Y-12510000D01*
X-19436414Y-12271277D01*
X-19536269Y-12043631D01*
X-19536269Y-12043630D01*
X-19672231Y-11835524D01*
X-19672233Y-11835522D01*
X-19840589Y-11652639D01*
X-19840601Y-11652629D01*
X-20036763Y-11499949D01*
X-20036770Y-11499944D01*
X-20255394Y-11381630D01*
X-20490513Y-11300915D01*
X-20610000Y-11280976D01*
X-20610000Y-12384722D01*
X-20686306Y-12340667D01*
X-20800756Y-12310000D01*
X-20919244Y-12310000D01*
X-21033694Y-12340667D01*
X-21110000Y-12384722D01*
X-21110000Y-11280976D01*
X-21110001Y-11280976D01*
X-21229488Y-11300915D01*
X-21464607Y-11381630D01*
X-21683231Y-11499944D01*
X-21683238Y-11499949D01*
X-21879400Y-11652629D01*
X-21879407Y-11652635D01*
X-21946466Y-11725480D01*
X-22024949Y-11782748D01*
X-22119372Y-11805622D01*
X-22215362Y-11790621D01*
X-22298305Y-11740029D01*
X-22312854Y-11725479D01*
X-22380248Y-11652270D01*
X-22380253Y-11652265D01*
X-22380256Y-11652262D01*
X-22401104Y-11636035D01*
X-22576486Y-11499529D01*
X-22576490Y-11499526D01*
X-22576491Y-11499526D01*
X-22681117Y-11442905D01*
X-22795189Y-11381172D01*
X-23030379Y-11300430D01*
X-23030390Y-11300428D01*
X-23275665Y-11259500D01*
X-23524335Y-11259500D01*
X-23769611Y-11300428D01*
X-23769622Y-11300430D01*
X-24004812Y-11381172D01*
X-24223515Y-11499529D01*
X-24419739Y-11652257D01*
X-24419752Y-11652269D01*
X-24588164Y-11835214D01*
X-24588172Y-11835225D01*
X-24693090Y-11995814D01*
X-24761075Y-12065220D01*
X-24763206Y-12066659D01*
X-24870286Y-12138207D01*
X-24870291Y-12138211D01*
X-24870290Y-12138212D01*
X-25710289Y-12978211D01*
X-25710290Y-12978210D01*
X-25821788Y-13089709D01*
X-25821790Y-13089712D01*
X-25909394Y-13220819D01*
X-25909397Y-13220826D01*
X-25969737Y-13366502D01*
X-25969739Y-13366507D01*
X-26000500Y-13521153D01*
X-26000500Y-16878846D01*
X-25969739Y-17033492D01*
X-25969737Y-17033497D01*
X-25909397Y-17179173D01*
X-25909394Y-17179180D01*
X-25821792Y-17310285D01*
X-25821789Y-17310289D01*
X-24110289Y-19021789D01*
X-23979179Y-19109394D01*
X-23979177Y-19109394D01*
X-23979175Y-19109396D01*
X-23906338Y-19139566D01*
X-23833497Y-19169738D01*
X-23678842Y-19200500D01*
X-23678839Y-19200500D01*
X-13921158Y-19200500D01*
X-13766503Y-19169737D01*
X-13620821Y-19109394D01*
X-13489711Y-19021789D01*
X-2041352Y-7573430D01*
X-1960570Y-7519454D01*
X-1865282Y-7500500D01*
X3278842Y-7500500D01*
X3433497Y-7469737D01*
X3579179Y-7409394D01*
X3710289Y-7321789D01*
X7558648Y-3473430D01*
X7639430Y-3419454D01*
X7734718Y-3400500D01*
X8735877Y-3400500D01*
X8831165Y-3419454D01*
X8911947Y-3473430D01*
X8965923Y-3554212D01*
X8972238Y-3571178D01*
X9011900Y-3690873D01*
X9011905Y-3690883D01*
X9099401Y-3832735D01*
X9099403Y-3832737D01*
X9099404Y-3832739D01*
X9217261Y-3950596D01*
X9217263Y-3950597D01*
X9217264Y-3950598D01*
X9359116Y-4038094D01*
X9359119Y-4038095D01*
X9359122Y-4038097D01*
X9517337Y-4090524D01*
X9614987Y-4100500D01*
X10985012Y-4100499D01*
X11082663Y-4090524D01*
X11161770Y-4064310D01*
X11240873Y-4038099D01*
X11240875Y-4038097D01*
X11240878Y-4038097D01*
X11382739Y-3950596D01*
X11500596Y-3832739D01*
X11588097Y-3690878D01*
X11640524Y-3532663D01*
X11650500Y-3435013D01*
X11650499Y-1848998D01*
X11669453Y-1753711D01*
X11723429Y-1672930D01*
X11804211Y-1618953D01*
X11899499Y-1599999D01*
X12084962Y-1599999D01*
X12084978Y-1599998D01*
X12182564Y-1590029D01*
X12182567Y-1590028D01*
X12340662Y-1537641D01*
X12340664Y-1537640D01*
X12482423Y-1450202D01*
X12482427Y-1450199D01*
X12600199Y-1332427D01*
X12600202Y-1332423D01*
X12687639Y-1190666D01*
X12714138Y-1110697D01*
X12762102Y-1026207D01*
X12838748Y-966504D01*
X12932407Y-940676D01*
X13028821Y-952656D01*
X13113311Y-1000620D01*
X13173014Y-1077266D01*
X13198842Y-1170925D01*
X13199500Y-1189018D01*
X13199500Y-8393474D01*
X13199159Y-8406506D01*
X13182655Y-8721412D01*
X13179930Y-8747332D01*
X13131625Y-9052316D01*
X13126206Y-9077810D01*
X13046280Y-9376097D01*
X13038227Y-9400884D01*
X12927563Y-9689175D01*
X12916962Y-9712986D01*
X12776774Y-9988120D01*
X12763742Y-10010691D01*
X12595556Y-10269675D01*
X12580236Y-10290761D01*
X12385908Y-10530736D01*
X12368469Y-10550105D01*
X12150105Y-10768469D01*
X12130736Y-10785908D01*
X11890761Y-10980236D01*
X11869675Y-10995556D01*
X11610691Y-11163742D01*
X11588120Y-11176774D01*
X11312986Y-11316962D01*
X11289175Y-11327563D01*
X11000884Y-11438227D01*
X10976097Y-11446280D01*
X10677810Y-11526206D01*
X10652316Y-11531625D01*
X10347332Y-11579930D01*
X10321412Y-11582655D01*
X10006507Y-11599159D01*
X9993475Y-11599500D01*
X290395Y-11599500D01*
X-127185Y-11636034D01*
X-127196Y-11636035D01*
X-539995Y-11708823D01*
X-540028Y-11708830D01*
X-944913Y-11817319D01*
X-944921Y-11817322D01*
X-1338819Y-11960689D01*
X-1338834Y-11960695D01*
X-1718726Y-12137842D01*
X-1718755Y-12137857D01*
X-2081751Y-12347434D01*
X-2081772Y-12347447D01*
X-2425131Y-12587869D01*
X-2425143Y-12587878D01*
X-2425143Y-12587879D01*
X-2746260Y-12857329D01*
X-3042671Y-13153740D01*
X-3122504Y-13248881D01*
X-3312131Y-13474869D01*
X-3552553Y-13818228D01*
X-3552566Y-13818249D01*
X-3762143Y-14181245D01*
X-3762158Y-14181274D01*
X-3939305Y-14561166D01*
X-3939311Y-14561181D01*
X-4082678Y-14955079D01*
X-4082681Y-14955087D01*
X-4191170Y-15359972D01*
X-4191177Y-15360005D01*
X-4263965Y-15772804D01*
X-4263966Y-15772815D01*
X-4300500Y-16190395D01*
X-4300500Y-18393474D01*
X-4300841Y-18406506D01*
X-4317345Y-18721412D01*
X-4320070Y-18747332D01*
X-4368375Y-19052316D01*
X-4373794Y-19077810D01*
X-4453720Y-19376097D01*
X-4461773Y-19400884D01*
X-4572437Y-19689175D01*
X-4583038Y-19712986D01*
X-4723226Y-19988120D01*
X-4736258Y-20010691D01*
X-4904444Y-20269675D01*
X-4919764Y-20290761D01*
X-5114092Y-20530736D01*
X-5131531Y-20550105D01*
X-5349895Y-20768469D01*
X-5369264Y-20785908D01*
X-5609239Y-20980236D01*
X-5630325Y-20995556D01*
X-5889309Y-21163742D01*
X-5911880Y-21176774D01*
X-6187014Y-21316962D01*
X-6210825Y-21327563D01*
X-6499116Y-21438227D01*
X-6523903Y-21446280D01*
X-6822190Y-21526206D01*
X-6847684Y-21531625D01*
X-7152668Y-21579930D01*
X-7178588Y-21582655D01*
X-7493493Y-21599159D01*
X-7506525Y-21599500D01*
X-25993475Y-21599500D01*
X-26006507Y-21599159D01*
X-26321413Y-21582655D01*
X-26347333Y-21579930D01*
X-26652317Y-21531625D01*
X-26677811Y-21526206D01*
X-26976098Y-21446280D01*
X-27000885Y-21438227D01*
X-27289176Y-21327563D01*
X-27312982Y-21316964D01*
X-27588132Y-21176768D01*
X-27610692Y-21163742D01*
X-27869676Y-20995556D01*
X-27890762Y-20980236D01*
X-28130737Y-20785908D01*
X-28150106Y-20768469D01*
X-28368470Y-20550105D01*
X-28385909Y-20530736D01*
X-28580237Y-20290761D01*
X-28595557Y-20269675D01*
X-28763743Y-20010691D01*
X-28776765Y-19988137D01*
X-28916969Y-19712973D01*
X-28927564Y-19689175D01*
X-29038228Y-19400884D01*
X-29046281Y-19376097D01*
X-29126207Y-19077810D01*
X-29131626Y-19052316D01*
X-29136461Y-19021791D01*
X-29179932Y-18747330D01*
X-29182656Y-18721411D01*
X-29199159Y-18406505D01*
X-29199500Y-18393474D01*
X-29199500Y4093479D01*
X-29199159Y4106510D01*
X-29196661Y4154177D01*
X-29182656Y4421418D01*
X-29179931Y4447333D01*
X-29177195Y4464606D01*
X-29131625Y4752326D01*
X-29126207Y4777811D01*
X-29046281Y5076098D01*
X-29038228Y5100885D01*
X-29015768Y5159394D01*
X-28927562Y5389182D01*
X-28916973Y5412967D01*
X-28776761Y5688147D01*
X-28763750Y5710681D01*
X-28595552Y5969684D01*
X-28580243Y5990755D01*
X-28385900Y6230748D01*
X-28368480Y6250096D01*
X-28150096Y6468480D01*
X-28130748Y6485900D01*
X-27890755Y6680243D01*
X-27869684Y6695552D01*
X-27610681Y6863750D01*
X-27588140Y6876764D01*
X-27494795Y6924326D01*
X-27401294Y6950696D01*
X-27304812Y6939277D01*
G37*
%TD.AperFunction*%
%TA.AperFunction,Conductor*%
G36*
X6721288Y5980546D02*
G01*
X6802070Y5926570D01*
X6856046Y5845788D01*
X6875000Y5750500D01*
X6875000Y5750001D01*
X6875001Y5750000D01*
X7776000Y5750000D01*
X7871288Y5731046D01*
X7952070Y5677070D01*
X8006046Y5596288D01*
X8025000Y5501000D01*
X8025000Y5499000D01*
X8006046Y5403712D01*
X7952070Y5322930D01*
X7871288Y5268954D01*
X7776000Y5250000D01*
X6875002Y5250000D01*
X6875001Y5249999D01*
X6875001Y5168432D01*
X6881409Y5097895D01*
X6931981Y4935603D01*
X6931983Y4935598D01*
X6991847Y4836572D01*
X7024923Y4745221D01*
X7020523Y4648166D01*
X6982960Y4567965D01*
X6983333Y4567735D01*
X6981340Y4564505D01*
X6979316Y4560182D01*
X6975964Y4555789D01*
X6887451Y4412288D01*
X6834564Y4252687D01*
X6834564Y4252684D01*
X6824500Y4154177D01*
X6824500Y3620824D01*
X6834564Y3522317D01*
X6834564Y3522314D01*
X6887451Y3362713D01*
X6968866Y3230719D01*
X7002758Y3139667D01*
X6999226Y3042576D01*
X6968866Y2969281D01*
X6887451Y2837288D01*
X6834564Y2677687D01*
X6834564Y2677684D01*
X6824500Y2579177D01*
X6824500Y2572218D01*
X6805546Y2476930D01*
X6751571Y2396149D01*
X6678209Y2322787D01*
X6590606Y2191681D01*
X6590603Y2191674D01*
X6530263Y2045998D01*
X6530261Y2045993D01*
X6499500Y1891347D01*
X6499500Y-2165282D01*
X6480546Y-2260570D01*
X6426570Y-2341352D01*
X2941352Y-5826570D01*
X2860570Y-5880546D01*
X2765282Y-5899500D01*
X-2221157Y-5899500D01*
X-2378842Y-5899500D01*
X-2533497Y-5930262D01*
X-2533498Y-5930262D01*
X-2533501Y-5930263D01*
X-2679175Y-5990603D01*
X-2679180Y-5990606D01*
X-2810286Y-6078208D01*
X-8294430Y-11562351D01*
X-8375212Y-11616327D01*
X-8470500Y-11635281D01*
X-8565788Y-11616327D01*
X-8646570Y-11562351D01*
X-8700546Y-11481569D01*
X-8719500Y-11386281D01*
X-8719500Y-20065D01*
X-8700546Y75223D01*
X-8646570Y156005D01*
X-8565788Y209981D01*
X-8470500Y228935D01*
X-8375212Y209981D01*
X-8294430Y156005D01*
X-8271168Y129158D01*
X-8253671Y105786D01*
X-8215643Y54986D01*
X-8187546Y17454D01*
X-8072331Y-68796D01*
X-7937483Y-119091D01*
X-7877873Y-125500D01*
X-6082128Y-125499D01*
X-6022517Y-119091D01*
X-5887669Y-68796D01*
X-5772454Y17454D01*
X-5687364Y131120D01*
X-2000500Y131120D01*
X-2000500Y-131119D01*
X-1966271Y-391112D01*
X-1898399Y-644417D01*
X-1798047Y-886689D01*
X-1798045Y-886693D01*
X-1798043Y-886697D01*
X-1732270Y-1000620D01*
X-1666927Y-1113798D01*
X-1666918Y-1113812D01*
X-1507287Y-1321845D01*
X-1507282Y-1321851D01*
X-1321851Y-1507282D01*
X-1321847Y-1507285D01*
X-1321846Y-1507286D01*
X-1113813Y-1666917D01*
X-1113808Y-1666920D01*
X-1113803Y-1666924D01*
X-886697Y-1798043D01*
X-886692Y-1798045D01*
X-886690Y-1798046D01*
X-839386Y-1817640D01*
X-644419Y-1898398D01*
X-391116Y-1966270D01*
X-131120Y-2000500D01*
X131120Y-2000500D01*
X391116Y-1966270D01*
X644419Y-1898398D01*
X886697Y-1798043D01*
X1113803Y-1666924D01*
X1321851Y-1507282D01*
X1507282Y-1321851D01*
X1666924Y-1113803D01*
X1798043Y-886697D01*
X1898398Y-644419D01*
X1966270Y-391116D01*
X2000500Y-131120D01*
X2000500Y131120D01*
X1966270Y391116D01*
X1898398Y644419D01*
X1798043Y886697D01*
X1666924Y1113803D01*
X1666920Y1113808D01*
X1666917Y1113813D01*
X1507286Y1321846D01*
X1507285Y1321847D01*
X1507282Y1321851D01*
X1321851Y1507282D01*
X1321846Y1507286D01*
X1321845Y1507287D01*
X1113812Y1666918D01*
X1113798Y1666927D01*
X960881Y1755213D01*
X886697Y1798043D01*
X886695Y1798044D01*
X886693Y1798045D01*
X886689Y1798047D01*
X644417Y1898399D01*
X520835Y1931512D01*
X391116Y1966270D01*
X391111Y1966271D01*
X391114Y1966271D01*
X131120Y2000500D01*
X-131120Y2000500D01*
X-391113Y1966271D01*
X-644418Y1898399D01*
X-886690Y1798047D01*
X-886694Y1798045D01*
X-1113799Y1666927D01*
X-1113813Y1666918D01*
X-1321846Y1507287D01*
X-1507287Y1321846D01*
X-1666918Y1113813D01*
X-1666927Y1113799D01*
X-1798045Y886694D01*
X-1798047Y886690D01*
X-1898399Y644418D01*
X-1966271Y391113D01*
X-2000500Y131120D01*
X-5687364Y131120D01*
X-5686204Y132669D01*
X-5635909Y267517D01*
X-5629500Y327127D01*
X-5629501Y2122872D01*
X-5635909Y2182483D01*
X-5686204Y2317331D01*
X-5772454Y2432546D01*
X-5887669Y2518796D01*
X-6022517Y2569091D01*
X-6022518Y2569092D01*
X-6037111Y2574534D01*
X-6036478Y2576232D01*
X-6107429Y2608641D01*
X-6173627Y2679753D01*
X-6205990Y2762017D01*
X-6210263Y2783496D01*
X-6210263Y2783497D01*
X-6216460Y2798457D01*
X-6216462Y2798463D01*
X-6270604Y2929174D01*
X-6270607Y2929181D01*
X-6321206Y3004907D01*
X-6358211Y3060289D01*
X-6398641Y3100719D01*
X-6469710Y3171789D01*
X-7069711Y3771789D01*
X-7113613Y3801124D01*
X-7200820Y3859394D01*
X-7200827Y3859397D01*
X-7346503Y3919737D01*
X-7346508Y3919739D01*
X-7501154Y3950500D01*
X-7501158Y3950500D01*
X-8806000Y3950500D01*
X-8901288Y3969454D01*
X-8982070Y4023430D01*
X-9036046Y4104212D01*
X-9055000Y4199500D01*
X-9055000Y4199999D01*
X-9055001Y4200000D01*
X-9956000Y4200000D01*
X-10051288Y4218954D01*
X-10132070Y4272930D01*
X-10186046Y4353712D01*
X-10205000Y4449000D01*
X-10205000Y5424999D01*
X-9705000Y5424999D01*
X-9705000Y4700001D01*
X-9704999Y4700000D01*
X-9055002Y4700000D01*
X-9055001Y4700001D01*
X-9055001Y4781569D01*
X-9061410Y4852106D01*
X-9111982Y5014398D01*
X-9111984Y5014403D01*
X-9199923Y5159871D01*
X-9320130Y5280078D01*
X-9465598Y5368017D01*
X-9465603Y5368019D01*
X-9627899Y5418592D01*
X-9698409Y5424999D01*
X-9698433Y5425000D01*
X-9704999Y5425000D01*
X-9705000Y5424999D01*
X-10205000Y5424999D01*
X-10205000Y5425000D01*
X-10211565Y5424999D01*
X-10211574Y5424999D01*
X-10282106Y5418591D01*
X-10444398Y5368019D01*
X-10444403Y5368017D01*
X-10589871Y5280078D01*
X-10603576Y5266372D01*
X-10684358Y5212396D01*
X-10779646Y5193442D01*
X-10874934Y5212396D01*
X-10955713Y5266370D01*
X-10969815Y5280472D01*
X-11008819Y5304051D01*
X-11115392Y5368478D01*
X-11277804Y5419086D01*
X-11277812Y5419088D01*
X-11348370Y5425500D01*
X-11348384Y5425500D01*
X-11861616Y5425500D01*
X-11861631Y5425500D01*
X-11932189Y5419088D01*
X-11932197Y5419086D01*
X-12094611Y5368477D01*
X-12201183Y5304051D01*
X-12292534Y5270975D01*
X-12389589Y5275375D01*
X-12458817Y5304051D01*
X-12565390Y5368477D01*
X-12727804Y5419086D01*
X-12727812Y5419088D01*
X-12798370Y5425500D01*
X-12798384Y5425500D01*
X-13311616Y5425500D01*
X-13311631Y5425500D01*
X-13382189Y5419088D01*
X-13382197Y5419086D01*
X-13544609Y5368478D01*
X-13690187Y5280471D01*
X-13703934Y5266724D01*
X-13784717Y5212749D01*
X-13880005Y5193797D01*
X-13975293Y5212753D01*
X-14056066Y5266724D01*
X-14069814Y5280471D01*
X-14069815Y5280472D01*
X-14108819Y5304051D01*
X-14215392Y5368478D01*
X-14377804Y5419086D01*
X-14377812Y5419088D01*
X-14448370Y5425500D01*
X-14448384Y5425500D01*
X-14961616Y5425500D01*
X-14961631Y5425500D01*
X-15032189Y5419088D01*
X-15032197Y5419086D01*
X-15194607Y5368478D01*
X-15244122Y5338545D01*
X-15330364Y5286410D01*
X-15421710Y5253335D01*
X-15457731Y5250610D01*
X-15458848Y5250500D01*
X-15613495Y5219739D01*
X-15613498Y5219738D01*
X-15656167Y5202063D01*
X-15656168Y5202063D01*
X-15759172Y5159398D01*
X-15759180Y5159394D01*
X-15872467Y5083697D01*
X-15890289Y5071789D01*
X-15890291Y5071788D01*
X-16945796Y4016285D01*
X-17026577Y3962309D01*
X-17121865Y3943355D01*
X-17217153Y3962309D01*
X-17297935Y4016286D01*
X-17347536Y4087123D01*
X-17366402Y4127580D01*
X-17501890Y4321077D01*
X-17668924Y4488111D01*
X-17862424Y4623601D01*
X-18076516Y4723434D01*
X-18289999Y4780637D01*
X-18290000Y4780636D01*
X-18290000Y3883012D01*
X-18347007Y3915925D01*
X-18474174Y3950000D01*
X-18605826Y3950000D01*
X-18732993Y3915925D01*
X-18790000Y3883012D01*
X-18790000Y4780636D01*
X-18790002Y4780637D01*
X-19003484Y4723434D01*
X-19003495Y4723430D01*
X-19217572Y4623604D01*
X-19217580Y4623600D01*
X-19411091Y4488101D01*
X-19415146Y4484698D01*
X-19418858Y4482662D01*
X-19419983Y4481874D01*
X-19420070Y4481998D01*
X-19500326Y4437972D01*
X-19596905Y4427400D01*
X-19690177Y4454591D01*
X-19765943Y4515407D01*
X-19774908Y4528540D01*
X-19775531Y4528073D01*
X-19786204Y4542330D01*
X-19786204Y4542331D01*
X-19872454Y4657546D01*
X-19987669Y4743796D01*
X-20122517Y4794091D01*
X-20122522Y4794093D01*
X-20137674Y4797673D01*
X-20137321Y4799170D01*
X-20213075Y4822892D01*
X-20287623Y4885195D01*
X-20323785Y4946144D01*
X-20370604Y5059175D01*
X-20370607Y5059180D01*
X-20386989Y5083697D01*
X-20458211Y5190289D01*
X-20842356Y5574434D01*
X-20896329Y5655212D01*
X-20915283Y5750500D01*
X-20896329Y5845788D01*
X-20842353Y5926570D01*
X-20761571Y5980546D01*
X-20666283Y5999500D01*
X6626000Y5999500D01*
X6721288Y5980546D01*
G37*
%TD.AperFunction*%
%TA.AperFunction,Conductor*%
G36*
X-25803712Y-5118954D02*
G01*
X-25722930Y-5172930D01*
X-25668954Y-5253712D01*
X-25650000Y-5349000D01*
X-25650000Y-6349998D01*
X-25649999Y-6349999D01*
X-25375032Y-6349999D01*
X-25375016Y-6349998D01*
X-25272303Y-6339505D01*
X-25212324Y-6319630D01*
X-25115911Y-6307649D01*
X-25022251Y-6333475D01*
X-24945605Y-6393178D01*
X-24897639Y-6477667D01*
X-24885000Y-6555991D01*
X-24885000Y-6625558D01*
X-24882101Y-6662394D01*
X-24882099Y-6662405D01*
X-24859314Y-6740833D01*
X-24850932Y-6837625D01*
X-24880229Y-6930258D01*
X-24942744Y-7004628D01*
X-24967706Y-7022225D01*
X-25032729Y-7062332D01*
X-25152575Y-7182178D01*
X-25241547Y-7326424D01*
X-25294856Y-7487304D01*
X-25305000Y-7586590D01*
X-25305000Y-7634907D01*
X-25304999Y-7634908D01*
X-24354000Y-7634908D01*
X-24258712Y-7653862D01*
X-24177930Y-7707838D01*
X-24123954Y-7788620D01*
X-24105000Y-7883908D01*
X-24105000Y-7885908D01*
X-24123954Y-7981196D01*
X-24177930Y-8061978D01*
X-24258712Y-8115954D01*
X-24354000Y-8134908D01*
X-25309139Y-8134908D01*
X-25377442Y-8180546D01*
X-25472730Y-8199500D01*
X-26265282Y-8199500D01*
X-26360570Y-8180546D01*
X-26441352Y-8126570D01*
X-26526570Y-8041352D01*
X-26580546Y-7960570D01*
X-26599500Y-7865282D01*
X-26599500Y-6598999D01*
X-26580546Y-6503711D01*
X-26526570Y-6422929D01*
X-26445788Y-6368953D01*
X-26350500Y-6349999D01*
X-26150000Y-6349999D01*
X-26150000Y-5349000D01*
X-26131046Y-5253712D01*
X-26077070Y-5172930D01*
X-25996288Y-5118954D01*
X-25901000Y-5100000D01*
X-25899000Y-5100000D01*
X-25803712Y-5118954D01*
G37*
%TD.AperFunction*%
%TA.AperFunction,Conductor*%
G36*
X-23724723Y-3574181D02*
G01*
X-23643941Y-3628157D01*
X-23589965Y-3708939D01*
X-23571011Y-3804227D01*
X-23581733Y-3876508D01*
X-23584739Y-3886414D01*
X-23617887Y-4053064D01*
X-23620229Y-4052598D01*
X-23643124Y-4128044D01*
X-23704766Y-4203139D01*
X-23790454Y-4248928D01*
X-23824135Y-4252571D01*
X-23835000Y-4262610D01*
X-23835000Y-5735908D01*
X-23853954Y-5831196D01*
X-23907930Y-5911978D01*
X-23988712Y-5965954D01*
X-24084000Y-5984908D01*
X-24086000Y-5984908D01*
X-24181288Y-5965954D01*
X-24262070Y-5911978D01*
X-24316046Y-5831196D01*
X-24335000Y-5735908D01*
X-24335000Y-4246056D01*
X-24355482Y-4217876D01*
X-24378179Y-4123410D01*
X-24362998Y-4027448D01*
X-24312250Y-3944601D01*
X-24305493Y-3937570D01*
X-23996075Y-3628152D01*
X-23915299Y-3574181D01*
X-23820011Y-3555227D01*
X-23724723Y-3574181D01*
G37*
%TD.AperFunction*%
%TA.AperFunction,Conductor*%
G36*
X-18290000Y2043501D02*
G01*
X-18282632Y2021798D01*
X-18280500Y1989287D01*
X-18280500Y1789092D01*
X-18299454Y1693804D01*
X-18353430Y1613022D01*
X-18364397Y1605695D01*
X-18430000Y1540091D01*
X-18430000Y589092D01*
X-18448954Y493804D01*
X-18502930Y413022D01*
X-18583712Y359046D01*
X-18679000Y340092D01*
X-18681000Y340092D01*
X-18776288Y359046D01*
X-18857070Y413022D01*
X-18911046Y493804D01*
X-18930000Y589092D01*
X-18930000Y1540093D01*
X-18978312Y1540092D01*
X-19077610Y1529948D01*
X-19077613Y1529947D01*
X-19238481Y1476641D01*
X-19382730Y1387667D01*
X-19502575Y1267822D01*
X-19591547Y1123576D01*
X-19644858Y962693D01*
X-19652671Y886217D01*
X-19681212Y793349D01*
X-19743120Y718473D01*
X-19828970Y672987D01*
X-19925691Y663817D01*
X-19969850Y672414D01*
X-20022425Y687689D01*
X-20022437Y687691D01*
X-20059296Y690592D01*
X-20059306Y690592D01*
X-20490694Y690592D01*
X-20495500Y690592D01*
X-20590788Y709546D01*
X-20671570Y763522D01*
X-20725546Y844304D01*
X-20744500Y939592D01*
X-20744500Y1023846D01*
X-20748263Y1042761D01*
X-20748264Y1042767D01*
X-20775262Y1178494D01*
X-20775263Y1178496D01*
X-20775263Y1178497D01*
X-20798509Y1234618D01*
X-20798509Y1234619D01*
X-20834640Y1321846D01*
X-20835606Y1324179D01*
X-20879608Y1390032D01*
X-20923209Y1455286D01*
X-20923211Y1455289D01*
X-21034711Y1566789D01*
X-21034714Y1566791D01*
X-21142358Y1674435D01*
X-21196331Y1755213D01*
X-21215285Y1850501D01*
X-21196331Y1945789D01*
X-21142355Y2026571D01*
X-21061573Y2080547D01*
X-20966285Y2099501D01*
X-20182134Y2099501D01*
X-20182128Y2099501D01*
X-20122517Y2105909D01*
X-19987669Y2156204D01*
X-19872454Y2242454D01*
X-19786204Y2357669D01*
X-19786204Y2357671D01*
X-19775531Y2371927D01*
X-19772308Y2369515D01*
X-19731466Y2418403D01*
X-19645386Y2463451D01*
X-19548619Y2472128D01*
X-19455898Y2443114D01*
X-19415137Y2415296D01*
X-19411082Y2411894D01*
X-19217577Y2276400D01*
X-19003489Y2176569D01*
X-18790000Y2119365D01*
X-18790000Y3016988D01*
X-18732993Y2984075D01*
X-18605826Y2950000D01*
X-18474174Y2950000D01*
X-18347007Y2984075D01*
X-18290000Y3016988D01*
X-18290000Y2043501D01*
G37*
%TD.AperFunction*%
%TA.AperFunction,Conductor*%
G36*
X13028821Y14045752D02*
G01*
X13113311Y13997788D01*
X13173014Y13921142D01*
X13198842Y13827483D01*
X13199500Y13809390D01*
X13199500Y989020D01*
X13180546Y893732D01*
X13126570Y812950D01*
X13045788Y758974D01*
X12950500Y740020D01*
X12855212Y758974D01*
X12774430Y812950D01*
X12720454Y893732D01*
X12714139Y910698D01*
X12687641Y990663D01*
X12687640Y990665D01*
X12600202Y1132424D01*
X12600199Y1132428D01*
X12482427Y1250200D01*
X12482423Y1250203D01*
X12340666Y1337640D01*
X12182554Y1390032D01*
X12148692Y1393491D01*
X12055823Y1422031D01*
X11980947Y1483939D01*
X11935460Y1569788D01*
X11925000Y1641201D01*
X11925000Y1649999D01*
X11924999Y1650000D01*
X10974000Y1650000D01*
X10878712Y1668954D01*
X10797930Y1722930D01*
X10743954Y1803712D01*
X10725000Y1899000D01*
X10725000Y1901000D01*
X10743954Y1996288D01*
X10797930Y2077070D01*
X10878712Y2131046D01*
X10974000Y2150000D01*
X11924998Y2150000D01*
X11924999Y2150001D01*
X11924999Y2198304D01*
X11924998Y2198321D01*
X11914855Y2297610D01*
X11914854Y2297613D01*
X11861548Y2458481D01*
X11772574Y2602730D01*
X11659050Y2716254D01*
X11605074Y2797036D01*
X11586120Y2892324D01*
X11605074Y2987612D01*
X11659050Y3068394D01*
X11660182Y3069527D01*
X11660185Y3069528D01*
X11780472Y3189815D01*
X11868478Y3335394D01*
X11919086Y3497804D01*
X11921314Y3522314D01*
X11925499Y3568370D01*
X11925500Y3568391D01*
X11925500Y4231610D01*
X11925499Y4231631D01*
X11919087Y4302189D01*
X11919086Y4302192D01*
X11919086Y4302196D01*
X11868478Y4464606D01*
X11867267Y4466610D01*
X11861409Y4476301D01*
X11828334Y4567653D01*
X11825500Y4605116D01*
X11825500Y5590754D01*
X11825499Y5590757D01*
X11817814Y5629395D01*
X11817814Y5629394D01*
X11794738Y5745409D01*
X11734394Y5891091D01*
X11720312Y5912166D01*
X11683134Y6001921D01*
X11683133Y6099076D01*
X11720312Y6188836D01*
X11789010Y6257536D01*
X11878769Y6294716D01*
X11927349Y6299501D01*
X11947866Y6299501D01*
X11947872Y6299501D01*
X12007483Y6305909D01*
X12142331Y6356204D01*
X12257546Y6442454D01*
X12343796Y6557669D01*
X12394091Y6692517D01*
X12400500Y6752127D01*
X12400499Y8047872D01*
X12394091Y8107483D01*
X12343796Y8242331D01*
X12257546Y8357546D01*
X12235788Y8373834D01*
X12200277Y8400418D01*
X12135355Y8472697D01*
X12103034Y8564318D01*
X12100500Y8599751D01*
X12100500Y9728840D01*
X12095553Y9753712D01*
X12069738Y9883497D01*
X12009394Y10029179D01*
X11921789Y10160289D01*
X11812030Y10270048D01*
X11673429Y10408650D01*
X11619453Y10489431D01*
X11600499Y10584719D01*
X11600499Y11431587D01*
X11619453Y11526875D01*
X11673429Y11607657D01*
X11754211Y11661633D01*
X11775411Y11669309D01*
X11814606Y11681522D01*
X11960185Y11769528D01*
X12080472Y11889815D01*
X12168478Y12035394D01*
X12219086Y12197804D01*
X12225500Y12268384D01*
X12225500Y12931616D01*
X12219086Y13002196D01*
X12173404Y13148797D01*
X12163153Y13245403D01*
X12190653Y13338584D01*
X12251718Y13414149D01*
X12332813Y13459230D01*
X12340872Y13461901D01*
X12340872Y13461902D01*
X12340878Y13461903D01*
X12482739Y13549404D01*
X12600596Y13667261D01*
X12688097Y13809122D01*
X12714139Y13887714D01*
X12762102Y13972201D01*
X12838748Y14031904D01*
X12932407Y14057732D01*
X13028821Y14045752D01*
G37*
%TD.AperFunction*%
%TA.AperFunction,Conductor*%
G36*
X10006506Y18299159D02*
G01*
X10050594Y18296849D01*
X10321415Y18282656D01*
X10347330Y18279932D01*
X10652321Y18231625D01*
X10677810Y18226207D01*
X10976097Y18146281D01*
X11000884Y18138228D01*
X11289175Y18027564D01*
X11312973Y18016969D01*
X11588137Y17876765D01*
X11610691Y17863743D01*
X11869675Y17695557D01*
X11890761Y17680237D01*
X12130736Y17485909D01*
X12150105Y17468470D01*
X12368469Y17250106D01*
X12385908Y17230737D01*
X12580236Y16990762D01*
X12595556Y16969676D01*
X12763742Y16710692D01*
X12776768Y16688132D01*
X12833574Y16576643D01*
X12859945Y16483138D01*
X12848526Y16386656D01*
X12801054Y16301889D01*
X12724757Y16241740D01*
X12631250Y16215369D01*
X12534768Y16226788D01*
X12480994Y16251673D01*
X12340883Y16338095D01*
X12340878Y16338097D01*
X12182660Y16390525D01*
X12114938Y16397443D01*
X12085013Y16400500D01*
X12085010Y16400500D01*
X10714989Y16400500D01*
X10646751Y16393529D01*
X10617337Y16390524D01*
X10617335Y16390524D01*
X10617331Y16390523D01*
X10459126Y16338100D01*
X10459116Y16338095D01*
X10317264Y16250599D01*
X10317259Y16250595D01*
X10305716Y16239051D01*
X10224934Y16185075D01*
X10129646Y16166121D01*
X10034358Y16185075D01*
X9953576Y16239051D01*
X9942427Y16250200D01*
X9942423Y16250203D01*
X9800666Y16337640D01*
X9642558Y16390030D01*
X9544975Y16400000D01*
X9110001Y16400000D01*
X9110000Y16399999D01*
X9110000Y15275278D01*
X9033694Y15319333D01*
X8919244Y15350000D01*
X8800756Y15350000D01*
X8686306Y15319333D01*
X8610000Y15275278D01*
X8610000Y16399999D01*
X8609999Y16400000D01*
X8175030Y16400000D01*
X8077435Y16390030D01*
X8077432Y16390029D01*
X7919337Y16337642D01*
X7919335Y16337641D01*
X7777576Y16250203D01*
X7777572Y16250200D01*
X7659800Y16132428D01*
X7659797Y16132424D01*
X7572360Y15990667D01*
X7519970Y15832559D01*
X7510000Y15734976D01*
X7510000Y15150001D01*
X7510001Y15150000D01*
X8484722Y15150000D01*
X8440667Y15073694D01*
X8410000Y14959244D01*
X8410000Y14840756D01*
X8440667Y14726306D01*
X8484722Y14650000D01*
X7510002Y14650000D01*
X7510001Y14649999D01*
X7510001Y14065022D01*
X7519970Y13967436D01*
X7519971Y13967433D01*
X7572358Y13809338D01*
X7572359Y13809336D01*
X7659797Y13667577D01*
X7659800Y13667573D01*
X7777572Y13549801D01*
X7777576Y13549798D01*
X7919333Y13462361D01*
X8077441Y13409971D01*
X8175029Y13400001D01*
X8566472Y13400001D01*
X8661761Y13381047D01*
X8742542Y13327071D01*
X8796519Y13246290D01*
X8815473Y13151002D01*
X8804200Y13076927D01*
X8780914Y13002197D01*
X8780912Y13002189D01*
X8774500Y12931631D01*
X8774500Y12268370D01*
X8780912Y12197812D01*
X8780915Y12197801D01*
X8831520Y12035397D01*
X8838588Y12023706D01*
X8871665Y11932355D01*
X8874500Y11894886D01*
X8874500Y11196154D01*
X8905261Y11041508D01*
X8905263Y11041503D01*
X8965602Y10895828D01*
X8970098Y10887418D01*
X8998301Y10794447D01*
X8999500Y10770039D01*
X8999501Y9849000D01*
X8980547Y9753712D01*
X8926571Y9672931D01*
X8845789Y9618954D01*
X8812292Y9612292D01*
X8800001Y9600000D01*
X8800000Y9600000D01*
X8800000Y9599999D01*
X8800000Y8740063D01*
X8781046Y8644775D01*
X8727070Y8563993D01*
X8646288Y8510017D01*
X8607127Y8500015D01*
X8607681Y8497674D01*
X8592515Y8494091D01*
X8457670Y8443797D01*
X8342455Y8357547D01*
X8342453Y8357545D01*
X8256204Y8242331D01*
X8205908Y8107482D01*
X8199500Y8047877D01*
X8199500Y7849500D01*
X8180546Y7754212D01*
X8126570Y7673430D01*
X8045788Y7619454D01*
X7950500Y7600500D01*
X5607053Y7600500D01*
X5511765Y7619454D01*
X5430983Y7673430D01*
X5377007Y7754212D01*
X5358053Y7849500D01*
X5358053Y18050500D01*
X5377007Y18145788D01*
X5430983Y18226570D01*
X5511765Y18280546D01*
X5607053Y18299500D01*
X9952405Y18299500D01*
X9993475Y18299500D01*
X10006506Y18299159D01*
G37*
%TD.AperFunction*%
%TD*%
M02*
