%TF.GenerationSoftware,KiCad,Pcbnew,8.0.5-8.0.5-0~ubuntu22.04.1*%
%TF.CreationDate,2024-11-13T11:33:31+02:00*%
%TF.ProjectId,spindle_fan_control,7370696e-646c-4655-9f66-616e5f636f6e,rev?*%
%TF.SameCoordinates,PX7735940PY6252e60*%
%TF.FileFunction,Paste,Top*%
%TF.FilePolarity,Positive*%
%FSLAX46Y46*%
G04 Gerber Fmt 4.6, Leading zero omitted, Abs format (unit mm)*
G04 Created by KiCad (PCBNEW 8.0.5-8.0.5-0~ubuntu22.04.1) date 2024-11-13 11:33:31*
%MOMM*%
%LPD*%
G01*
G04 APERTURE LIST*
G04 Aperture macros list*
%AMRoundRect*
0 Rectangle with rounded corners*
0 $1 Rounding radius*
0 $2 $3 $4 $5 $6 $7 $8 $9 X,Y pos of 4 corners*
0 Add a 4 corners polygon primitive as box body*
4,1,4,$2,$3,$4,$5,$6,$7,$8,$9,$2,$3,0*
0 Add four circle primitives for the rounded corners*
1,1,$1+$1,$2,$3*
1,1,$1+$1,$4,$5*
1,1,$1+$1,$6,$7*
1,1,$1+$1,$8,$9*
0 Add four rect primitives between the rounded corners*
20,1,$1+$1,$2,$3,$4,$5,0*
20,1,$1+$1,$4,$5,$6,$7,0*
20,1,$1+$1,$6,$7,$8,$9,0*
20,1,$1+$1,$8,$9,$2,$3,0*%
G04 Aperture macros list end*
%ADD10RoundRect,0.200000X-0.200000X-0.275000X0.200000X-0.275000X0.200000X0.275000X-0.200000X0.275000X0*%
%ADD11RoundRect,0.218750X0.256250X-0.218750X0.256250X0.218750X-0.256250X0.218750X-0.256250X-0.218750X0*%
%ADD12RoundRect,0.200000X0.275000X-0.200000X0.275000X0.200000X-0.275000X0.200000X-0.275000X-0.200000X0*%
%ADD13RoundRect,0.150000X0.150000X-0.825000X0.150000X0.825000X-0.150000X0.825000X-0.150000X-0.825000X0*%
%ADD14RoundRect,0.200000X0.200000X0.275000X-0.200000X0.275000X-0.200000X-0.275000X0.200000X-0.275000X0*%
%ADD15RoundRect,0.225000X-0.250000X0.225000X-0.250000X-0.225000X0.250000X-0.225000X0.250000X0.225000X0*%
%ADD16R,1.200000X1.200000*%
%ADD17R,1.600000X1.500000*%
%ADD18RoundRect,0.225000X0.225000X0.250000X-0.225000X0.250000X-0.225000X-0.250000X0.225000X-0.250000X0*%
%ADD19RoundRect,0.250000X0.475000X-0.250000X0.475000X0.250000X-0.475000X0.250000X-0.475000X-0.250000X0*%
%ADD20RoundRect,0.250000X0.650000X-1.000000X0.650000X1.000000X-0.650000X1.000000X-0.650000X-1.000000X0*%
%ADD21RoundRect,0.200000X-0.275000X0.200000X-0.275000X-0.200000X0.275000X-0.200000X0.275000X0.200000X0*%
%ADD22RoundRect,0.225000X-0.375000X0.225000X-0.375000X-0.225000X0.375000X-0.225000X0.375000X0.225000X0*%
G04 APERTURE END LIST*
D10*
%TO.C,R3*%
X9675000Y12600000D03*
X11325000Y12600000D03*
%TD*%
D11*
%TO.C,D3*%
X7800000Y2312500D03*
X7800000Y3887500D03*
%TD*%
D12*
%TO.C,R1*%
X-23680000Y1990092D03*
X-23680000Y3640092D03*
%TD*%
D10*
%TO.C,R7*%
X-11605000Y4450000D03*
X-9955000Y4450000D03*
%TD*%
D13*
%TO.C,U1*%
X-24085000Y-5734908D03*
X-22815000Y-5734908D03*
X-21545000Y-5734908D03*
X-20275000Y-5734908D03*
X-20275000Y-784908D03*
X-21545000Y-784908D03*
X-22815000Y-784908D03*
X-24085000Y-784908D03*
%TD*%
D10*
%TO.C,R6*%
X-14705000Y4450000D03*
X-13055000Y4450000D03*
%TD*%
D14*
%TO.C,R4*%
X9425000Y5500000D03*
X7775000Y5500000D03*
%TD*%
D15*
%TO.C,C2*%
X-18680000Y590092D03*
X-18680000Y-959908D03*
%TD*%
D16*
%TO.C,RV1*%
X9300000Y7400000D03*
D17*
X10300000Y10650000D03*
D16*
X11300000Y7400000D03*
%TD*%
D18*
%TO.C,C4*%
X10975000Y1900000D03*
X9425000Y1900000D03*
%TD*%
D19*
%TO.C,C3*%
X-25900000Y-5350000D03*
X-25900000Y-3450000D03*
%TD*%
D14*
%TO.C,R5*%
X11025000Y3900000D03*
X9375000Y3900000D03*
%TD*%
D20*
%TO.C,D2*%
X-17300000Y-15600000D03*
X-17300000Y-11600000D03*
%TD*%
D18*
%TO.C,C1*%
X-22805000Y-7884908D03*
X-24355000Y-7884908D03*
%TD*%
D21*
%TO.C,R2*%
X-25800000Y-275000D03*
X-25800000Y-1925000D03*
%TD*%
D22*
%TO.C,D1*%
X-25600000Y4550000D03*
X-25600000Y1250000D03*
%TD*%
M02*
