%TF.GenerationSoftware,KiCad,Pcbnew,6.0.9-8da3e8f707~116~ubuntu20.04.1*%
%TF.CreationDate,2023-02-10T20:47:24+02:00*%
%TF.ProjectId,buck_regulator,6275636b-5f72-4656-9775-6c61746f722e,rev?*%
%TF.SameCoordinates,PX82a7440PY3750280*%
%TF.FileFunction,Copper,L1,Top*%
%TF.FilePolarity,Positive*%
%FSLAX46Y46*%
G04 Gerber Fmt 4.6, Leading zero omitted, Abs format (unit mm)*
G04 Created by KiCad (PCBNEW 6.0.9-8da3e8f707~116~ubuntu20.04.1) date 2023-02-10 20:47:24*
%MOMM*%
%LPD*%
G01*
G04 APERTURE LIST*
G04 Aperture macros list*
%AMRoundRect*
0 Rectangle with rounded corners*
0 $1 Rounding radius*
0 $2 $3 $4 $5 $6 $7 $8 $9 X,Y pos of 4 corners*
0 Add a 4 corners polygon primitive as box body*
4,1,4,$2,$3,$4,$5,$6,$7,$8,$9,$2,$3,0*
0 Add four circle primitives for the rounded corners*
1,1,$1+$1,$2,$3*
1,1,$1+$1,$4,$5*
1,1,$1+$1,$6,$7*
1,1,$1+$1,$8,$9*
0 Add four rect primitives between the rounded corners*
20,1,$1+$1,$2,$3,$4,$5,0*
20,1,$1+$1,$4,$5,$6,$7,0*
20,1,$1+$1,$6,$7,$8,$9,0*
20,1,$1+$1,$8,$9,$2,$3,0*%
G04 Aperture macros list end*
%ADD10C,0.300000*%
%TA.AperFunction,NonConductor*%
%ADD11C,0.300000*%
%TD*%
%TA.AperFunction,SMDPad,CuDef*%
%ADD12RoundRect,0.250000X-1.425000X0.362500X-1.425000X-0.362500X1.425000X-0.362500X1.425000X0.362500X0*%
%TD*%
%TA.AperFunction,SMDPad,CuDef*%
%ADD13R,1.680000X1.880000*%
%TD*%
%TA.AperFunction,SMDPad,CuDef*%
%ADD14RoundRect,0.075000X-0.525000X-0.075000X0.525000X-0.075000X0.525000X0.075000X-0.525000X0.075000X0*%
%TD*%
%TA.AperFunction,SMDPad,CuDef*%
%ADD15RoundRect,0.500000X-2.000000X2.500000X-2.000000X-2.500000X2.000000X-2.500000X2.000000X2.500000X0*%
%TD*%
%TA.AperFunction,SMDPad,CuDef*%
%ADD16RoundRect,0.200000X-0.550000X0.200000X-0.550000X-0.200000X0.550000X-0.200000X0.550000X0.200000X0*%
%TD*%
%TA.AperFunction,ComponentPad*%
%ADD17C,6.400000*%
%TD*%
%TA.AperFunction,SMDPad,CuDef*%
%ADD18RoundRect,0.250000X0.325000X0.650000X-0.325000X0.650000X-0.325000X-0.650000X0.325000X-0.650000X0*%
%TD*%
%TA.AperFunction,SMDPad,CuDef*%
%ADD19RoundRect,0.200000X-0.200000X-0.275000X0.200000X-0.275000X0.200000X0.275000X-0.200000X0.275000X0*%
%TD*%
%TA.AperFunction,SMDPad,CuDef*%
%ADD20RoundRect,0.200000X-0.275000X0.200000X-0.275000X-0.200000X0.275000X-0.200000X0.275000X0.200000X0*%
%TD*%
%TA.AperFunction,SMDPad,CuDef*%
%ADD21RoundRect,0.200000X0.275000X-0.200000X0.275000X0.200000X-0.275000X0.200000X-0.275000X-0.200000X0*%
%TD*%
%TA.AperFunction,SMDPad,CuDef*%
%ADD22R,5.000000X2.500000*%
%TD*%
%TA.AperFunction,ComponentPad*%
%ADD23C,2.600000*%
%TD*%
%TA.AperFunction,ComponentPad*%
%ADD24R,2.600000X2.600000*%
%TD*%
%TA.AperFunction,SMDPad,CuDef*%
%ADD25R,2.500000X1.800000*%
%TD*%
%TA.AperFunction,SMDPad,CuDef*%
%ADD26R,1.800000X2.500000*%
%TD*%
%TA.AperFunction,SMDPad,CuDef*%
%ADD27R,3.300000X2.500000*%
%TD*%
%TA.AperFunction,SMDPad,CuDef*%
%ADD28RoundRect,0.225000X-0.250000X0.225000X-0.250000X-0.225000X0.250000X-0.225000X0.250000X0.225000X0*%
%TD*%
%TA.AperFunction,ComponentPad*%
%ADD29R,2.000000X2.000000*%
%TD*%
%TA.AperFunction,ComponentPad*%
%ADD30C,2.000000*%
%TD*%
%TA.AperFunction,SMDPad,CuDef*%
%ADD31RoundRect,0.250000X-0.325000X-0.650000X0.325000X-0.650000X0.325000X0.650000X-0.325000X0.650000X0*%
%TD*%
%TA.AperFunction,SMDPad,CuDef*%
%ADD32RoundRect,0.250000X-0.325000X-1.100000X0.325000X-1.100000X0.325000X1.100000X-0.325000X1.100000X0*%
%TD*%
%TA.AperFunction,SMDPad,CuDef*%
%ADD33RoundRect,0.225000X0.225000X0.250000X-0.225000X0.250000X-0.225000X-0.250000X0.225000X-0.250000X0*%
%TD*%
%TA.AperFunction,SMDPad,CuDef*%
%ADD34RoundRect,0.225000X-0.225000X-0.250000X0.225000X-0.250000X0.225000X0.250000X-0.225000X0.250000X0*%
%TD*%
%TA.AperFunction,SMDPad,CuDef*%
%ADD35RoundRect,0.225000X0.250000X-0.225000X0.250000X0.225000X-0.250000X0.225000X-0.250000X-0.225000X0*%
%TD*%
%TA.AperFunction,ViaPad*%
%ADD36C,1.500000*%
%TD*%
%TA.AperFunction,Conductor*%
%ADD37C,0.500000*%
%TD*%
%TA.AperFunction,Conductor*%
%ADD38C,0.800000*%
%TD*%
%TA.AperFunction,Conductor*%
%ADD39C,1.000000*%
%TD*%
%TA.AperFunction,Conductor*%
%ADD40C,0.300000*%
%TD*%
G04 APERTURE END LIST*
D10*
D11*
X24023809Y-2904761D02*
X24023809Y-904761D01*
X24500000Y-904761D01*
X24785714Y-1000000D01*
X24976190Y-1190476D01*
X25071428Y-1380952D01*
X25166666Y-1761904D01*
X25166666Y-2047619D01*
X25071428Y-2428571D01*
X24976190Y-2619047D01*
X24785714Y-2809523D01*
X24500000Y-2904761D01*
X24023809Y-2904761D01*
X27166666Y-2714285D02*
X27071428Y-2809523D01*
X26785714Y-2904761D01*
X26595238Y-2904761D01*
X26309523Y-2809523D01*
X26119047Y-2619047D01*
X26023809Y-2428571D01*
X25928571Y-2047619D01*
X25928571Y-1761904D01*
X26023809Y-1380952D01*
X26119047Y-1190476D01*
X26309523Y-1000000D01*
X26595238Y-904761D01*
X26785714Y-904761D01*
X27071428Y-1000000D01*
X27166666Y-1095238D01*
X28023809Y-2904761D02*
X28023809Y-904761D01*
X28500000Y-904761D01*
X28785714Y-1000000D01*
X28976190Y-1190476D01*
X29071428Y-1380952D01*
X29166666Y-1761904D01*
X29166666Y-2047619D01*
X29071428Y-2428571D01*
X28976190Y-2619047D01*
X28785714Y-2809523D01*
X28500000Y-2904761D01*
X28023809Y-2904761D01*
X31166666Y-2714285D02*
X31071428Y-2809523D01*
X30785714Y-2904761D01*
X30595238Y-2904761D01*
X30309523Y-2809523D01*
X30119047Y-2619047D01*
X30023809Y-2428571D01*
X29928571Y-2047619D01*
X29928571Y-1761904D01*
X30023809Y-1380952D01*
X30119047Y-1190476D01*
X30309523Y-1000000D01*
X30595238Y-904761D01*
X30785714Y-904761D01*
X31071428Y-1000000D01*
X31166666Y-1095238D01*
X34119047Y-904761D02*
X34119047Y-2333333D01*
X34023809Y-2619047D01*
X33833333Y-2809523D01*
X33547619Y-2904761D01*
X33357142Y-2904761D01*
X35071428Y-2904761D02*
X35071428Y-904761D01*
X35833333Y-904761D01*
X36023809Y-1000000D01*
X36119047Y-1095238D01*
X36214285Y-1285714D01*
X36214285Y-1571428D01*
X36119047Y-1761904D01*
X36023809Y-1857142D01*
X35833333Y-1952380D01*
X35071428Y-1952380D01*
X36976190Y-2333333D02*
X37928571Y-2333333D01*
X36785714Y-2904761D02*
X37452380Y-904761D01*
X38119047Y-2904761D01*
X40214285Y-1095238D02*
X40309523Y-1000000D01*
X40500000Y-904761D01*
X40976190Y-904761D01*
X41166666Y-1000000D01*
X41261904Y-1095238D01*
X41357142Y-1285714D01*
X41357142Y-1476190D01*
X41261904Y-1761904D01*
X40119047Y-2904761D01*
X41357142Y-2904761D01*
X42595238Y-904761D02*
X42785714Y-904761D01*
X42976190Y-1000000D01*
X43071428Y-1095238D01*
X43166666Y-1285714D01*
X43261904Y-1666666D01*
X43261904Y-2142857D01*
X43166666Y-2523809D01*
X43071428Y-2714285D01*
X42976190Y-2809523D01*
X42785714Y-2904761D01*
X42595238Y-2904761D01*
X42404761Y-2809523D01*
X42309523Y-2714285D01*
X42214285Y-2523809D01*
X42119047Y-2142857D01*
X42119047Y-1666666D01*
X42214285Y-1285714D01*
X42309523Y-1095238D01*
X42404761Y-1000000D01*
X42595238Y-904761D01*
X44023809Y-1095238D02*
X44119047Y-1000000D01*
X44309523Y-904761D01*
X44785714Y-904761D01*
X44976190Y-1000000D01*
X45071428Y-1095238D01*
X45166666Y-1285714D01*
X45166666Y-1476190D01*
X45071428Y-1761904D01*
X43928571Y-2904761D01*
X45166666Y-2904761D01*
X45833333Y-904761D02*
X47071428Y-904761D01*
X46404761Y-1666666D01*
X46690476Y-1666666D01*
X46880952Y-1761904D01*
X46976190Y-1857142D01*
X47071428Y-2047619D01*
X47071428Y-2523809D01*
X46976190Y-2714285D01*
X46880952Y-2809523D01*
X46690476Y-2904761D01*
X46119047Y-2904761D01*
X45928571Y-2809523D01*
X45833333Y-2714285D01*
D12*
%TO.P,R5,1*%
%TO.N,+48V*%
X18500000Y-17137500D03*
%TO.P,R5,2*%
%TO.N,Net-(Q1-Pad3)*%
X18500000Y-23062500D03*
%TD*%
D13*
%TO.P,U1,11,EP*%
%TO.N,GND*%
X13300000Y-26900000D03*
D14*
%TO.P,U1,10,CAP*%
%TO.N,Net-(C2-Pad2)*%
X15450000Y-25900000D03*
%TO.P,U1,9,GATE*%
%TO.N,Net-(Q1-Pad2)*%
X15450000Y-26400000D03*
%TO.P,U1,8,VCC*%
%TO.N,+48V*%
X15450000Y-26900000D03*
%TO.P,U1,7,SENSE*%
%TO.N,Net-(Q1-Pad3)*%
X15450000Y-27400000D03*
%TO.P,U1,6,SS*%
%TO.N,Net-(C3-Pad1)*%
X15450000Y-27900000D03*
%TO.P,U1,5,VFB*%
%TO.N,Net-(C9-Pad2)*%
X11150000Y-27900000D03*
%TO.P,U1,4,VC*%
%TO.N,Net-(R3-Pad2)*%
X11150000Y-27400000D03*
%TO.P,U1,3,RSET*%
%TO.N,Net-(R2-Pad1)*%
X11150000Y-26900000D03*
%TO.P,U1,2,SYNC/MODE*%
%TO.N,Net-(R1-Pad1)*%
X11150000Y-26400000D03*
%TO.P,U1,1,GND*%
%TO.N,GND*%
X11150000Y-25900000D03*
%TD*%
D15*
%TO.P,Q1,1,D*%
%TO.N,Net-(D1-Pad1)*%
X22400000Y-27600000D03*
D16*
%TO.P,Q1,2,G*%
%TO.N,Net-(Q1-Pad2)*%
X18300000Y-26950000D03*
%TO.P,Q1,3,S*%
%TO.N,Net-(Q1-Pad3)*%
X18300000Y-29500000D03*
X18300000Y-25700000D03*
X18300000Y-28250000D03*
%TD*%
D17*
%TO.P,H2,1,1*%
%TO.N,GND*%
X4100000Y-27200000D03*
%TD*%
%TO.P,H1,1,1*%
%TO.N,GND*%
X43000000Y-14000000D03*
%TD*%
D18*
%TO.P,C10,1*%
%TO.N,+12V*%
X24775000Y-19400000D03*
%TO.P,C10,2*%
%TO.N,GND*%
X21825000Y-19400000D03*
%TD*%
D19*
%TO.P,R8,2*%
%TO.N,Net-(C9-Pad1)*%
X32625000Y-7900000D03*
%TO.P,R8,1*%
%TO.N,+12V*%
X30975000Y-7900000D03*
%TD*%
%TO.P,R7,2*%
%TO.N,GND*%
X10825000Y-29500000D03*
%TO.P,R7,1*%
%TO.N,Net-(C9-Pad2)*%
X9175000Y-29500000D03*
%TD*%
%TO.P,R6,1*%
%TO.N,+12V*%
X30975000Y-9500000D03*
%TO.P,R6,2*%
%TO.N,Net-(C9-Pad2)*%
X32625000Y-9500000D03*
%TD*%
D20*
%TO.P,R3,1*%
%TO.N,Net-(C1-Pad1)*%
X8500000Y-25775000D03*
%TO.P,R3,2*%
%TO.N,Net-(R3-Pad2)*%
X8500000Y-27425000D03*
%TD*%
D21*
%TO.P,R2,2*%
%TO.N,GND*%
X8900000Y-22475000D03*
%TO.P,R2,1*%
%TO.N,Net-(R2-Pad1)*%
X8900000Y-24125000D03*
%TD*%
%TO.P,R1,1*%
%TO.N,Net-(R1-Pad1)*%
X10400000Y-24125000D03*
%TO.P,R1,2*%
%TO.N,GND*%
X10400000Y-22475000D03*
%TD*%
D22*
%TO.P,L1,2,2*%
%TO.N,+12V*%
X32800000Y-16650000D03*
%TO.P,L1,1,1*%
%TO.N,Net-(D1-Pad1)*%
X32800000Y-29150000D03*
%TD*%
D23*
%TO.P,J3,4,Pin_4*%
%TO.N,GND*%
X5700000Y-4800000D03*
%TO.P,J3,3,Pin_3*%
X10700000Y-4800000D03*
%TO.P,J3,2,Pin_2*%
X15700000Y-4800000D03*
D24*
%TO.P,J3,1,Pin_1*%
X20700000Y-4800000D03*
%TD*%
D23*
%TO.P,J2,4,Pin_4*%
%TO.N,+12V*%
X29200000Y-4800000D03*
%TO.P,J2,3,Pin_3*%
X34200000Y-4800000D03*
%TO.P,J2,2,Pin_2*%
X39200000Y-4800000D03*
D24*
%TO.P,J2,1,Pin_1*%
X44200000Y-4800000D03*
%TD*%
%TO.P,J1,1,Pin_1*%
%TO.N,+48V*%
X5200000Y-13400000D03*
D23*
%TO.P,J1,2,Pin_2*%
%TO.N,GND*%
X5200000Y-18400000D03*
%TD*%
D25*
%TO.P,D3,1,K*%
%TO.N,+12V*%
X26700000Y-8400000D03*
%TO.P,D3,2,A*%
%TO.N,GND*%
X22700000Y-8400000D03*
%TD*%
D26*
%TO.P,D2,1,K*%
%TO.N,+48V*%
X13400000Y-17700000D03*
%TO.P,D2,2,A*%
%TO.N,GND*%
X13400000Y-21700000D03*
%TD*%
D27*
%TO.P,D1,2,A*%
%TO.N,GND*%
X43200000Y-22400000D03*
%TO.P,D1,1,K*%
%TO.N,Net-(D1-Pad1)*%
X43200000Y-29200000D03*
%TD*%
D28*
%TO.P,C9,1*%
%TO.N,Net-(C9-Pad1)*%
X34100000Y-7925000D03*
%TO.P,C9,2*%
%TO.N,Net-(C9-Pad2)*%
X34100000Y-9475000D03*
%TD*%
D29*
%TO.P,C8,1*%
%TO.N,+12V*%
X31432323Y-11700000D03*
D30*
%TO.P,C8,2*%
%TO.N,GND*%
X36432323Y-11700000D03*
%TD*%
%TO.P,C7,2*%
%TO.N,GND*%
X17100000Y-11700000D03*
D29*
%TO.P,C7,1*%
%TO.N,+48V*%
X12100000Y-11700000D03*
%TD*%
D31*
%TO.P,C6,2*%
%TO.N,GND*%
X43675000Y-19000000D03*
%TO.P,C6,1*%
%TO.N,+12V*%
X40725000Y-19000000D03*
%TD*%
D32*
%TO.P,C5,2*%
%TO.N,GND*%
X24800000Y-16500000D03*
%TO.P,C5,1*%
%TO.N,+48V*%
X21850000Y-16500000D03*
%TD*%
%TO.P,C4,1*%
%TO.N,+48V*%
X21825000Y-22300000D03*
%TO.P,C4,2*%
%TO.N,GND*%
X24775000Y-22300000D03*
%TD*%
D33*
%TO.P,C3,1*%
%TO.N,Net-(C3-Pad1)*%
X15775000Y-29500000D03*
%TO.P,C3,2*%
%TO.N,GND*%
X14225000Y-29500000D03*
%TD*%
D34*
%TO.P,C2,2*%
%TO.N,Net-(C2-Pad2)*%
X15775000Y-24300000D03*
%TO.P,C2,1*%
%TO.N,+48V*%
X14225000Y-24300000D03*
%TD*%
D35*
%TO.P,C1,2*%
%TO.N,GND*%
X7400000Y-22525000D03*
%TO.P,C1,1*%
%TO.N,Net-(C1-Pad1)*%
X7400000Y-24075000D03*
%TD*%
D36*
%TO.N,GND*%
X3500000Y-21500000D03*
X23300000Y-11700000D03*
X45500000Y-19000000D03*
%TD*%
D37*
%TO.N,+12V*%
X26700000Y-8400000D02*
X26700000Y-5300000D01*
X26700000Y-5300000D02*
X27200000Y-4800000D01*
X27200000Y-4800000D02*
X44200000Y-4800000D01*
D38*
%TO.N,GND*%
X22700000Y-8400000D02*
X22700000Y-4800000D01*
X22700000Y-4800000D02*
X20700000Y-4800000D01*
X17100000Y-11700000D02*
X18400000Y-13000000D01*
X22000000Y-13000000D02*
X23300000Y-11700000D01*
X18400000Y-13000000D02*
X22000000Y-13000000D01*
D39*
%TO.N,Net-(Q1-Pad3)*%
X18300000Y-25500000D02*
X18300000Y-23262500D01*
D37*
%TO.N,Net-(C9-Pad2)*%
X34100000Y-9475000D02*
X34575000Y-9000000D01*
X34575000Y-9000000D02*
X45000000Y-9000000D01*
X45000000Y-9000000D02*
X46800000Y-10800000D01*
X46800000Y-10800000D02*
X46800000Y-30000000D01*
X10300000Y-31300000D02*
X9175000Y-30175000D01*
X46800000Y-30000000D02*
X45500000Y-31300000D01*
X45500000Y-31300000D02*
X10300000Y-31300000D01*
X9175000Y-30175000D02*
X9175000Y-29500000D01*
D38*
%TO.N,GND*%
X36432323Y-11700000D02*
X38232323Y-13500000D01*
X38232323Y-13500000D02*
X42500000Y-13500000D01*
X42500000Y-13500000D02*
X43000000Y-14000000D01*
X5200000Y-18400000D02*
X3500000Y-20100000D01*
X3500000Y-20100000D02*
X3500000Y-26600000D01*
X3500000Y-26600000D02*
X4100000Y-27200000D01*
D37*
X43675000Y-19000000D02*
X45500000Y-19000000D01*
D40*
%TO.N,Net-(C9-Pad2)*%
X9175000Y-29500000D02*
X9175000Y-28325000D01*
X9175000Y-28325000D02*
X9600000Y-27900000D01*
X9600000Y-27900000D02*
X11200000Y-27900000D01*
%TO.N,GND*%
X13500000Y-29500000D02*
X10825000Y-29500000D01*
D38*
X24775000Y-22300000D02*
X23800000Y-22300000D01*
X23800000Y-22300000D02*
X23300000Y-21800000D01*
X23300000Y-21800000D02*
X23300000Y-19400000D01*
%TO.N,+48V*%
X21825000Y-22300000D02*
X21300000Y-22300000D01*
X21300000Y-22300000D02*
X20500000Y-21500000D01*
X20500000Y-21500000D02*
X20500000Y-16600000D01*
X20500000Y-16600000D02*
X20600000Y-16500000D01*
X20600000Y-16500000D02*
X21850000Y-16500000D01*
D37*
X14225000Y-24300000D02*
X14225000Y-24275000D01*
X15500000Y-23000000D02*
X15500000Y-16500000D01*
X14225000Y-24275000D02*
X15500000Y-23000000D01*
%TO.N,Net-(C1-Pad1)*%
X7400000Y-24075000D02*
X7400000Y-24675000D01*
X7400000Y-24675000D02*
X8500000Y-25775000D01*
D38*
%TO.N,GND*%
X23300000Y-17000000D02*
X23300000Y-11700000D01*
X23300000Y-11700000D02*
X23300000Y-9000000D01*
D37*
%TO.N,+12V*%
X30975000Y-7900000D02*
X30975000Y-11242677D01*
X30975000Y-11242677D02*
X31432323Y-11700000D01*
D38*
X26700000Y-19300000D02*
X26700000Y-12000000D01*
X26700000Y-12000000D02*
X26700000Y-8400000D01*
X31432323Y-11700000D02*
X27000000Y-11700000D01*
X27000000Y-11700000D02*
X26700000Y-12000000D01*
%TO.N,GND*%
X24775000Y-22300000D02*
X24875000Y-22400000D01*
X24875000Y-22400000D02*
X43200000Y-22400000D01*
%TO.N,+12V*%
X26800000Y-19400000D02*
X32500000Y-19400000D01*
X24775000Y-19400000D02*
X26800000Y-19400000D01*
X26800000Y-19400000D02*
X26700000Y-19300000D01*
D37*
%TO.N,Net-(C9-Pad1)*%
X32625000Y-7900000D02*
X34075000Y-7900000D01*
X34075000Y-7900000D02*
X34100000Y-7925000D01*
%TO.N,Net-(C9-Pad2)*%
X32625000Y-9500000D02*
X34075000Y-9500000D01*
X34075000Y-9500000D02*
X34100000Y-9475000D01*
D38*
%TO.N,GND*%
X43675000Y-19000000D02*
X43675000Y-14025000D01*
X43675000Y-14025000D02*
X43700000Y-14000000D01*
X43675000Y-19000000D02*
X43675000Y-21925000D01*
X43675000Y-21925000D02*
X43200000Y-22400000D01*
X23300000Y-17000000D02*
X23300000Y-19400000D01*
X23300000Y-16500000D02*
X23300000Y-17000000D01*
X23300000Y-9000000D02*
X22700000Y-8400000D01*
X24800000Y-16500000D02*
X23300000Y-16500000D01*
D37*
X13300000Y-26900000D02*
X13300000Y-21800000D01*
X13300000Y-21800000D02*
X13400000Y-21700000D01*
X10400000Y-22475000D02*
X7450000Y-22475000D01*
X7450000Y-22475000D02*
X7400000Y-22525000D01*
D38*
%TO.N,Net-(D1-Pad1)*%
X43200000Y-29200000D02*
X24000000Y-29200000D01*
X24000000Y-29200000D02*
X22400000Y-27600000D01*
%TO.N,+12V*%
X32500000Y-19400000D02*
X40525000Y-19400000D01*
X32500000Y-19400000D02*
X32800000Y-19100000D01*
X32800000Y-19100000D02*
X32800000Y-16650000D01*
X40525000Y-19400000D02*
X40725000Y-19600000D01*
%TO.N,GND*%
X21825000Y-19400000D02*
X23300000Y-19400000D01*
%TO.N,Net-(Q1-Pad3)*%
X18300000Y-23262500D02*
X18500000Y-23062500D01*
D40*
%TO.N,GND*%
X14225000Y-29500000D02*
X13500000Y-29500000D01*
X13500000Y-29500000D02*
X13300000Y-29300000D01*
X13300000Y-29300000D02*
X13300000Y-26900000D01*
X11150000Y-25900000D02*
X13300000Y-25900000D01*
X13300000Y-25900000D02*
X13300000Y-26900000D01*
%TO.N,Net-(R1-Pad1)*%
X11150000Y-26400000D02*
X10300000Y-26400000D01*
X10300000Y-26400000D02*
X10000000Y-26100000D01*
X10000000Y-26100000D02*
X10000000Y-24525000D01*
X10000000Y-24525000D02*
X10400000Y-24125000D01*
%TO.N,Net-(R2-Pad1)*%
X11150000Y-26900000D02*
X9800000Y-26900000D01*
X9800000Y-26900000D02*
X9500000Y-26600000D01*
X9500000Y-26600000D02*
X9500000Y-24725000D01*
X9500000Y-24725000D02*
X8900000Y-24125000D01*
%TO.N,Net-(R3-Pad2)*%
X11150000Y-27400000D02*
X8700000Y-27400000D01*
X8700000Y-27400000D02*
X8600000Y-27500000D01*
%TO.N,Net-(C3-Pad1)*%
X15775000Y-29500000D02*
X15775000Y-27925000D01*
X15775000Y-27925000D02*
X15800000Y-27900000D01*
%TO.N,Net-(C2-Pad2)*%
X15775000Y-24300000D02*
X15775000Y-25875000D01*
X15775000Y-25875000D02*
X15800000Y-25900000D01*
%TO.N,+48V*%
X15450000Y-26900000D02*
X14600000Y-26900000D01*
X14600000Y-26900000D02*
X14500000Y-26800000D01*
X14500000Y-26800000D02*
X14500000Y-24575000D01*
X14500000Y-24575000D02*
X14225000Y-24300000D01*
%TO.N,Net-(Q1-Pad2)*%
X16800000Y-26400000D02*
X17300000Y-26900000D01*
X15450000Y-26400000D02*
X16800000Y-26400000D01*
X17300000Y-26900000D02*
X18250000Y-26900000D01*
X18250000Y-26900000D02*
X18300000Y-26950000D01*
%TO.N,Net-(Q1-Pad3)*%
X16500000Y-27400000D02*
X17300000Y-28200000D01*
X18250000Y-28200000D02*
X18300000Y-28250000D01*
X15450000Y-27400000D02*
X16500000Y-27400000D01*
X17300000Y-28200000D02*
X18250000Y-28200000D01*
X19500000Y-29500000D02*
X19500000Y-28100000D01*
X19500000Y-28100000D02*
X19500000Y-25700000D01*
X18300000Y-28250000D02*
X19350000Y-28250000D01*
X19350000Y-28250000D02*
X19500000Y-28100000D01*
X18300000Y-29500000D02*
X19500000Y-29500000D01*
X19500000Y-25700000D02*
X18300000Y-25700000D01*
%TD*%
%TA.AperFunction,Conductor*%
%TO.N,+12V*%
G36*
X27497641Y-4155462D02*
G01*
X27552179Y-4210000D01*
X27572141Y-4284500D01*
X27567556Y-4321177D01*
X27522493Y-4498611D01*
X27520578Y-4509471D01*
X27496371Y-4749868D01*
X27496083Y-4760902D01*
X27507674Y-5002229D01*
X27509020Y-5013186D01*
X27556156Y-5250156D01*
X27559105Y-5260786D01*
X27640750Y-5488189D01*
X27645233Y-5498257D01*
X27759599Y-5711104D01*
X27765521Y-5720399D01*
X27822410Y-5796582D01*
X27834988Y-5806498D01*
X27843242Y-5803205D01*
X29094641Y-4551806D01*
X29161436Y-4513242D01*
X29238564Y-4513242D01*
X29305359Y-4551806D01*
X30554670Y-5801117D01*
X30568541Y-5809125D01*
X30574540Y-5805662D01*
X30695185Y-5618098D01*
X30700452Y-5608397D01*
X30799685Y-5388110D01*
X30803458Y-5377743D01*
X30869044Y-5145191D01*
X30871240Y-5134399D01*
X30901960Y-4892925D01*
X30902529Y-4885486D01*
X30904669Y-4803738D01*
X30904490Y-4796267D01*
X30886452Y-4553541D01*
X30884820Y-4542621D01*
X30833854Y-4317384D01*
X30836882Y-4240316D01*
X30878038Y-4175086D01*
X30946296Y-4139174D01*
X30979180Y-4135500D01*
X32423141Y-4135500D01*
X32497641Y-4155462D01*
X32552179Y-4210000D01*
X32572141Y-4284500D01*
X32567556Y-4321177D01*
X32522493Y-4498611D01*
X32520578Y-4509471D01*
X32496371Y-4749868D01*
X32496083Y-4760902D01*
X32507674Y-5002229D01*
X32509020Y-5013186D01*
X32556156Y-5250156D01*
X32559105Y-5260786D01*
X32640750Y-5488189D01*
X32645233Y-5498257D01*
X32759599Y-5711104D01*
X32765521Y-5720399D01*
X32822410Y-5796582D01*
X32834988Y-5806498D01*
X32843242Y-5803205D01*
X34094641Y-4551806D01*
X34161436Y-4513242D01*
X34238564Y-4513242D01*
X34305359Y-4551806D01*
X35554670Y-5801117D01*
X35568541Y-5809125D01*
X35574540Y-5805662D01*
X35695185Y-5618098D01*
X35700452Y-5608397D01*
X35799685Y-5388110D01*
X35803458Y-5377743D01*
X35869044Y-5145191D01*
X35871240Y-5134399D01*
X35901960Y-4892925D01*
X35902529Y-4885486D01*
X35904669Y-4803738D01*
X35904490Y-4796267D01*
X35886452Y-4553541D01*
X35884820Y-4542621D01*
X35833854Y-4317384D01*
X35836882Y-4240316D01*
X35878038Y-4175086D01*
X35946296Y-4139174D01*
X35979180Y-4135500D01*
X37423141Y-4135500D01*
X37497641Y-4155462D01*
X37552179Y-4210000D01*
X37572141Y-4284500D01*
X37567556Y-4321177D01*
X37522493Y-4498611D01*
X37520578Y-4509471D01*
X37496371Y-4749868D01*
X37496083Y-4760902D01*
X37507674Y-5002229D01*
X37509020Y-5013186D01*
X37556156Y-5250156D01*
X37559105Y-5260786D01*
X37640750Y-5488189D01*
X37645233Y-5498257D01*
X37759599Y-5711104D01*
X37765521Y-5720399D01*
X37822410Y-5796582D01*
X37834988Y-5806498D01*
X37843242Y-5803205D01*
X39094641Y-4551806D01*
X39161436Y-4513242D01*
X39238564Y-4513242D01*
X39305359Y-4551806D01*
X40554670Y-5801117D01*
X40568541Y-5809125D01*
X40574540Y-5805662D01*
X40695185Y-5618098D01*
X40700452Y-5608397D01*
X40799685Y-5388110D01*
X40803458Y-5377743D01*
X40869044Y-5145191D01*
X40871240Y-5134399D01*
X40901960Y-4892925D01*
X40902529Y-4885486D01*
X40904669Y-4803738D01*
X40904490Y-4796267D01*
X40886452Y-4553541D01*
X40884820Y-4542621D01*
X40833854Y-4317384D01*
X40836882Y-4240316D01*
X40878038Y-4175086D01*
X40946296Y-4139174D01*
X40979180Y-4135500D01*
X42351000Y-4135500D01*
X42425500Y-4155462D01*
X42480038Y-4210000D01*
X42500000Y-4284500D01*
X42500000Y-4530384D01*
X42504145Y-4545855D01*
X42519616Y-4550000D01*
X45880383Y-4550000D01*
X45895854Y-4545855D01*
X45899999Y-4530384D01*
X45899999Y-4284500D01*
X45919961Y-4210000D01*
X45974499Y-4155462D01*
X46048999Y-4135500D01*
X46851000Y-4135500D01*
X46925500Y-4155462D01*
X46980038Y-4210000D01*
X47000000Y-4284500D01*
X47000000Y-6851000D01*
X46980038Y-6925500D01*
X46925500Y-6980038D01*
X46851000Y-7000000D01*
X30000000Y-7000000D01*
X30000000Y-10500000D01*
X30005256Y-10500000D01*
X30006861Y-10505990D01*
X30036807Y-10557858D01*
X30040050Y-10619730D01*
X30033239Y-10662738D01*
X30032323Y-10674374D01*
X30032323Y-11430384D01*
X30036468Y-11445855D01*
X30051939Y-11450000D01*
X32812706Y-11450000D01*
X32828177Y-11445855D01*
X32832322Y-11430384D01*
X32832322Y-10674375D01*
X32831245Y-10660688D01*
X32845302Y-10584852D01*
X32895393Y-10526204D01*
X32968098Y-10500459D01*
X32979786Y-10500000D01*
X33351000Y-10500000D01*
X33425500Y-10519962D01*
X33480038Y-10574500D01*
X33500000Y-10649000D01*
X33500000Y-12500000D01*
X36000000Y-15000000D01*
X39351000Y-15000000D01*
X39425500Y-15019962D01*
X39480038Y-15074500D01*
X39500000Y-15149000D01*
X39500000Y-20851000D01*
X39480038Y-20925500D01*
X39425500Y-20980038D01*
X39351000Y-21000000D01*
X26149000Y-21000000D01*
X26074500Y-20980038D01*
X26019962Y-20925500D01*
X26000000Y-20851000D01*
X26000000Y-17925624D01*
X29900001Y-17925624D01*
X29900917Y-17937264D01*
X29913001Y-18013565D01*
X29920159Y-18035597D01*
X29967037Y-18127600D01*
X29980648Y-18146334D01*
X30053666Y-18219352D01*
X30072400Y-18232963D01*
X30164406Y-18279842D01*
X30186431Y-18286999D01*
X30262739Y-18299084D01*
X30274374Y-18300000D01*
X32530384Y-18300000D01*
X32545855Y-18295855D01*
X32550000Y-18280384D01*
X32550000Y-18280383D01*
X33050000Y-18280383D01*
X33054145Y-18295854D01*
X33069616Y-18299999D01*
X35325624Y-18299999D01*
X35337264Y-18299083D01*
X35413565Y-18286999D01*
X35435597Y-18279841D01*
X35527600Y-18232963D01*
X35546334Y-18219352D01*
X35619352Y-18146334D01*
X35632963Y-18127600D01*
X35679842Y-18035594D01*
X35686999Y-18013569D01*
X35699084Y-17937261D01*
X35700000Y-17925626D01*
X35700000Y-16919616D01*
X35695855Y-16904145D01*
X35680384Y-16900000D01*
X33069616Y-16900000D01*
X33054145Y-16904145D01*
X33050000Y-16919616D01*
X33050000Y-18280383D01*
X32550000Y-18280383D01*
X32550000Y-16919616D01*
X32545855Y-16904145D01*
X32530384Y-16900000D01*
X29919617Y-16900000D01*
X29904146Y-16904145D01*
X29900001Y-16919616D01*
X29900001Y-17925624D01*
X26000000Y-17925624D01*
X26000000Y-16380384D01*
X29900000Y-16380384D01*
X29904145Y-16395855D01*
X29919616Y-16400000D01*
X32530384Y-16400000D01*
X32545855Y-16395855D01*
X32550000Y-16380384D01*
X33050000Y-16380384D01*
X33054145Y-16395855D01*
X33069616Y-16400000D01*
X35680383Y-16400000D01*
X35695854Y-16395855D01*
X35699999Y-16380384D01*
X35699999Y-15374376D01*
X35699083Y-15362736D01*
X35686999Y-15286435D01*
X35679841Y-15264403D01*
X35632963Y-15172400D01*
X35619352Y-15153666D01*
X35546334Y-15080648D01*
X35527600Y-15067037D01*
X35435594Y-15020158D01*
X35413569Y-15013001D01*
X35337261Y-15000916D01*
X35325626Y-15000000D01*
X33069616Y-15000000D01*
X33054145Y-15004145D01*
X33050000Y-15019616D01*
X33050000Y-16380384D01*
X32550000Y-16380384D01*
X32550000Y-15019617D01*
X32545855Y-15004146D01*
X32530384Y-15000001D01*
X30274376Y-15000001D01*
X30262736Y-15000917D01*
X30186435Y-15013001D01*
X30164403Y-15020159D01*
X30072400Y-15067037D01*
X30053666Y-15080648D01*
X29980648Y-15153666D01*
X29967037Y-15172400D01*
X29920158Y-15264406D01*
X29913001Y-15286431D01*
X29900916Y-15362739D01*
X29900000Y-15374374D01*
X29900000Y-16380384D01*
X26000000Y-16380384D01*
X26000000Y-12725624D01*
X30032324Y-12725624D01*
X30033240Y-12737264D01*
X30045324Y-12813565D01*
X30052482Y-12835597D01*
X30099360Y-12927600D01*
X30112971Y-12946334D01*
X30185989Y-13019352D01*
X30204723Y-13032963D01*
X30296729Y-13079842D01*
X30318754Y-13086999D01*
X30395062Y-13099084D01*
X30406697Y-13100000D01*
X31162707Y-13100000D01*
X31178178Y-13095855D01*
X31182323Y-13080384D01*
X31182323Y-13080383D01*
X31682323Y-13080383D01*
X31686468Y-13095854D01*
X31701939Y-13099999D01*
X32457947Y-13099999D01*
X32469587Y-13099083D01*
X32545888Y-13086999D01*
X32567920Y-13079841D01*
X32659923Y-13032963D01*
X32678657Y-13019352D01*
X32751675Y-12946334D01*
X32765286Y-12927600D01*
X32812165Y-12835594D01*
X32819322Y-12813569D01*
X32831407Y-12737261D01*
X32832323Y-12725626D01*
X32832323Y-11969616D01*
X32828178Y-11954145D01*
X32812707Y-11950000D01*
X31701939Y-11950000D01*
X31686468Y-11954145D01*
X31682323Y-11969616D01*
X31682323Y-13080383D01*
X31182323Y-13080383D01*
X31182323Y-11969616D01*
X31178178Y-11954145D01*
X31162707Y-11950000D01*
X30051940Y-11950000D01*
X30036469Y-11954145D01*
X30032324Y-11969616D01*
X30032324Y-12725624D01*
X26000000Y-12725624D01*
X26000000Y-9849000D01*
X26019962Y-9774500D01*
X26074500Y-9719962D01*
X26149000Y-9700000D01*
X26430384Y-9700000D01*
X26445855Y-9695855D01*
X26450000Y-9680384D01*
X26950000Y-9680384D01*
X26954145Y-9695855D01*
X26969616Y-9700000D01*
X27975624Y-9699999D01*
X27987264Y-9699083D01*
X28063565Y-9686999D01*
X28085597Y-9679841D01*
X28177600Y-9632963D01*
X28196334Y-9619352D01*
X28269352Y-9546334D01*
X28282963Y-9527600D01*
X28329842Y-9435594D01*
X28336999Y-9413569D01*
X28349084Y-9337261D01*
X28350000Y-9325626D01*
X28350000Y-8669616D01*
X28345855Y-8654145D01*
X28330384Y-8650000D01*
X26969616Y-8650000D01*
X26954145Y-8654145D01*
X26950000Y-8669616D01*
X26950000Y-9680384D01*
X26450000Y-9680384D01*
X26450000Y-8130384D01*
X26950000Y-8130384D01*
X26954145Y-8145855D01*
X26969616Y-8150000D01*
X28330383Y-8150000D01*
X28345854Y-8145855D01*
X28349999Y-8130384D01*
X28349999Y-7474376D01*
X28349083Y-7462736D01*
X28336999Y-7386435D01*
X28329841Y-7364403D01*
X28282963Y-7272400D01*
X28269352Y-7253666D01*
X28196334Y-7180648D01*
X28177600Y-7167037D01*
X28085594Y-7120158D01*
X28063569Y-7113001D01*
X27987261Y-7100916D01*
X27975626Y-7100000D01*
X26969616Y-7100001D01*
X26954145Y-7104146D01*
X26950000Y-7119617D01*
X26950000Y-8130384D01*
X26450000Y-8130384D01*
X26450000Y-7119617D01*
X26445855Y-7104146D01*
X26430384Y-7100001D01*
X26149000Y-7100001D01*
X26074500Y-7080039D01*
X26019962Y-7025501D01*
X26000000Y-6951001D01*
X26000000Y-6165861D01*
X28193555Y-6165861D01*
X28197858Y-6173315D01*
X28292150Y-6242453D01*
X28301505Y-6248299D01*
X28515329Y-6360798D01*
X28525451Y-6365199D01*
X28753558Y-6444856D01*
X28764200Y-6447708D01*
X29001586Y-6492778D01*
X29012537Y-6494026D01*
X29253971Y-6503512D01*
X29264994Y-6503127D01*
X29505166Y-6476824D01*
X29516018Y-6474813D01*
X29749676Y-6413295D01*
X29760094Y-6409708D01*
X29982093Y-6314330D01*
X29991880Y-6309235D01*
X30197331Y-6182097D01*
X30200919Y-6179490D01*
X30208972Y-6167882D01*
X30208019Y-6165861D01*
X33193555Y-6165861D01*
X33197858Y-6173315D01*
X33292150Y-6242453D01*
X33301505Y-6248299D01*
X33515329Y-6360798D01*
X33525451Y-6365199D01*
X33753558Y-6444856D01*
X33764200Y-6447708D01*
X34001586Y-6492778D01*
X34012537Y-6494026D01*
X34253971Y-6503512D01*
X34264994Y-6503127D01*
X34505166Y-6476824D01*
X34516018Y-6474813D01*
X34749676Y-6413295D01*
X34760094Y-6409708D01*
X34982093Y-6314330D01*
X34991880Y-6309235D01*
X35197331Y-6182097D01*
X35200919Y-6179490D01*
X35208972Y-6167882D01*
X35208019Y-6165861D01*
X38193555Y-6165861D01*
X38197858Y-6173315D01*
X38292150Y-6242453D01*
X38301505Y-6248299D01*
X38515329Y-6360798D01*
X38525451Y-6365199D01*
X38753558Y-6444856D01*
X38764200Y-6447708D01*
X39001586Y-6492778D01*
X39012537Y-6494026D01*
X39253971Y-6503512D01*
X39264994Y-6503127D01*
X39505166Y-6476824D01*
X39516018Y-6474813D01*
X39749676Y-6413295D01*
X39760094Y-6409708D01*
X39982093Y-6314330D01*
X39991880Y-6309235D01*
X40197331Y-6182097D01*
X40200919Y-6179490D01*
X40208972Y-6167882D01*
X40204191Y-6157744D01*
X40172071Y-6125624D01*
X42500001Y-6125624D01*
X42500917Y-6137264D01*
X42513001Y-6213565D01*
X42520159Y-6235597D01*
X42567037Y-6327600D01*
X42580648Y-6346334D01*
X42653666Y-6419352D01*
X42672400Y-6432963D01*
X42764406Y-6479842D01*
X42786431Y-6486999D01*
X42862739Y-6499084D01*
X42874374Y-6500000D01*
X43930384Y-6500000D01*
X43945855Y-6495855D01*
X43950000Y-6480384D01*
X43950000Y-6480383D01*
X44450000Y-6480383D01*
X44454145Y-6495854D01*
X44469616Y-6499999D01*
X45525624Y-6499999D01*
X45537264Y-6499083D01*
X45613565Y-6486999D01*
X45635597Y-6479841D01*
X45727600Y-6432963D01*
X45746334Y-6419352D01*
X45819352Y-6346334D01*
X45832963Y-6327600D01*
X45879842Y-6235594D01*
X45886999Y-6213569D01*
X45899084Y-6137261D01*
X45900000Y-6125626D01*
X45900000Y-5069616D01*
X45895855Y-5054145D01*
X45880384Y-5050000D01*
X44469616Y-5050000D01*
X44454145Y-5054145D01*
X44450000Y-5069616D01*
X44450000Y-6480383D01*
X43950000Y-6480383D01*
X43950000Y-5069616D01*
X43945855Y-5054145D01*
X43930384Y-5050000D01*
X42519617Y-5050000D01*
X42504146Y-5054145D01*
X42500001Y-5069616D01*
X42500001Y-6125624D01*
X40172071Y-6125624D01*
X39213871Y-5167424D01*
X39200000Y-5159416D01*
X39186129Y-5167424D01*
X38201563Y-6151990D01*
X38193555Y-6165861D01*
X35208019Y-6165861D01*
X35204191Y-6157744D01*
X34213871Y-5167424D01*
X34200000Y-5159416D01*
X34186129Y-5167424D01*
X33201563Y-6151990D01*
X33193555Y-6165861D01*
X30208019Y-6165861D01*
X30204191Y-6157744D01*
X29213871Y-5167424D01*
X29200000Y-5159416D01*
X29186129Y-5167424D01*
X28201563Y-6151990D01*
X28193555Y-6165861D01*
X26000000Y-6165861D01*
X26000000Y-4284500D01*
X26019962Y-4210000D01*
X26074500Y-4155462D01*
X26149000Y-4135500D01*
X27423141Y-4135500D01*
X27497641Y-4155462D01*
G37*
%TD.AperFunction*%
%TD*%
%TA.AperFunction,Conductor*%
%TO.N,+48V*%
G36*
X14425500Y-10019962D02*
G01*
X14480038Y-10074500D01*
X14500000Y-10149000D01*
X14500000Y-14000000D01*
X20851000Y-14000000D01*
X20925500Y-14019962D01*
X20980038Y-14074500D01*
X21000000Y-14149000D01*
X21000000Y-14970054D01*
X20979251Y-15045901D01*
X20928487Y-15131738D01*
X20921104Y-15148798D01*
X20880024Y-15290197D01*
X20877303Y-15305099D01*
X20875229Y-15331454D01*
X20875000Y-15337275D01*
X20875000Y-16230384D01*
X20879145Y-16245855D01*
X20894616Y-16250000D01*
X21000000Y-16250000D01*
X21000000Y-16750000D01*
X20894616Y-16750000D01*
X20879145Y-16754145D01*
X20875000Y-16769616D01*
X20875000Y-17662725D01*
X20875229Y-17668546D01*
X20877303Y-17694901D01*
X20880024Y-17709803D01*
X20921104Y-17851202D01*
X20928487Y-17868262D01*
X20979251Y-17954099D01*
X21000000Y-18029946D01*
X21000000Y-18488920D01*
X20989537Y-18543770D01*
X20960364Y-18617453D01*
X20949500Y-18707228D01*
X20949500Y-20092772D01*
X20960364Y-20182547D01*
X20970361Y-20207796D01*
X20989537Y-20256230D01*
X21000000Y-20311080D01*
X21000000Y-20727781D01*
X20979251Y-20803628D01*
X20903487Y-20931738D01*
X20896104Y-20948798D01*
X20855024Y-21090197D01*
X20852303Y-21105099D01*
X20850229Y-21131454D01*
X20850000Y-21137275D01*
X20850000Y-21851000D01*
X20830038Y-21925500D01*
X20775500Y-21980038D01*
X20701000Y-22000000D01*
X20561718Y-22000000D01*
X20487218Y-21980038D01*
X20456359Y-21956359D01*
X19000000Y-20500000D01*
X14742439Y-20500000D01*
X14667939Y-20480038D01*
X14613401Y-20425500D01*
X14598767Y-20390488D01*
X14598703Y-20390256D01*
X14597382Y-20379154D01*
X14551939Y-20276847D01*
X14472713Y-20197759D01*
X14460133Y-20192197D01*
X14460131Y-20192196D01*
X14380574Y-20157024D01*
X14380573Y-20157024D01*
X14370327Y-20152494D01*
X14355682Y-20150787D01*
X14348930Y-20149999D01*
X14348922Y-20149999D01*
X14344646Y-20149500D01*
X12455354Y-20149500D01*
X12429154Y-20152618D01*
X12326847Y-20198061D01*
X12247759Y-20277287D01*
X12202494Y-20379673D01*
X12201244Y-20390397D01*
X12162505Y-20456820D01*
X12095542Y-20495091D01*
X12057609Y-20500000D01*
X8561718Y-20500000D01*
X8487218Y-20480038D01*
X8456359Y-20456359D01*
X6975624Y-18975624D01*
X12100001Y-18975624D01*
X12100917Y-18987264D01*
X12113001Y-19063565D01*
X12120159Y-19085597D01*
X12167037Y-19177600D01*
X12180648Y-19196334D01*
X12253666Y-19269352D01*
X12272400Y-19282963D01*
X12364406Y-19329842D01*
X12386431Y-19336999D01*
X12462739Y-19349084D01*
X12474374Y-19350000D01*
X13130384Y-19350000D01*
X13145855Y-19345855D01*
X13150000Y-19330384D01*
X13150000Y-19330383D01*
X13650000Y-19330383D01*
X13654145Y-19345854D01*
X13669616Y-19349999D01*
X14325624Y-19349999D01*
X14337264Y-19349083D01*
X14413565Y-19336999D01*
X14435597Y-19329841D01*
X14527600Y-19282963D01*
X14546334Y-19269352D01*
X14619352Y-19196334D01*
X14632963Y-19177600D01*
X14679842Y-19085594D01*
X14686999Y-19063569D01*
X14699084Y-18987261D01*
X14700000Y-18975626D01*
X14700000Y-17969616D01*
X14695855Y-17954145D01*
X14680384Y-17950000D01*
X13669616Y-17950000D01*
X13654145Y-17954145D01*
X13650000Y-17969616D01*
X13650000Y-19330383D01*
X13150000Y-19330383D01*
X13150000Y-17969616D01*
X13145855Y-17954145D01*
X13130384Y-17950000D01*
X12119617Y-17950000D01*
X12104146Y-17954145D01*
X12100001Y-17969616D01*
X12100001Y-18975624D01*
X6975624Y-18975624D01*
X6818641Y-18818641D01*
X6780077Y-18751846D01*
X6779116Y-18678501D01*
X6785683Y-18651148D01*
X6805449Y-18400000D01*
X6785683Y-18148852D01*
X6726873Y-17903889D01*
X6630466Y-17671141D01*
X6564028Y-17562725D01*
X16425000Y-17562725D01*
X16425229Y-17568546D01*
X16427303Y-17594901D01*
X16430024Y-17609803D01*
X16471104Y-17751202D01*
X16478487Y-17768262D01*
X16552544Y-17893486D01*
X16563947Y-17908186D01*
X16666814Y-18011053D01*
X16681514Y-18022456D01*
X16806738Y-18096513D01*
X16823798Y-18103896D01*
X16965197Y-18144976D01*
X16980099Y-18147697D01*
X17006454Y-18149771D01*
X17012275Y-18150000D01*
X18230384Y-18150000D01*
X18245855Y-18145855D01*
X18250000Y-18130384D01*
X18750000Y-18130384D01*
X18754145Y-18145855D01*
X18769616Y-18150000D01*
X19987725Y-18150000D01*
X19993546Y-18149771D01*
X20019901Y-18147697D01*
X20034803Y-18144976D01*
X20176202Y-18103896D01*
X20193262Y-18096513D01*
X20318486Y-18022456D01*
X20333186Y-18011053D01*
X20436053Y-17908186D01*
X20447456Y-17893486D01*
X20521513Y-17768262D01*
X20528896Y-17751202D01*
X20569976Y-17609803D01*
X20572697Y-17594901D01*
X20574771Y-17568546D01*
X20575000Y-17562725D01*
X20575000Y-17407116D01*
X20570855Y-17391645D01*
X20555384Y-17387500D01*
X18769616Y-17387500D01*
X18754145Y-17391645D01*
X18750000Y-17407116D01*
X18750000Y-18130384D01*
X18250000Y-18130384D01*
X18250000Y-17407116D01*
X18245855Y-17391645D01*
X18230384Y-17387500D01*
X16444616Y-17387500D01*
X16429145Y-17391645D01*
X16425000Y-17407116D01*
X16425000Y-17562725D01*
X6564028Y-17562725D01*
X6498836Y-17456341D01*
X6476667Y-17430384D01*
X12100000Y-17430384D01*
X12104145Y-17445855D01*
X12119616Y-17450000D01*
X13130384Y-17450000D01*
X13145855Y-17445855D01*
X13150000Y-17430384D01*
X13650000Y-17430384D01*
X13654145Y-17445855D01*
X13669616Y-17450000D01*
X14680383Y-17450000D01*
X14695854Y-17445855D01*
X14699999Y-17430384D01*
X14699999Y-16867884D01*
X16425000Y-16867884D01*
X16429145Y-16883355D01*
X16444616Y-16887500D01*
X18230384Y-16887500D01*
X18245855Y-16883355D01*
X18250000Y-16867884D01*
X18750000Y-16867884D01*
X18754145Y-16883355D01*
X18769616Y-16887500D01*
X20555384Y-16887500D01*
X20570855Y-16883355D01*
X20575000Y-16867884D01*
X20575000Y-16712275D01*
X20574771Y-16706454D01*
X20572697Y-16680099D01*
X20569976Y-16665197D01*
X20528896Y-16523798D01*
X20521513Y-16506738D01*
X20447456Y-16381514D01*
X20436053Y-16366814D01*
X20333186Y-16263947D01*
X20318486Y-16252544D01*
X20193262Y-16178487D01*
X20176202Y-16171104D01*
X20034803Y-16130024D01*
X20019901Y-16127303D01*
X19993546Y-16125229D01*
X19987725Y-16125000D01*
X18769616Y-16125000D01*
X18754145Y-16129145D01*
X18750000Y-16144616D01*
X18750000Y-16867884D01*
X18250000Y-16867884D01*
X18250000Y-16144616D01*
X18245855Y-16129145D01*
X18230384Y-16125000D01*
X17012275Y-16125000D01*
X17006454Y-16125229D01*
X16980099Y-16127303D01*
X16965197Y-16130024D01*
X16823798Y-16171104D01*
X16806738Y-16178487D01*
X16681514Y-16252544D01*
X16666814Y-16263947D01*
X16563947Y-16366814D01*
X16552544Y-16381514D01*
X16478487Y-16506738D01*
X16471104Y-16523798D01*
X16430024Y-16665197D01*
X16427303Y-16680099D01*
X16425229Y-16706454D01*
X16425000Y-16712275D01*
X16425000Y-16867884D01*
X14699999Y-16867884D01*
X14699999Y-16424376D01*
X14699083Y-16412736D01*
X14686999Y-16336435D01*
X14679841Y-16314403D01*
X14632963Y-16222400D01*
X14619352Y-16203666D01*
X14546334Y-16130648D01*
X14527600Y-16117037D01*
X14435594Y-16070158D01*
X14413569Y-16063001D01*
X14337261Y-16050916D01*
X14325626Y-16050000D01*
X13669616Y-16050000D01*
X13654145Y-16054145D01*
X13650000Y-16069616D01*
X13650000Y-17430384D01*
X13150000Y-17430384D01*
X13150000Y-16069617D01*
X13145855Y-16054146D01*
X13130384Y-16050001D01*
X12474376Y-16050001D01*
X12462736Y-16050917D01*
X12386435Y-16063001D01*
X12364403Y-16070159D01*
X12272400Y-16117037D01*
X12253666Y-16130648D01*
X12180648Y-16203666D01*
X12167037Y-16222400D01*
X12120158Y-16314406D01*
X12113001Y-16336431D01*
X12100916Y-16412739D01*
X12100000Y-16424374D01*
X12100000Y-17430384D01*
X6476667Y-17430384D01*
X6443581Y-17391645D01*
X6339029Y-17269231D01*
X6335224Y-17264776D01*
X6143659Y-17101164D01*
X5928859Y-16969534D01*
X5923450Y-16967294D01*
X5923447Y-16967292D01*
X5764698Y-16901537D01*
X5696111Y-16873127D01*
X5451148Y-16814317D01*
X5200000Y-16794551D01*
X4948852Y-16814317D01*
X4921498Y-16820884D01*
X4844398Y-16818864D01*
X4781359Y-16781359D01*
X3043641Y-15043641D01*
X3005077Y-14976846D01*
X3000000Y-14938282D01*
X3000000Y-14725624D01*
X3500001Y-14725624D01*
X3500917Y-14737264D01*
X3513001Y-14813565D01*
X3520159Y-14835597D01*
X3567037Y-14927600D01*
X3580648Y-14946334D01*
X3653666Y-15019352D01*
X3672400Y-15032963D01*
X3764406Y-15079842D01*
X3786431Y-15086999D01*
X3862739Y-15099084D01*
X3874374Y-15100000D01*
X4930384Y-15100000D01*
X4945855Y-15095855D01*
X4950000Y-15080384D01*
X4950000Y-15080383D01*
X5450000Y-15080383D01*
X5454145Y-15095854D01*
X5469616Y-15099999D01*
X6525624Y-15099999D01*
X6537264Y-15099083D01*
X6613565Y-15086999D01*
X6635597Y-15079841D01*
X6727600Y-15032963D01*
X6746334Y-15019352D01*
X6819352Y-14946334D01*
X6832963Y-14927600D01*
X6879842Y-14835594D01*
X6886999Y-14813569D01*
X6899084Y-14737261D01*
X6900000Y-14725626D01*
X6900000Y-13669616D01*
X6895855Y-13654145D01*
X6880384Y-13650000D01*
X5469616Y-13650000D01*
X5454145Y-13654145D01*
X5450000Y-13669616D01*
X5450000Y-15080383D01*
X4950000Y-15080383D01*
X4950000Y-13669616D01*
X4945855Y-13654145D01*
X4930384Y-13650000D01*
X3519617Y-13650000D01*
X3504146Y-13654145D01*
X3500001Y-13669616D01*
X3500001Y-14725624D01*
X3000000Y-14725624D01*
X3000000Y-13130384D01*
X3500000Y-13130384D01*
X3504145Y-13145855D01*
X3519616Y-13150000D01*
X4930384Y-13150000D01*
X4945855Y-13145855D01*
X4950000Y-13130384D01*
X5450000Y-13130384D01*
X5454145Y-13145855D01*
X5469616Y-13150000D01*
X6880383Y-13150000D01*
X6895854Y-13145855D01*
X6899999Y-13130384D01*
X6899999Y-12725624D01*
X10700001Y-12725624D01*
X10700917Y-12737264D01*
X10713001Y-12813565D01*
X10720159Y-12835597D01*
X10767037Y-12927600D01*
X10780648Y-12946334D01*
X10853666Y-13019352D01*
X10872400Y-13032963D01*
X10964406Y-13079842D01*
X10986431Y-13086999D01*
X11062739Y-13099084D01*
X11074374Y-13100000D01*
X11830384Y-13100000D01*
X11845855Y-13095855D01*
X11850000Y-13080384D01*
X11850000Y-13080383D01*
X12350000Y-13080383D01*
X12354145Y-13095854D01*
X12369616Y-13099999D01*
X13125624Y-13099999D01*
X13137264Y-13099083D01*
X13213565Y-13086999D01*
X13235597Y-13079841D01*
X13327600Y-13032963D01*
X13346334Y-13019352D01*
X13419352Y-12946334D01*
X13432963Y-12927600D01*
X13479842Y-12835594D01*
X13486999Y-12813569D01*
X13499084Y-12737261D01*
X13500000Y-12725626D01*
X13500000Y-11969616D01*
X13495855Y-11954145D01*
X13480384Y-11950000D01*
X12369616Y-11950000D01*
X12354145Y-11954145D01*
X12350000Y-11969616D01*
X12350000Y-13080383D01*
X11850000Y-13080383D01*
X11850000Y-11969616D01*
X11845855Y-11954145D01*
X11830384Y-11950000D01*
X10719617Y-11950000D01*
X10704146Y-11954145D01*
X10700001Y-11969616D01*
X10700001Y-12725624D01*
X6899999Y-12725624D01*
X6899999Y-12074376D01*
X6899083Y-12062736D01*
X6886999Y-11986435D01*
X6879841Y-11964403D01*
X6832963Y-11872400D01*
X6819352Y-11853666D01*
X6746334Y-11780648D01*
X6727600Y-11767037D01*
X6635594Y-11720158D01*
X6613569Y-11713001D01*
X6537261Y-11700916D01*
X6525626Y-11700000D01*
X5469616Y-11700000D01*
X5454145Y-11704145D01*
X5450000Y-11719616D01*
X5450000Y-13130384D01*
X4950000Y-13130384D01*
X4950000Y-11719617D01*
X4945855Y-11704146D01*
X4930384Y-11700001D01*
X3874376Y-11700001D01*
X3862736Y-11700917D01*
X3786435Y-11713001D01*
X3764403Y-11720159D01*
X3672400Y-11767037D01*
X3653666Y-11780648D01*
X3580648Y-11853666D01*
X3567037Y-11872400D01*
X3520158Y-11964406D01*
X3513001Y-11986431D01*
X3500916Y-12062739D01*
X3500000Y-12074374D01*
X3500000Y-13130384D01*
X3000000Y-13130384D01*
X3000000Y-11430384D01*
X10700000Y-11430384D01*
X10704145Y-11445855D01*
X10719616Y-11450000D01*
X11830384Y-11450000D01*
X11845855Y-11445855D01*
X11850000Y-11430384D01*
X12350000Y-11430384D01*
X12354145Y-11445855D01*
X12369616Y-11450000D01*
X13480383Y-11450000D01*
X13495854Y-11445855D01*
X13499999Y-11430384D01*
X13499999Y-10674376D01*
X13499083Y-10662736D01*
X13486999Y-10586435D01*
X13479841Y-10564403D01*
X13432963Y-10472400D01*
X13419352Y-10453666D01*
X13346334Y-10380648D01*
X13327600Y-10367037D01*
X13235594Y-10320158D01*
X13213569Y-10313001D01*
X13137261Y-10300916D01*
X13125626Y-10300000D01*
X12369616Y-10300000D01*
X12354145Y-10304145D01*
X12350000Y-10319616D01*
X12350000Y-11430384D01*
X11850000Y-11430384D01*
X11850000Y-10319617D01*
X11845855Y-10304146D01*
X11830384Y-10300001D01*
X11074376Y-10300001D01*
X11062736Y-10300917D01*
X10986435Y-10313001D01*
X10964403Y-10320159D01*
X10872400Y-10367037D01*
X10853666Y-10380648D01*
X10780648Y-10453666D01*
X10767037Y-10472400D01*
X10720158Y-10564406D01*
X10713001Y-10586431D01*
X10700916Y-10662739D01*
X10700000Y-10674374D01*
X10700000Y-11430384D01*
X3000000Y-11430384D01*
X3000000Y-10149000D01*
X3019962Y-10074500D01*
X3074500Y-10019962D01*
X3149000Y-10000000D01*
X14351000Y-10000000D01*
X14425500Y-10019962D01*
G37*
%TD.AperFunction*%
%TD*%
%TA.AperFunction,Conductor*%
%TO.N,Net-(D1-Pad1)*%
G36*
X46175000Y-24519962D02*
G01*
X46229538Y-24574500D01*
X46249500Y-24649000D01*
X46249500Y-29710257D01*
X46229538Y-29784757D01*
X46205859Y-29815616D01*
X45773125Y-30248351D01*
X45504359Y-30517117D01*
X45437564Y-30555681D01*
X45360436Y-30555681D01*
X45293641Y-30517117D01*
X45255077Y-30450322D01*
X45250000Y-30411758D01*
X45250000Y-29469616D01*
X45245855Y-29454145D01*
X45230384Y-29450000D01*
X41169617Y-29450000D01*
X41154146Y-29454145D01*
X41150001Y-29469616D01*
X41150001Y-30475624D01*
X41150917Y-30487264D01*
X41164835Y-30575148D01*
X41161155Y-30575731D01*
X41164081Y-30631465D01*
X41129072Y-30700190D01*
X41064391Y-30742203D01*
X41018334Y-30749500D01*
X35813998Y-30749500D01*
X35739498Y-30729538D01*
X35684960Y-30675000D01*
X35664998Y-30600500D01*
X35677781Y-30547257D01*
X35676218Y-30546749D01*
X35686999Y-30513569D01*
X35699084Y-30437261D01*
X35700000Y-30425626D01*
X35700000Y-29419616D01*
X35695855Y-29404145D01*
X35680384Y-29400000D01*
X29919617Y-29400000D01*
X29904146Y-29404145D01*
X29900001Y-29419616D01*
X29900001Y-30425624D01*
X29900917Y-30437264D01*
X29913001Y-30513565D01*
X29923783Y-30546751D01*
X29921849Y-30547379D01*
X29934798Y-30608297D01*
X29910965Y-30681650D01*
X29853648Y-30733259D01*
X29786002Y-30749500D01*
X20149000Y-30749500D01*
X20074500Y-30729538D01*
X20019962Y-30675000D01*
X20000000Y-30600500D01*
X20000000Y-28930384D01*
X41150000Y-28930384D01*
X41154145Y-28945855D01*
X41169616Y-28950000D01*
X42930384Y-28950000D01*
X42945855Y-28945855D01*
X42950000Y-28930384D01*
X43450000Y-28930384D01*
X43454145Y-28945855D01*
X43469616Y-28950000D01*
X45230383Y-28950000D01*
X45245854Y-28945855D01*
X45249999Y-28930384D01*
X45249999Y-27924376D01*
X45249083Y-27912736D01*
X45236999Y-27836435D01*
X45229841Y-27814403D01*
X45182963Y-27722400D01*
X45169352Y-27703666D01*
X45096334Y-27630648D01*
X45077600Y-27617037D01*
X44985594Y-27570158D01*
X44963569Y-27563001D01*
X44887261Y-27550916D01*
X44875626Y-27550000D01*
X43469616Y-27550000D01*
X43454145Y-27554145D01*
X43450000Y-27569616D01*
X43450000Y-28930384D01*
X42950000Y-28930384D01*
X42950000Y-27569617D01*
X42945855Y-27554146D01*
X42930384Y-27550001D01*
X41524376Y-27550001D01*
X41512736Y-27550917D01*
X41436435Y-27563001D01*
X41414403Y-27570159D01*
X41322400Y-27617037D01*
X41303666Y-27630648D01*
X41230648Y-27703666D01*
X41217037Y-27722400D01*
X41170158Y-27814406D01*
X41163001Y-27836431D01*
X41150916Y-27912739D01*
X41150000Y-27924374D01*
X41150000Y-28930384D01*
X20000000Y-28930384D01*
X20000000Y-28880384D01*
X29900000Y-28880384D01*
X29904145Y-28895855D01*
X29919616Y-28900000D01*
X32530384Y-28900000D01*
X32545855Y-28895855D01*
X32550000Y-28880384D01*
X33050000Y-28880384D01*
X33054145Y-28895855D01*
X33069616Y-28900000D01*
X35680383Y-28900000D01*
X35695854Y-28895855D01*
X35699999Y-28880384D01*
X35699999Y-27874376D01*
X35699083Y-27862736D01*
X35686999Y-27786435D01*
X35679841Y-27764403D01*
X35632963Y-27672400D01*
X35619352Y-27653666D01*
X35546334Y-27580648D01*
X35527600Y-27567037D01*
X35435594Y-27520158D01*
X35413569Y-27513001D01*
X35337261Y-27500916D01*
X35325626Y-27500000D01*
X33069616Y-27500000D01*
X33054145Y-27504145D01*
X33050000Y-27519616D01*
X33050000Y-28880384D01*
X32550000Y-28880384D01*
X32550000Y-27519617D01*
X32545855Y-27504146D01*
X32530384Y-27500001D01*
X30274376Y-27500001D01*
X30262736Y-27500917D01*
X30186435Y-27513001D01*
X30164403Y-27520159D01*
X30072400Y-27567037D01*
X30053666Y-27580648D01*
X29980648Y-27653666D01*
X29967037Y-27672400D01*
X29920158Y-27764406D01*
X29913001Y-27786431D01*
X29900916Y-27862739D01*
X29900000Y-27874374D01*
X29900000Y-28880384D01*
X20000000Y-28880384D01*
X20000000Y-24649000D01*
X20019962Y-24574500D01*
X20074500Y-24519962D01*
X20149000Y-24500000D01*
X46100500Y-24500000D01*
X46175000Y-24519962D01*
G37*
%TD.AperFunction*%
%TD*%
%TA.AperFunction,Conductor*%
%TO.N,GND*%
G36*
X23022619Y-320462D02*
G01*
X23077157Y-375000D01*
X23097119Y-449500D01*
X23097119Y-4135500D01*
X25545500Y-4135500D01*
X25620000Y-4155462D01*
X25674538Y-4210000D01*
X25694500Y-4284500D01*
X25694500Y-6951001D01*
X25695138Y-6955845D01*
X25704909Y-7030069D01*
X25702926Y-7030330D01*
X25698485Y-7098357D01*
X25655652Y-7162498D01*
X25586487Y-7196629D01*
X25557380Y-7199500D01*
X25405354Y-7199500D01*
X25379154Y-7202618D01*
X25276847Y-7248061D01*
X25197759Y-7327287D01*
X25192197Y-7339867D01*
X25192196Y-7339869D01*
X25157024Y-7419426D01*
X25152494Y-7429673D01*
X25149500Y-7455354D01*
X25149500Y-9344646D01*
X25152618Y-9370846D01*
X25198061Y-9473153D01*
X25277287Y-9552241D01*
X25289867Y-9557803D01*
X25289869Y-9557804D01*
X25369426Y-9592976D01*
X25379673Y-9597506D01*
X25394318Y-9599213D01*
X25401070Y-9600001D01*
X25401078Y-9600001D01*
X25405354Y-9600500D01*
X25557380Y-9600500D01*
X25631880Y-9620462D01*
X25686418Y-9675000D01*
X25706380Y-9749500D01*
X25704374Y-9769862D01*
X25704909Y-9769932D01*
X25694500Y-9849000D01*
X25694500Y-14720414D01*
X25674538Y-14794914D01*
X25620000Y-14849452D01*
X25545500Y-14869414D01*
X25469652Y-14848664D01*
X25393264Y-14803488D01*
X25376202Y-14796104D01*
X25234803Y-14755024D01*
X25219901Y-14752303D01*
X25193546Y-14750229D01*
X25187725Y-14750000D01*
X25069616Y-14750000D01*
X25054145Y-14754145D01*
X25050000Y-14769616D01*
X25050000Y-16601000D01*
X25030038Y-16675500D01*
X24975500Y-16730038D01*
X24901000Y-16750000D01*
X23844616Y-16750000D01*
X23829145Y-16754145D01*
X23825000Y-16769616D01*
X23825000Y-17662725D01*
X23825229Y-17668546D01*
X23827303Y-17694901D01*
X23830024Y-17709803D01*
X23871104Y-17851202D01*
X23878487Y-17868262D01*
X23952544Y-17993486D01*
X23963947Y-18008186D01*
X24066814Y-18111053D01*
X24068869Y-18112647D01*
X24070321Y-18114560D01*
X24073444Y-18117683D01*
X24073016Y-18118111D01*
X24115502Y-18174081D01*
X24125170Y-18250601D01*
X24095283Y-18321703D01*
X24067637Y-18349062D01*
X24065171Y-18350934D01*
X24065167Y-18350938D01*
X24057078Y-18357078D01*
X23965887Y-18477217D01*
X23910364Y-18617453D01*
X23899500Y-18707228D01*
X23899500Y-20092772D01*
X23910364Y-20182547D01*
X23965887Y-20322783D01*
X24057078Y-20442922D01*
X24065167Y-20449062D01*
X24070554Y-20454449D01*
X24109118Y-20521244D01*
X24109118Y-20598372D01*
X24070554Y-20665167D01*
X24056517Y-20677542D01*
X24041816Y-20688945D01*
X23938947Y-20791814D01*
X23927544Y-20806514D01*
X23853487Y-20931738D01*
X23846104Y-20948798D01*
X23805024Y-21090197D01*
X23802303Y-21105099D01*
X23800229Y-21131454D01*
X23800000Y-21137275D01*
X23800000Y-22030384D01*
X23804145Y-22045855D01*
X23819616Y-22050000D01*
X25730384Y-22050000D01*
X25745855Y-22045855D01*
X25750000Y-22030384D01*
X25750000Y-21394153D01*
X25769962Y-21319653D01*
X25824500Y-21265115D01*
X25899000Y-21245153D01*
X25963349Y-21259766D01*
X25995432Y-21275129D01*
X26002085Y-21276912D01*
X26002086Y-21276912D01*
X26065217Y-21293828D01*
X26065222Y-21293829D01*
X26069932Y-21295091D01*
X26074768Y-21295728D01*
X26074775Y-21295729D01*
X26115608Y-21301104D01*
X26149000Y-21305500D01*
X39351000Y-21305500D01*
X39384392Y-21301104D01*
X39425225Y-21295729D01*
X39425232Y-21295728D01*
X39430068Y-21295091D01*
X39434778Y-21293829D01*
X39434783Y-21293828D01*
X39468844Y-21284701D01*
X39504568Y-21275129D01*
X39507275Y-21274175D01*
X39507285Y-21274172D01*
X39522401Y-21268845D01*
X39548898Y-21259508D01*
X39569853Y-21245153D01*
X39635843Y-21199949D01*
X39635846Y-21199947D01*
X39641521Y-21196059D01*
X39696059Y-21141521D01*
X39726639Y-21105828D01*
X39775129Y-21004568D01*
X39788545Y-20954500D01*
X39793828Y-20934783D01*
X39793829Y-20934778D01*
X39795091Y-20930068D01*
X39796101Y-20922400D01*
X39804862Y-20855844D01*
X39805500Y-20851000D01*
X39805500Y-20249500D01*
X39825462Y-20175000D01*
X39880000Y-20120462D01*
X39954500Y-20100500D01*
X40032790Y-20100500D01*
X40107290Y-20120462D01*
X40115611Y-20125991D01*
X40119126Y-20127971D01*
X40127217Y-20134113D01*
X40267453Y-20189636D01*
X40328309Y-20197000D01*
X40371721Y-20209122D01*
X40513984Y-20273355D01*
X40680692Y-20304252D01*
X40689660Y-20303735D01*
X40765326Y-20299372D01*
X40849959Y-20294493D01*
X40858542Y-20291853D01*
X40858545Y-20291852D01*
X41003426Y-20247280D01*
X41003425Y-20247280D01*
X41012011Y-20244639D01*
X41019716Y-20240028D01*
X41019722Y-20240025D01*
X41056810Y-20217828D01*
X41115427Y-20197758D01*
X41182547Y-20189636D01*
X41322783Y-20134113D01*
X41442922Y-20042922D01*
X41534113Y-19922783D01*
X41589636Y-19782547D01*
X41598085Y-19712725D01*
X42700000Y-19712725D01*
X42700229Y-19718546D01*
X42702303Y-19744901D01*
X42705024Y-19759803D01*
X42746104Y-19901202D01*
X42753487Y-19918262D01*
X42827544Y-20043486D01*
X42838947Y-20058186D01*
X42941814Y-20161053D01*
X42956514Y-20172456D01*
X43081738Y-20246513D01*
X43098798Y-20253896D01*
X43240197Y-20294976D01*
X43255099Y-20297697D01*
X43281454Y-20299771D01*
X43287275Y-20300000D01*
X43405384Y-20300000D01*
X43420855Y-20295855D01*
X43425000Y-20280384D01*
X43925000Y-20280384D01*
X43929145Y-20295855D01*
X43944616Y-20300000D01*
X44062725Y-20300000D01*
X44068546Y-20299771D01*
X44094901Y-20297697D01*
X44109803Y-20294976D01*
X44251202Y-20253896D01*
X44268262Y-20246513D01*
X44393486Y-20172456D01*
X44408186Y-20161053D01*
X44511053Y-20058186D01*
X44522456Y-20043486D01*
X44596513Y-19918262D01*
X44603896Y-19901202D01*
X44644976Y-19759803D01*
X44647697Y-19744901D01*
X44649771Y-19718546D01*
X44650000Y-19712725D01*
X44650000Y-19269616D01*
X44645855Y-19254145D01*
X44630384Y-19250000D01*
X43944616Y-19250000D01*
X43929145Y-19254145D01*
X43925000Y-19269616D01*
X43925000Y-20280384D01*
X43425000Y-20280384D01*
X43425000Y-19269616D01*
X43420855Y-19254145D01*
X43405384Y-19250000D01*
X42719616Y-19250000D01*
X42704145Y-19254145D01*
X42700000Y-19269616D01*
X42700000Y-19712725D01*
X41598085Y-19712725D01*
X41600500Y-19692772D01*
X41600500Y-18730384D01*
X42700000Y-18730384D01*
X42704145Y-18745855D01*
X42719616Y-18750000D01*
X43405384Y-18750000D01*
X43420855Y-18745855D01*
X43425000Y-18730384D01*
X43925000Y-18730384D01*
X43929145Y-18745855D01*
X43944616Y-18750000D01*
X44630384Y-18750000D01*
X44645855Y-18745855D01*
X44650000Y-18730384D01*
X44650000Y-18287275D01*
X44649771Y-18281454D01*
X44647697Y-18255099D01*
X44644976Y-18240197D01*
X44603896Y-18098798D01*
X44596513Y-18081738D01*
X44522456Y-17956514D01*
X44511053Y-17941814D01*
X44408186Y-17838947D01*
X44393486Y-17827544D01*
X44268262Y-17753487D01*
X44251202Y-17746104D01*
X44109803Y-17705024D01*
X44094901Y-17702303D01*
X44068546Y-17700229D01*
X44062725Y-17700000D01*
X43944616Y-17700000D01*
X43929145Y-17704145D01*
X43925000Y-17719616D01*
X43925000Y-18730384D01*
X43425000Y-18730384D01*
X43425000Y-17719616D01*
X43420855Y-17704145D01*
X43405384Y-17700000D01*
X43287275Y-17700000D01*
X43281454Y-17700229D01*
X43255099Y-17702303D01*
X43240197Y-17705024D01*
X43098798Y-17746104D01*
X43081738Y-17753487D01*
X42956514Y-17827544D01*
X42941814Y-17838947D01*
X42838947Y-17941814D01*
X42827544Y-17956514D01*
X42753487Y-18081738D01*
X42746104Y-18098798D01*
X42705024Y-18240197D01*
X42702303Y-18255099D01*
X42700229Y-18281454D01*
X42700000Y-18287275D01*
X42700000Y-18730384D01*
X41600500Y-18730384D01*
X41600500Y-18307228D01*
X41589636Y-18217453D01*
X41534113Y-18077217D01*
X41442922Y-17957078D01*
X41322783Y-17865887D01*
X41182547Y-17810364D01*
X41092772Y-17799500D01*
X40357228Y-17799500D01*
X40267453Y-17810364D01*
X40127217Y-17865887D01*
X40119127Y-17872028D01*
X40044586Y-17928608D01*
X39973175Y-17957750D01*
X39896761Y-17947283D01*
X39835817Y-17900011D01*
X39806675Y-17828600D01*
X39805500Y-17809925D01*
X39805500Y-15149000D01*
X39795091Y-15069932D01*
X39775129Y-14995432D01*
X39759508Y-14951102D01*
X39720934Y-14894791D01*
X39699949Y-14864157D01*
X39699947Y-14864154D01*
X39696059Y-14858479D01*
X39641521Y-14803941D01*
X39605828Y-14773361D01*
X39504568Y-14724871D01*
X39497914Y-14723088D01*
X39434783Y-14706172D01*
X39434778Y-14706171D01*
X39430068Y-14704909D01*
X39425232Y-14704272D01*
X39425225Y-14704271D01*
X39384392Y-14698896D01*
X39351000Y-14694500D01*
X36188260Y-14694500D01*
X36113760Y-14674538D01*
X36082901Y-14650859D01*
X34285945Y-12853903D01*
X35637836Y-12853903D01*
X35640821Y-12859073D01*
X35820050Y-12963808D01*
X35831047Y-12969076D01*
X36034676Y-13046834D01*
X36046394Y-13050239D01*
X36259999Y-13093697D01*
X36272098Y-13095140D01*
X36489933Y-13103128D01*
X36502122Y-13102574D01*
X36718323Y-13074878D01*
X36730264Y-13072340D01*
X36939040Y-13009703D01*
X36950394Y-13005254D01*
X37146151Y-12909354D01*
X37156616Y-12903116D01*
X37213762Y-12862353D01*
X37223950Y-12849995D01*
X37221075Y-12842305D01*
X36446194Y-12067424D01*
X36432323Y-12059416D01*
X36418452Y-12067424D01*
X35645844Y-12840032D01*
X35637836Y-12853903D01*
X34285945Y-12853903D01*
X33849141Y-12417099D01*
X33810577Y-12350304D01*
X33805500Y-12311740D01*
X33805500Y-11671777D01*
X35028296Y-11671777D01*
X35040844Y-11889409D01*
X35042539Y-11901470D01*
X35090466Y-12114136D01*
X35094106Y-12125750D01*
X35176120Y-12327728D01*
X35181614Y-12338604D01*
X35269605Y-12482192D01*
X35281222Y-12493216D01*
X35287378Y-12491392D01*
X36064899Y-11713871D01*
X36072907Y-11700000D01*
X36791739Y-11700000D01*
X36799747Y-11713871D01*
X37569468Y-12483592D01*
X37583339Y-12491600D01*
X37590539Y-12487444D01*
X37632899Y-12428494D01*
X37639182Y-12418037D01*
X37735761Y-12222624D01*
X37740249Y-12211290D01*
X37803618Y-12002719D01*
X37806193Y-11990806D01*
X37834927Y-11772554D01*
X37835541Y-11764668D01*
X37837024Y-11703957D01*
X37836796Y-11696051D01*
X37818759Y-11476649D01*
X37816770Y-11464635D01*
X37763664Y-11253215D01*
X37759735Y-11241672D01*
X37672815Y-11041772D01*
X37667051Y-11031023D01*
X37594353Y-10918649D01*
X37582470Y-10907911D01*
X37575816Y-10910060D01*
X36799747Y-11686129D01*
X36791739Y-11700000D01*
X36072907Y-11700000D01*
X36064899Y-11686129D01*
X35295300Y-10916530D01*
X35281429Y-10908522D01*
X35274831Y-10912331D01*
X35214303Y-11001061D01*
X35208285Y-11011654D01*
X35116505Y-11209379D01*
X35112296Y-11220820D01*
X35054041Y-11430877D01*
X35051758Y-11442847D01*
X35028593Y-11659601D01*
X35028296Y-11671777D01*
X33805500Y-11671777D01*
X33805500Y-10649000D01*
X33795091Y-10569932D01*
X33793419Y-10563690D01*
X33789545Y-10549231D01*
X35640085Y-10549231D01*
X35643432Y-10557556D01*
X36418452Y-11332576D01*
X36432323Y-11340584D01*
X36446194Y-11332576D01*
X37217718Y-10561052D01*
X37225726Y-10547181D01*
X37220813Y-10538670D01*
X37214528Y-10533706D01*
X37204368Y-10526956D01*
X37013538Y-10421612D01*
X37002418Y-10416614D01*
X36796931Y-10343847D01*
X36785157Y-10340736D01*
X36570550Y-10302510D01*
X36558409Y-10301362D01*
X36340439Y-10298699D01*
X36328291Y-10299548D01*
X36112801Y-10332522D01*
X36100958Y-10335344D01*
X35893750Y-10403070D01*
X35882519Y-10407791D01*
X35689164Y-10508446D01*
X35678849Y-10514941D01*
X35649967Y-10536628D01*
X35640085Y-10549231D01*
X33789545Y-10549231D01*
X33775873Y-10498210D01*
X33775129Y-10495432D01*
X33759508Y-10451102D01*
X33753989Y-10443046D01*
X33753427Y-10441938D01*
X33737508Y-10366471D01*
X33761456Y-10293155D01*
X33818854Y-10241635D01*
X33886292Y-10225500D01*
X34358847Y-10225499D01*
X34390828Y-10225499D01*
X34395282Y-10224960D01*
X34395283Y-10224960D01*
X34467024Y-10216279D01*
X34476528Y-10215129D01*
X34610395Y-10162128D01*
X34725078Y-10075078D01*
X34812128Y-9960395D01*
X34865129Y-9826528D01*
X34875500Y-9740829D01*
X34875500Y-9699500D01*
X34895462Y-9625000D01*
X34950000Y-9570462D01*
X35024500Y-9550500D01*
X44710257Y-9550500D01*
X44784757Y-9570462D01*
X44815616Y-9594141D01*
X46205859Y-10984384D01*
X46244423Y-11051179D01*
X46249500Y-11089743D01*
X46249500Y-24045500D01*
X46229538Y-24120000D01*
X46175000Y-24174538D01*
X46100500Y-24194500D01*
X45230904Y-24194500D01*
X45156404Y-24174538D01*
X45101866Y-24120000D01*
X45081904Y-24045500D01*
X45101866Y-23971000D01*
X45125545Y-23940141D01*
X45169352Y-23896334D01*
X45182963Y-23877600D01*
X45229842Y-23785594D01*
X45236999Y-23763569D01*
X45249084Y-23687261D01*
X45250000Y-23675626D01*
X45250000Y-22669616D01*
X45245855Y-22654145D01*
X45230384Y-22650000D01*
X41169617Y-22650000D01*
X41154146Y-22654145D01*
X41150001Y-22669616D01*
X41150001Y-23675624D01*
X41150917Y-23687264D01*
X41163001Y-23763565D01*
X41170159Y-23785597D01*
X41217037Y-23877600D01*
X41230648Y-23896334D01*
X41274455Y-23940141D01*
X41313019Y-24006936D01*
X41313019Y-24084064D01*
X41274455Y-24150859D01*
X41207660Y-24189423D01*
X41169096Y-24194500D01*
X25577963Y-24194500D01*
X25503463Y-24174538D01*
X25448925Y-24120000D01*
X25428963Y-24045500D01*
X25448925Y-23971000D01*
X25486639Y-23927768D01*
X25508181Y-23911058D01*
X25611053Y-23808186D01*
X25622456Y-23793486D01*
X25696513Y-23668262D01*
X25703896Y-23651202D01*
X25744976Y-23509803D01*
X25747697Y-23494901D01*
X25749771Y-23468546D01*
X25750000Y-23462725D01*
X25750000Y-22569616D01*
X25745855Y-22554145D01*
X25730384Y-22550000D01*
X23819616Y-22550000D01*
X23804145Y-22554145D01*
X23800000Y-22569616D01*
X23800000Y-23462725D01*
X23800229Y-23468546D01*
X23802303Y-23494901D01*
X23805024Y-23509803D01*
X23846104Y-23651202D01*
X23853487Y-23668262D01*
X23927544Y-23793486D01*
X23938947Y-23808186D01*
X24041819Y-23911058D01*
X24063361Y-23927768D01*
X24109992Y-23989203D01*
X24119658Y-24065723D01*
X24089769Y-24136824D01*
X24028334Y-24183455D01*
X23972037Y-24194500D01*
X22419920Y-24194500D01*
X22345420Y-24174538D01*
X22290882Y-24120000D01*
X22270920Y-24045500D01*
X22290882Y-23971000D01*
X22345420Y-23916462D01*
X22365070Y-23906963D01*
X22375155Y-23902970D01*
X22422783Y-23884113D01*
X22542922Y-23792922D01*
X22551581Y-23781515D01*
X22595638Y-23723472D01*
X22634113Y-23672783D01*
X22689636Y-23532547D01*
X22700500Y-23442772D01*
X22700500Y-22130384D01*
X41150000Y-22130384D01*
X41154145Y-22145855D01*
X41169616Y-22150000D01*
X42930384Y-22150000D01*
X42945855Y-22145855D01*
X42950000Y-22130384D01*
X43450000Y-22130384D01*
X43454145Y-22145855D01*
X43469616Y-22150000D01*
X45230383Y-22150000D01*
X45245854Y-22145855D01*
X45249999Y-22130384D01*
X45249999Y-21124376D01*
X45249083Y-21112736D01*
X45236999Y-21036435D01*
X45229841Y-21014403D01*
X45182963Y-20922400D01*
X45169352Y-20903666D01*
X45096334Y-20830648D01*
X45077600Y-20817037D01*
X44985594Y-20770158D01*
X44963569Y-20763001D01*
X44887261Y-20750916D01*
X44875626Y-20750000D01*
X43469616Y-20750000D01*
X43454145Y-20754145D01*
X43450000Y-20769616D01*
X43450000Y-22130384D01*
X42950000Y-22130384D01*
X42950000Y-20769617D01*
X42945855Y-20754146D01*
X42930384Y-20750001D01*
X41524376Y-20750001D01*
X41512736Y-20750917D01*
X41436435Y-20763001D01*
X41414403Y-20770159D01*
X41322400Y-20817037D01*
X41303666Y-20830648D01*
X41230648Y-20903666D01*
X41217037Y-20922400D01*
X41170158Y-21014406D01*
X41163001Y-21036431D01*
X41150916Y-21112739D01*
X41150000Y-21124374D01*
X41150000Y-22130384D01*
X22700500Y-22130384D01*
X22700500Y-21157228D01*
X22689636Y-21067453D01*
X22634113Y-20927217D01*
X22542922Y-20807078D01*
X22534833Y-20800938D01*
X22529446Y-20795551D01*
X22490882Y-20728756D01*
X22490882Y-20651628D01*
X22529446Y-20584833D01*
X22543483Y-20572458D01*
X22558184Y-20561055D01*
X22661053Y-20458186D01*
X22672456Y-20443486D01*
X22746513Y-20318262D01*
X22753896Y-20301202D01*
X22794976Y-20159803D01*
X22797697Y-20144901D01*
X22799771Y-20118546D01*
X22800000Y-20112725D01*
X22800000Y-19669616D01*
X22795855Y-19654145D01*
X22780384Y-19650000D01*
X21724000Y-19650000D01*
X21649500Y-19630038D01*
X21594962Y-19575500D01*
X21575000Y-19501000D01*
X21575000Y-19299000D01*
X21594962Y-19224500D01*
X21649500Y-19169962D01*
X21724000Y-19150000D01*
X22780384Y-19150000D01*
X22795855Y-19145855D01*
X22800000Y-19130384D01*
X22800000Y-18687275D01*
X22799771Y-18681454D01*
X22797697Y-18655099D01*
X22794976Y-18640197D01*
X22753896Y-18498798D01*
X22746513Y-18481738D01*
X22672456Y-18356514D01*
X22661053Y-18341814D01*
X22558186Y-18238947D01*
X22556131Y-18237353D01*
X22554679Y-18235440D01*
X22551556Y-18232317D01*
X22551984Y-18231889D01*
X22509498Y-18175919D01*
X22499830Y-18099399D01*
X22529717Y-18028297D01*
X22557363Y-18000938D01*
X22559829Y-17999066D01*
X22559833Y-17999062D01*
X22567922Y-17992922D01*
X22659113Y-17872783D01*
X22714636Y-17732547D01*
X22725500Y-17642772D01*
X22725500Y-16230384D01*
X23825000Y-16230384D01*
X23829145Y-16245855D01*
X23844616Y-16250000D01*
X24530384Y-16250000D01*
X24545855Y-16245855D01*
X24550000Y-16230384D01*
X24550000Y-14769616D01*
X24545855Y-14754145D01*
X24530384Y-14750000D01*
X24412275Y-14750000D01*
X24406454Y-14750229D01*
X24380099Y-14752303D01*
X24365197Y-14755024D01*
X24223798Y-14796104D01*
X24206738Y-14803487D01*
X24081514Y-14877544D01*
X24066814Y-14888947D01*
X23963947Y-14991814D01*
X23952544Y-15006514D01*
X23878487Y-15131738D01*
X23871104Y-15148798D01*
X23830024Y-15290197D01*
X23827303Y-15305099D01*
X23825229Y-15331454D01*
X23825000Y-15337275D01*
X23825000Y-16230384D01*
X22725500Y-16230384D01*
X22725500Y-15357228D01*
X22714636Y-15267453D01*
X22659113Y-15127217D01*
X22580502Y-15023651D01*
X22574062Y-15015167D01*
X22567922Y-15007078D01*
X22447783Y-14915887D01*
X22307547Y-14860364D01*
X22217772Y-14849500D01*
X21482228Y-14849500D01*
X21477783Y-14850038D01*
X21477765Y-14850039D01*
X21472396Y-14850689D01*
X21396037Y-14839820D01*
X21335344Y-14792227D01*
X21306579Y-14720664D01*
X21305500Y-14702768D01*
X21305500Y-14149000D01*
X21295091Y-14069932D01*
X21275129Y-13995432D01*
X21259508Y-13951102D01*
X21196059Y-13858479D01*
X21141521Y-13803941D01*
X21105828Y-13773361D01*
X21004568Y-13724871D01*
X20997914Y-13723088D01*
X20934783Y-13706172D01*
X20934778Y-13706171D01*
X20930068Y-13704909D01*
X20925232Y-13704272D01*
X20925225Y-13704271D01*
X20884392Y-13698896D01*
X20851000Y-13694500D01*
X14954500Y-13694500D01*
X14880000Y-13674538D01*
X14825462Y-13620000D01*
X14805500Y-13545500D01*
X14805500Y-12853903D01*
X16305513Y-12853903D01*
X16308498Y-12859073D01*
X16487727Y-12963808D01*
X16498724Y-12969076D01*
X16702353Y-13046834D01*
X16714071Y-13050239D01*
X16927676Y-13093697D01*
X16939775Y-13095140D01*
X17157610Y-13103128D01*
X17169799Y-13102574D01*
X17386000Y-13074878D01*
X17397941Y-13072340D01*
X17606717Y-13009703D01*
X17618071Y-13005254D01*
X17813828Y-12909354D01*
X17824293Y-12903116D01*
X17881439Y-12862353D01*
X17891627Y-12849995D01*
X17888752Y-12842305D01*
X17113871Y-12067424D01*
X17100000Y-12059416D01*
X17086129Y-12067424D01*
X16313521Y-12840032D01*
X16305513Y-12853903D01*
X14805500Y-12853903D01*
X14805500Y-11671777D01*
X15695973Y-11671777D01*
X15708521Y-11889409D01*
X15710216Y-11901470D01*
X15758143Y-12114136D01*
X15761783Y-12125750D01*
X15843797Y-12327728D01*
X15849291Y-12338604D01*
X15937282Y-12482192D01*
X15948899Y-12493216D01*
X15955055Y-12491392D01*
X16732576Y-11713871D01*
X16740584Y-11700000D01*
X17459416Y-11700000D01*
X17467424Y-11713871D01*
X18237145Y-12483592D01*
X18251016Y-12491600D01*
X18258216Y-12487444D01*
X18300576Y-12428494D01*
X18306859Y-12418037D01*
X18403438Y-12222624D01*
X18407926Y-12211290D01*
X18471295Y-12002719D01*
X18473870Y-11990806D01*
X18502604Y-11772554D01*
X18503218Y-11764668D01*
X18504701Y-11703957D01*
X18504473Y-11696051D01*
X18486436Y-11476649D01*
X18484447Y-11464635D01*
X18431341Y-11253215D01*
X18427412Y-11241672D01*
X18340492Y-11041772D01*
X18334728Y-11031023D01*
X18262030Y-10918649D01*
X18250147Y-10907911D01*
X18243493Y-10910060D01*
X17467424Y-11686129D01*
X17459416Y-11700000D01*
X16740584Y-11700000D01*
X16732576Y-11686129D01*
X15962977Y-10916530D01*
X15949106Y-10908522D01*
X15942508Y-10912331D01*
X15881980Y-11001061D01*
X15875962Y-11011654D01*
X15784182Y-11209379D01*
X15779973Y-11220820D01*
X15721718Y-11430877D01*
X15719435Y-11442847D01*
X15696270Y-11659601D01*
X15695973Y-11671777D01*
X14805500Y-11671777D01*
X14805500Y-10549231D01*
X16307762Y-10549231D01*
X16311109Y-10557556D01*
X17086129Y-11332576D01*
X17100000Y-11340584D01*
X17113871Y-11332576D01*
X17885395Y-10561052D01*
X17893403Y-10547181D01*
X17888490Y-10538670D01*
X17882205Y-10533706D01*
X17872045Y-10526956D01*
X17681215Y-10421612D01*
X17670095Y-10416614D01*
X17464608Y-10343847D01*
X17452834Y-10340736D01*
X17238227Y-10302510D01*
X17226086Y-10301362D01*
X17008116Y-10298699D01*
X16995968Y-10299548D01*
X16780478Y-10332522D01*
X16768635Y-10335344D01*
X16561427Y-10403070D01*
X16550196Y-10407791D01*
X16356841Y-10508446D01*
X16346526Y-10514941D01*
X16317644Y-10536628D01*
X16307762Y-10549231D01*
X14805500Y-10549231D01*
X14805500Y-10149000D01*
X14796577Y-10081218D01*
X14795729Y-10074775D01*
X14795728Y-10074768D01*
X14795091Y-10069932D01*
X14775129Y-9995432D01*
X14759508Y-9951102D01*
X14696059Y-9858479D01*
X14641521Y-9803941D01*
X14605828Y-9773361D01*
X14504568Y-9724871D01*
X14497914Y-9723088D01*
X14434783Y-9706172D01*
X14434778Y-9706171D01*
X14430068Y-9704909D01*
X14425232Y-9704272D01*
X14425225Y-9704271D01*
X14384392Y-9698896D01*
X14351000Y-9694500D01*
X3149000Y-9694500D01*
X3115608Y-9698896D01*
X3074775Y-9704271D01*
X3074768Y-9704272D01*
X3069932Y-9704909D01*
X3065222Y-9706171D01*
X3065217Y-9706172D01*
X3031156Y-9715299D01*
X2995432Y-9724871D01*
X2992725Y-9725825D01*
X2992715Y-9725828D01*
X2977599Y-9731155D01*
X2951102Y-9740492D01*
X2943044Y-9746012D01*
X2864157Y-9800051D01*
X2864154Y-9800053D01*
X2858479Y-9803941D01*
X2803941Y-9858479D01*
X2773361Y-9894172D01*
X2724871Y-9995432D01*
X2723088Y-10002085D01*
X2723088Y-10002086D01*
X2710116Y-10050500D01*
X2704909Y-10069932D01*
X2704272Y-10074768D01*
X2704271Y-10074775D01*
X2703423Y-10081218D01*
X2694500Y-10149000D01*
X2694500Y-14938282D01*
X2697114Y-14978157D01*
X2702191Y-15016721D01*
X2704542Y-15023648D01*
X2704543Y-15023651D01*
X2720253Y-15069932D01*
X2740506Y-15129596D01*
X2779070Y-15196391D01*
X2827620Y-15259662D01*
X4306451Y-16738493D01*
X4345015Y-16805288D01*
X4345015Y-16882416D01*
X4306451Y-16949211D01*
X4282787Y-16968459D01*
X4202084Y-17021370D01*
X4191419Y-17033319D01*
X4193655Y-17040102D01*
X6554670Y-19401117D01*
X6568541Y-19409125D01*
X6574540Y-19405662D01*
X6630771Y-19318241D01*
X6687863Y-19266382D01*
X6763235Y-19250018D01*
X6836691Y-19273531D01*
X6861445Y-19293487D01*
X8240338Y-20672380D01*
X8242166Y-20673983D01*
X8268558Y-20697129D01*
X8268569Y-20697138D01*
X8270382Y-20698728D01*
X8301241Y-20722407D01*
X8408150Y-20775129D01*
X8436189Y-20782642D01*
X8477935Y-20793828D01*
X8477940Y-20793829D01*
X8482650Y-20795091D01*
X8487486Y-20795728D01*
X8487493Y-20795729D01*
X8528326Y-20801104D01*
X8561718Y-20805500D01*
X11951000Y-20805500D01*
X12025500Y-20825462D01*
X12080038Y-20880000D01*
X12100000Y-20954500D01*
X12100000Y-21430384D01*
X12104145Y-21445855D01*
X12119616Y-21450000D01*
X13501000Y-21450000D01*
X13575500Y-21469962D01*
X13630038Y-21524500D01*
X13650000Y-21599000D01*
X13650000Y-23330383D01*
X13654145Y-23345854D01*
X13659181Y-23347203D01*
X13725976Y-23385766D01*
X13764541Y-23452561D01*
X13764541Y-23529689D01*
X13725978Y-23596484D01*
X13710704Y-23609808D01*
X13633015Y-23668778D01*
X13633011Y-23668782D01*
X13624922Y-23674922D01*
X13537872Y-23789605D01*
X13484871Y-23923472D01*
X13474500Y-24009171D01*
X13474501Y-24590828D01*
X13484871Y-24676528D01*
X13488395Y-24685428D01*
X13488395Y-24685429D01*
X13496704Y-24706416D01*
X13537872Y-24810395D01*
X13624922Y-24925078D01*
X13739605Y-25012128D01*
X13873472Y-25065129D01*
X13918400Y-25070566D01*
X13989963Y-25099334D01*
X14037553Y-25160029D01*
X14049500Y-25218487D01*
X14049500Y-26764428D01*
X14048467Y-26781941D01*
X14044636Y-26814310D01*
X14046637Y-26825266D01*
X14046637Y-26825269D01*
X14055111Y-26871668D01*
X14055879Y-26876284D01*
X14064551Y-26933962D01*
X14067679Y-26940475D01*
X14068975Y-26947573D01*
X14092113Y-26992115D01*
X14095843Y-26999296D01*
X14097926Y-27003465D01*
X14123191Y-27056079D01*
X14128094Y-27061383D01*
X14131421Y-27067788D01*
X14135725Y-27072828D01*
X14172657Y-27109760D01*
X14176711Y-27113977D01*
X14215146Y-27155556D01*
X14221754Y-27159394D01*
X14226902Y-27164005D01*
X14256291Y-27193394D01*
X14267944Y-27206507D01*
X14288128Y-27232110D01*
X14297290Y-27238442D01*
X14297292Y-27238444D01*
X14336090Y-27265259D01*
X14339898Y-27267980D01*
X14377857Y-27296017D01*
X14386816Y-27302634D01*
X14393632Y-27305027D01*
X14399569Y-27309131D01*
X14445432Y-27323636D01*
X14510442Y-27365132D01*
X14545996Y-27433577D01*
X14549500Y-27465699D01*
X14549500Y-27510590D01*
X14560365Y-27584396D01*
X14565471Y-27594797D01*
X14568905Y-27605847D01*
X14564953Y-27607075D01*
X14575244Y-27661045D01*
X14566321Y-27694078D01*
X14568667Y-27694803D01*
X14565252Y-27705852D01*
X14560174Y-27716241D01*
X14549500Y-27789410D01*
X14549500Y-28010590D01*
X14560365Y-28084396D01*
X14615459Y-28196610D01*
X14624174Y-28205310D01*
X14624175Y-28205311D01*
X14659695Y-28240769D01*
X14703931Y-28284927D01*
X14816241Y-28339826D01*
X14889410Y-28350500D01*
X15175500Y-28350500D01*
X15250000Y-28370462D01*
X15304538Y-28425000D01*
X15324500Y-28499500D01*
X15324500Y-28687421D01*
X15304538Y-28761921D01*
X15265585Y-28806104D01*
X15183014Y-28868779D01*
X15183011Y-28868782D01*
X15174922Y-28874922D01*
X15170242Y-28881087D01*
X15104544Y-28919018D01*
X15027416Y-28919018D01*
X14960621Y-28880454D01*
X14948246Y-28866418D01*
X14941140Y-28857257D01*
X14842741Y-28758858D01*
X14828041Y-28747455D01*
X14708254Y-28676614D01*
X14691194Y-28669231D01*
X14555852Y-28629911D01*
X14540967Y-28627192D01*
X14516014Y-28625228D01*
X14510196Y-28625000D01*
X14494616Y-28625000D01*
X14479145Y-28629145D01*
X14475000Y-28644616D01*
X14475000Y-30355384D01*
X14479145Y-30370855D01*
X14494616Y-30375000D01*
X14510196Y-30375000D01*
X14516014Y-30374772D01*
X14540967Y-30372808D01*
X14555852Y-30370089D01*
X14691194Y-30330769D01*
X14708254Y-30323386D01*
X14828041Y-30252545D01*
X14842741Y-30241142D01*
X14941140Y-30142743D01*
X14948246Y-30133582D01*
X15009681Y-30086951D01*
X15086201Y-30077283D01*
X15157303Y-30107171D01*
X15169477Y-30117904D01*
X15174922Y-30125078D01*
X15289605Y-30212128D01*
X15423472Y-30265129D01*
X15509171Y-30275500D01*
X15774940Y-30275500D01*
X16040828Y-30275499D01*
X16045282Y-30274960D01*
X16045283Y-30274960D01*
X16117024Y-30266279D01*
X16126528Y-30265129D01*
X16260395Y-30212128D01*
X16375078Y-30125078D01*
X16462128Y-30010395D01*
X16515129Y-29876528D01*
X16525500Y-29790829D01*
X16525499Y-29209172D01*
X16515129Y-29123472D01*
X16462128Y-28989605D01*
X16375078Y-28874922D01*
X16366989Y-28868782D01*
X16366986Y-28868779D01*
X16284415Y-28806104D01*
X16237142Y-28745161D01*
X16225500Y-28687421D01*
X16225500Y-28317242D01*
X16245462Y-28242742D01*
X16269048Y-28211976D01*
X16276227Y-28204784D01*
X16284927Y-28196069D01*
X16316083Y-28132332D01*
X16366735Y-28074167D01*
X16439683Y-28049121D01*
X16515381Y-28063904D01*
X16555305Y-28092408D01*
X16956291Y-28493394D01*
X16967944Y-28506507D01*
X16988128Y-28532110D01*
X16997284Y-28538438D01*
X16997287Y-28538441D01*
X17036115Y-28565277D01*
X17039889Y-28567973D01*
X17086817Y-28602634D01*
X17093631Y-28605027D01*
X17099569Y-28609131D01*
X17149746Y-28625000D01*
X17155150Y-28626709D01*
X17159585Y-28628189D01*
X17214631Y-28647520D01*
X17221848Y-28647804D01*
X17228042Y-28649762D01*
X17228045Y-28649764D01*
X17228723Y-28649978D01*
X17228691Y-28650079D01*
X17294290Y-28682110D01*
X17315717Y-28705158D01*
X17376036Y-28785640D01*
X17404742Y-28857227D01*
X17393809Y-28933577D01*
X17376037Y-28964359D01*
X17306474Y-29057176D01*
X17256149Y-29191420D01*
X17255140Y-29200705D01*
X17255140Y-29200706D01*
X17254220Y-29209172D01*
X17249500Y-29252623D01*
X17249501Y-29747376D01*
X17256149Y-29808580D01*
X17306474Y-29942824D01*
X17312840Y-29951318D01*
X17377053Y-30036996D01*
X17392454Y-30057546D01*
X17400948Y-30063912D01*
X17409718Y-30070485D01*
X17507176Y-30143526D01*
X17641420Y-30193851D01*
X17650705Y-30194860D01*
X17650706Y-30194860D01*
X17669925Y-30196948D01*
X17702623Y-30200500D01*
X17706662Y-30200500D01*
X18300888Y-30200499D01*
X18897376Y-30200499D01*
X18927178Y-30197262D01*
X18949294Y-30194860D01*
X18949297Y-30194859D01*
X18958580Y-30193851D01*
X19092824Y-30143526D01*
X19190282Y-30070485D01*
X19199052Y-30063912D01*
X19207546Y-30057546D01*
X19243075Y-30010140D01*
X19303727Y-29962498D01*
X19362305Y-29950500D01*
X19432681Y-29950500D01*
X19444368Y-29950959D01*
X19453404Y-29951670D01*
X19464255Y-29954185D01*
X19466825Y-29954003D01*
X19534892Y-29978105D01*
X19584985Y-30036752D01*
X19599501Y-30100902D01*
X19599501Y-30187836D01*
X19599774Y-30192589D01*
X19640173Y-30367577D01*
X19643798Y-30375075D01*
X19643798Y-30375076D01*
X19679648Y-30449236D01*
X19694500Y-30514085D01*
X19694500Y-30600500D01*
X19674538Y-30675000D01*
X19620000Y-30729538D01*
X19545500Y-30749500D01*
X10589743Y-30749500D01*
X10515243Y-30729538D01*
X10484384Y-30705859D01*
X10398382Y-30619857D01*
X10359818Y-30553062D01*
X10359818Y-30475934D01*
X10398382Y-30409139D01*
X10465177Y-30370575D01*
X10523189Y-30366773D01*
X10555552Y-30371034D01*
X10571431Y-30368943D01*
X10575000Y-30360327D01*
X10575000Y-30353977D01*
X11075000Y-30353977D01*
X11079145Y-30369448D01*
X11088154Y-30371861D01*
X11171954Y-30360830D01*
X11190652Y-30355819D01*
X11318562Y-30302838D01*
X11335337Y-30293153D01*
X11445179Y-30208869D01*
X11458870Y-30195177D01*
X11543153Y-30085337D01*
X11552837Y-30068565D01*
X11605818Y-29940654D01*
X11610831Y-29921948D01*
X11624363Y-29819164D01*
X11624951Y-29810196D01*
X13375000Y-29810196D01*
X13375228Y-29816014D01*
X13377192Y-29840967D01*
X13379911Y-29855852D01*
X13419231Y-29991194D01*
X13426614Y-30008254D01*
X13497455Y-30128041D01*
X13508858Y-30142741D01*
X13607259Y-30241142D01*
X13621959Y-30252545D01*
X13741746Y-30323386D01*
X13758806Y-30330769D01*
X13894148Y-30370089D01*
X13909033Y-30372808D01*
X13933986Y-30374772D01*
X13939804Y-30375000D01*
X13955384Y-30375000D01*
X13970855Y-30370855D01*
X13975000Y-30355384D01*
X13975000Y-29769616D01*
X13970855Y-29754145D01*
X13955384Y-29750000D01*
X13394616Y-29750000D01*
X13379145Y-29754145D01*
X13375000Y-29769616D01*
X13375000Y-29810196D01*
X11624951Y-29810196D01*
X11625000Y-29809442D01*
X11625000Y-29769616D01*
X11620855Y-29754145D01*
X11605384Y-29750000D01*
X11094616Y-29750000D01*
X11079145Y-29754145D01*
X11075000Y-29769616D01*
X11075000Y-30353977D01*
X10575000Y-30353977D01*
X10575000Y-29399000D01*
X10594962Y-29324500D01*
X10649500Y-29269962D01*
X10724000Y-29250000D01*
X11605383Y-29250000D01*
X11620854Y-29245855D01*
X11624999Y-29230384D01*
X13375000Y-29230384D01*
X13379145Y-29245855D01*
X13394616Y-29250000D01*
X13955384Y-29250000D01*
X13970855Y-29245855D01*
X13975000Y-29230384D01*
X13975000Y-28644616D01*
X13970855Y-28629145D01*
X13955384Y-28625000D01*
X13939804Y-28625000D01*
X13933986Y-28625228D01*
X13909033Y-28627192D01*
X13894148Y-28629911D01*
X13758806Y-28669231D01*
X13741746Y-28676614D01*
X13621959Y-28747455D01*
X13607259Y-28758858D01*
X13508858Y-28857259D01*
X13497455Y-28871959D01*
X13426614Y-28991746D01*
X13419231Y-29008806D01*
X13379911Y-29144148D01*
X13377192Y-29159033D01*
X13375228Y-29183986D01*
X13375000Y-29189804D01*
X13375000Y-29230384D01*
X11624999Y-29230384D01*
X11624999Y-29190560D01*
X11624361Y-29180834D01*
X11610831Y-29078053D01*
X11605818Y-29059345D01*
X11552838Y-28931438D01*
X11543153Y-28914663D01*
X11458869Y-28804821D01*
X11445177Y-28791130D01*
X11335337Y-28706847D01*
X11318565Y-28697163D01*
X11190653Y-28644181D01*
X11187824Y-28643423D01*
X11185287Y-28641958D01*
X11181631Y-28640444D01*
X11181830Y-28639963D01*
X11121029Y-28604860D01*
X11082464Y-28538065D01*
X11082464Y-28460937D01*
X11121027Y-28394142D01*
X11187822Y-28355577D01*
X11226387Y-28350500D01*
X11710590Y-28350500D01*
X11759720Y-28343268D01*
X11772937Y-28341322D01*
X11772938Y-28341322D01*
X11784396Y-28339635D01*
X11896610Y-28284541D01*
X11906635Y-28274499D01*
X11976226Y-28204785D01*
X11976227Y-28204784D01*
X11984927Y-28196069D01*
X12039826Y-28083759D01*
X12050500Y-28010590D01*
X12050500Y-27789410D01*
X12039635Y-27715604D01*
X12034529Y-27705203D01*
X12031095Y-27694153D01*
X12035047Y-27692925D01*
X12024756Y-27638955D01*
X12033679Y-27605922D01*
X12031333Y-27605197D01*
X12034748Y-27594148D01*
X12039826Y-27583759D01*
X12050500Y-27510590D01*
X12050500Y-27289410D01*
X12039635Y-27215604D01*
X12034529Y-27205203D01*
X12031095Y-27194153D01*
X12035047Y-27192925D01*
X12024756Y-27138955D01*
X12033679Y-27105922D01*
X12031333Y-27105197D01*
X12034748Y-27094148D01*
X12039826Y-27083759D01*
X12050500Y-27010590D01*
X12050500Y-26789410D01*
X12039635Y-26715604D01*
X12034529Y-26705203D01*
X12031095Y-26694153D01*
X12035047Y-26692925D01*
X12024756Y-26638955D01*
X12033679Y-26605922D01*
X12031333Y-26605197D01*
X12034748Y-26594148D01*
X12039826Y-26583759D01*
X12050500Y-26510590D01*
X12050500Y-26315706D01*
X12070462Y-26241206D01*
X12080269Y-26226347D01*
X12089566Y-26213943D01*
X12099653Y-26195518D01*
X12140411Y-26086796D01*
X12144580Y-26069257D01*
X12142168Y-26053673D01*
X12132697Y-26050000D01*
X11989248Y-26050000D01*
X11914748Y-26030038D01*
X11904375Y-26023364D01*
X11896069Y-26015073D01*
X11895288Y-26014691D01*
X11850851Y-25960769D01*
X11838133Y-25884697D01*
X11865155Y-25812457D01*
X11924676Y-25763406D01*
X11986445Y-25750000D01*
X12127121Y-25750000D01*
X12142592Y-25745855D01*
X12145221Y-25736043D01*
X12144699Y-25731243D01*
X12140411Y-25713204D01*
X12099654Y-25604484D01*
X12089563Y-25586054D01*
X12020698Y-25494167D01*
X12005833Y-25479302D01*
X11913946Y-25410437D01*
X11895516Y-25400346D01*
X11786790Y-25359587D01*
X11768764Y-25355301D01*
X11723985Y-25350437D01*
X11715927Y-25350000D01*
X11319616Y-25350000D01*
X11304145Y-25354145D01*
X11300000Y-25369616D01*
X11300000Y-25730385D01*
X11308454Y-25761937D01*
X11308454Y-25839065D01*
X11269889Y-25905860D01*
X11203094Y-25944423D01*
X11164531Y-25949500D01*
X11149000Y-25949500D01*
X11074500Y-25929538D01*
X11019962Y-25875000D01*
X11000000Y-25800500D01*
X11000000Y-25369616D01*
X10995855Y-25354145D01*
X10980384Y-25350000D01*
X10599500Y-25350000D01*
X10525000Y-25330038D01*
X10470462Y-25275500D01*
X10450500Y-25201000D01*
X10450500Y-24974499D01*
X10470462Y-24899999D01*
X10525000Y-24845461D01*
X10599500Y-24825499D01*
X10722376Y-24825499D01*
X10752178Y-24822262D01*
X10774294Y-24819860D01*
X10774297Y-24819859D01*
X10783580Y-24818851D01*
X10917824Y-24768526D01*
X11032546Y-24682546D01*
X11118526Y-24567824D01*
X11168851Y-24433580D01*
X11175500Y-24372377D01*
X11175499Y-23877624D01*
X11168851Y-23816420D01*
X11130673Y-23714578D01*
X11122252Y-23692115D01*
X11122252Y-23692114D01*
X11118526Y-23682176D01*
X11032546Y-23567454D01*
X11019327Y-23557547D01*
X10926317Y-23487839D01*
X10926316Y-23487838D01*
X10917824Y-23481474D01*
X10917061Y-23481188D01*
X10865180Y-23431609D01*
X10843532Y-23357581D01*
X10861799Y-23282648D01*
X10915086Y-23226887D01*
X10935475Y-23216543D01*
X10968562Y-23202838D01*
X10985337Y-23193153D01*
X11095179Y-23108869D01*
X11108870Y-23095177D01*
X11193153Y-22985337D01*
X11198761Y-22975624D01*
X12100001Y-22975624D01*
X12100917Y-22987264D01*
X12113001Y-23063565D01*
X12120159Y-23085597D01*
X12167037Y-23177600D01*
X12180648Y-23196334D01*
X12253666Y-23269352D01*
X12272400Y-23282963D01*
X12364406Y-23329842D01*
X12386431Y-23336999D01*
X12462739Y-23349084D01*
X12474374Y-23350000D01*
X13130384Y-23350000D01*
X13145855Y-23345855D01*
X13150000Y-23330384D01*
X13150000Y-21969616D01*
X13145855Y-21954145D01*
X13130384Y-21950000D01*
X12119617Y-21950000D01*
X12104146Y-21954145D01*
X12100001Y-21969616D01*
X12100001Y-22975624D01*
X11198761Y-22975624D01*
X11202837Y-22968565D01*
X11255819Y-22840653D01*
X11260831Y-22821948D01*
X11271034Y-22744448D01*
X11268943Y-22728569D01*
X11260327Y-22725000D01*
X8334616Y-22725000D01*
X8317628Y-22729552D01*
X8315821Y-22731359D01*
X8249026Y-22769923D01*
X8210462Y-22775000D01*
X6544616Y-22775000D01*
X6529145Y-22779145D01*
X6525000Y-22794616D01*
X6525000Y-22810196D01*
X6525228Y-22816014D01*
X6527192Y-22840967D01*
X6529911Y-22855852D01*
X6569231Y-22991194D01*
X6576614Y-23008254D01*
X6647455Y-23128041D01*
X6658858Y-23142741D01*
X6757257Y-23241140D01*
X6766418Y-23248246D01*
X6813049Y-23309681D01*
X6822717Y-23386201D01*
X6792829Y-23457303D01*
X6782096Y-23469477D01*
X6774922Y-23474922D01*
X6687872Y-23589605D01*
X6634871Y-23723472D01*
X6624500Y-23809171D01*
X6624501Y-24340828D01*
X6634871Y-24426528D01*
X6687872Y-24560395D01*
X6714354Y-24595283D01*
X6755128Y-24649000D01*
X6774922Y-24675078D01*
X6801168Y-24695000D01*
X6803231Y-24696566D01*
X6850503Y-24757509D01*
X6860765Y-24795019D01*
X6864794Y-24824432D01*
X6868828Y-24833754D01*
X6869951Y-24836349D01*
X6878268Y-24861499D01*
X6881232Y-24874136D01*
X6886125Y-24883036D01*
X6901670Y-24911313D01*
X6907846Y-24923919D01*
X6911005Y-24931218D01*
X6924695Y-24962855D01*
X6931085Y-24970746D01*
X6932867Y-24972947D01*
X6947634Y-24994924D01*
X6953893Y-25006308D01*
X6960897Y-25014422D01*
X6984584Y-25038109D01*
X6995020Y-25049699D01*
X7011918Y-25070566D01*
X7019614Y-25080070D01*
X7033376Y-25089850D01*
X7052416Y-25105941D01*
X7376014Y-25429538D01*
X7680860Y-25734384D01*
X7719424Y-25801179D01*
X7724501Y-25839743D01*
X7724501Y-26022376D01*
X7725700Y-26033412D01*
X7729445Y-26067890D01*
X7731149Y-26083580D01*
X7781474Y-26217824D01*
X7867454Y-26332546D01*
X7982176Y-26418526D01*
X7992114Y-26422252D01*
X7992115Y-26422252D01*
X8094093Y-26460481D01*
X8156845Y-26505324D01*
X8188769Y-26575536D01*
X8181310Y-26652302D01*
X8136467Y-26715054D01*
X8094094Y-26739519D01*
X8037761Y-26760636D01*
X8004213Y-26773213D01*
X7982176Y-26781474D01*
X7973682Y-26787840D01*
X7882632Y-26856079D01*
X7867454Y-26867454D01*
X7781474Y-26982176D01*
X7731149Y-27116420D01*
X7724500Y-27177623D01*
X7724501Y-27672376D01*
X7726937Y-27694803D01*
X7729266Y-27716241D01*
X7731149Y-27733580D01*
X7781474Y-27867824D01*
X7867454Y-27982546D01*
X7982176Y-28068526D01*
X7992114Y-28072252D01*
X7992115Y-28072252D01*
X8022811Y-28083759D01*
X8116420Y-28118851D01*
X8125705Y-28119860D01*
X8125706Y-28119860D01*
X8144925Y-28121948D01*
X8177623Y-28125500D01*
X8189857Y-28125500D01*
X8575501Y-28125499D01*
X8650000Y-28145461D01*
X8704538Y-28199999D01*
X8724500Y-28274499D01*
X8724500Y-28312571D01*
X8724385Y-28318420D01*
X8722162Y-28374994D01*
X8724120Y-28382379D01*
X8724500Y-28389282D01*
X8724500Y-28712695D01*
X8704538Y-28787195D01*
X8664860Y-28831925D01*
X8617454Y-28867454D01*
X8531474Y-28982176D01*
X8481149Y-29116420D01*
X8474500Y-29177623D01*
X8474501Y-29822376D01*
X8477738Y-29852178D01*
X8479352Y-29867032D01*
X8481149Y-29883580D01*
X8531474Y-30017824D01*
X8537840Y-30026318D01*
X8593458Y-30100529D01*
X8622163Y-30172117D01*
X8623096Y-30196126D01*
X8622215Y-30217141D01*
X8622215Y-30217145D01*
X8621790Y-30227294D01*
X8624110Y-30237183D01*
X8624110Y-30237188D01*
X8631479Y-30268604D01*
X8634037Y-30282406D01*
X8637348Y-30306573D01*
X8639794Y-30324432D01*
X8643828Y-30333754D01*
X8644951Y-30336349D01*
X8653268Y-30361499D01*
X8656232Y-30374136D01*
X8669351Y-30398000D01*
X8676670Y-30411313D01*
X8682846Y-30423919D01*
X8693802Y-30449236D01*
X8699695Y-30462855D01*
X8706085Y-30470746D01*
X8707867Y-30472947D01*
X8722634Y-30494924D01*
X8728893Y-30506308D01*
X8735897Y-30514422D01*
X8759584Y-30538109D01*
X8770020Y-30549699D01*
X8794614Y-30580070D01*
X8808376Y-30589850D01*
X8827416Y-30605941D01*
X9666616Y-31445141D01*
X9705180Y-31511936D01*
X9705180Y-31589064D01*
X9666616Y-31655859D01*
X9599821Y-31694423D01*
X9561257Y-31699500D01*
X1039326Y-31699500D01*
X1013452Y-31697236D01*
X1000000Y-31694864D01*
X987163Y-31697127D01*
X983235Y-31697127D01*
X968634Y-31696410D01*
X878135Y-31687497D01*
X849487Y-31681798D01*
X765862Y-31656431D01*
X746355Y-31650513D01*
X719375Y-31639339D01*
X624324Y-31588532D01*
X600040Y-31572306D01*
X516724Y-31503931D01*
X496069Y-31483276D01*
X427694Y-31399960D01*
X411467Y-31375675D01*
X360661Y-31280625D01*
X349486Y-31253644D01*
X318202Y-31150513D01*
X312503Y-31121865D01*
X303590Y-31031366D01*
X302873Y-31016765D01*
X302873Y-31012837D01*
X305136Y-31000000D01*
X302764Y-30986548D01*
X300500Y-30960674D01*
X300500Y-22255384D01*
X6525000Y-22255384D01*
X6529145Y-22270855D01*
X6544616Y-22275000D01*
X7130384Y-22275000D01*
X7145855Y-22270855D01*
X7150000Y-22255384D01*
X7650000Y-22255384D01*
X7654145Y-22270855D01*
X7669616Y-22275000D01*
X7965384Y-22275000D01*
X7982372Y-22270448D01*
X7984179Y-22268641D01*
X8050974Y-22230077D01*
X8089538Y-22225000D01*
X8630384Y-22225000D01*
X8645855Y-22220855D01*
X8650000Y-22205384D01*
X9150000Y-22205384D01*
X9154145Y-22220855D01*
X9169616Y-22225000D01*
X10130384Y-22225000D01*
X10145855Y-22220855D01*
X10150000Y-22205384D01*
X10650000Y-22205384D01*
X10654145Y-22220855D01*
X10669616Y-22225000D01*
X11253977Y-22225000D01*
X11269448Y-22220855D01*
X11271861Y-22211846D01*
X11260830Y-22128046D01*
X11255819Y-22109348D01*
X11202838Y-21981438D01*
X11193153Y-21964663D01*
X11108869Y-21854821D01*
X11095177Y-21841130D01*
X10985337Y-21756847D01*
X10968565Y-21747163D01*
X10840654Y-21694182D01*
X10821948Y-21689169D01*
X10719164Y-21675637D01*
X10709442Y-21675000D01*
X10669616Y-21675000D01*
X10654145Y-21679145D01*
X10650000Y-21694616D01*
X10650000Y-22205384D01*
X10150000Y-22205384D01*
X10150000Y-21694617D01*
X10145855Y-21679146D01*
X10130384Y-21675001D01*
X10090560Y-21675001D01*
X10080834Y-21675639D01*
X9978053Y-21689169D01*
X9959345Y-21694182D01*
X9831438Y-21747162D01*
X9814658Y-21756849D01*
X9740704Y-21813596D01*
X9669447Y-21843111D01*
X9592979Y-21833044D01*
X9559294Y-21813596D01*
X9485337Y-21756847D01*
X9468565Y-21747163D01*
X9340654Y-21694182D01*
X9321948Y-21689169D01*
X9219164Y-21675637D01*
X9209442Y-21675000D01*
X9169616Y-21675000D01*
X9154145Y-21679145D01*
X9150000Y-21694616D01*
X9150000Y-22205384D01*
X8650000Y-22205384D01*
X8650000Y-21694617D01*
X8645855Y-21679146D01*
X8630384Y-21675001D01*
X8590560Y-21675001D01*
X8580834Y-21675639D01*
X8478053Y-21689169D01*
X8459345Y-21694182D01*
X8331438Y-21747162D01*
X8314658Y-21756849D01*
X8235039Y-21817943D01*
X8163782Y-21847458D01*
X8087314Y-21837391D01*
X8051191Y-21813255D01*
X8050146Y-21814602D01*
X8028041Y-21797455D01*
X7908254Y-21726614D01*
X7891194Y-21719231D01*
X7755852Y-21679911D01*
X7740967Y-21677192D01*
X7716014Y-21675228D01*
X7710196Y-21675000D01*
X7669616Y-21675000D01*
X7654145Y-21679145D01*
X7650000Y-21694616D01*
X7650000Y-22255384D01*
X7150000Y-22255384D01*
X7150000Y-21694616D01*
X7145855Y-21679145D01*
X7130384Y-21675000D01*
X7089804Y-21675000D01*
X7083986Y-21675228D01*
X7059033Y-21677192D01*
X7044148Y-21679911D01*
X6908806Y-21719231D01*
X6891746Y-21726614D01*
X6771959Y-21797455D01*
X6757259Y-21808858D01*
X6658858Y-21907259D01*
X6647455Y-21921959D01*
X6576614Y-22041746D01*
X6569231Y-22058806D01*
X6529911Y-22194148D01*
X6527192Y-22209033D01*
X6525228Y-22233986D01*
X6525000Y-22239804D01*
X6525000Y-22255384D01*
X300500Y-22255384D01*
X300500Y-19765861D01*
X4193555Y-19765861D01*
X4197858Y-19773315D01*
X4292150Y-19842453D01*
X4301505Y-19848299D01*
X4515329Y-19960798D01*
X4525451Y-19965199D01*
X4753558Y-20044856D01*
X4764200Y-20047708D01*
X5001586Y-20092778D01*
X5012537Y-20094026D01*
X5253971Y-20103512D01*
X5264994Y-20103127D01*
X5505166Y-20076824D01*
X5516018Y-20074813D01*
X5749676Y-20013295D01*
X5760094Y-20009708D01*
X5982093Y-19914330D01*
X5991880Y-19909235D01*
X6197331Y-19782097D01*
X6200919Y-19779490D01*
X6208972Y-19767882D01*
X6204191Y-19757744D01*
X5213871Y-18767424D01*
X5200000Y-18759416D01*
X5186129Y-18767424D01*
X4201563Y-19751990D01*
X4193555Y-19765861D01*
X300500Y-19765861D01*
X300500Y-18360902D01*
X3496083Y-18360902D01*
X3507674Y-18602229D01*
X3509020Y-18613186D01*
X3556156Y-18850156D01*
X3559105Y-18860786D01*
X3640750Y-19088189D01*
X3645233Y-19098257D01*
X3759599Y-19311104D01*
X3765521Y-19320399D01*
X3822410Y-19396582D01*
X3834988Y-19406498D01*
X3843242Y-19403205D01*
X4832576Y-18413871D01*
X4840584Y-18400000D01*
X4832576Y-18386129D01*
X3846136Y-17399689D01*
X3832265Y-17391681D01*
X3822886Y-17397096D01*
X3815664Y-17405779D01*
X3809253Y-17414767D01*
X3683905Y-17621333D01*
X3678905Y-17631145D01*
X3585467Y-17853970D01*
X3581967Y-17864430D01*
X3522493Y-18098610D01*
X3520578Y-18109471D01*
X3496371Y-18349868D01*
X3496083Y-18360902D01*
X300500Y-18360902D01*
X300500Y-9325624D01*
X21050001Y-9325624D01*
X21050917Y-9337264D01*
X21063001Y-9413565D01*
X21070159Y-9435597D01*
X21117037Y-9527600D01*
X21130648Y-9546334D01*
X21203666Y-9619352D01*
X21222400Y-9632963D01*
X21314406Y-9679842D01*
X21336431Y-9686999D01*
X21412739Y-9699084D01*
X21424374Y-9700000D01*
X22430384Y-9700000D01*
X22445855Y-9695855D01*
X22450000Y-9680384D01*
X22450000Y-9680383D01*
X22950000Y-9680383D01*
X22954145Y-9695854D01*
X22969616Y-9699999D01*
X23975624Y-9699999D01*
X23987264Y-9699083D01*
X24063565Y-9686999D01*
X24085597Y-9679841D01*
X24177600Y-9632963D01*
X24196334Y-9619352D01*
X24269352Y-9546334D01*
X24282963Y-9527600D01*
X24329842Y-9435594D01*
X24336999Y-9413569D01*
X24349084Y-9337261D01*
X24350000Y-9325626D01*
X24350000Y-8669616D01*
X24345855Y-8654145D01*
X24330384Y-8650000D01*
X22969616Y-8650000D01*
X22954145Y-8654145D01*
X22950000Y-8669616D01*
X22950000Y-9680383D01*
X22450000Y-9680383D01*
X22450000Y-8669616D01*
X22445855Y-8654145D01*
X22430384Y-8650000D01*
X21069617Y-8650000D01*
X21054146Y-8654145D01*
X21050001Y-8669616D01*
X21050001Y-9325624D01*
X300500Y-9325624D01*
X300500Y-8130384D01*
X21050000Y-8130384D01*
X21054145Y-8145855D01*
X21069616Y-8150000D01*
X22430384Y-8150000D01*
X22445855Y-8145855D01*
X22450000Y-8130384D01*
X22950000Y-8130384D01*
X22954145Y-8145855D01*
X22969616Y-8150000D01*
X24330383Y-8150000D01*
X24345854Y-8145855D01*
X24349999Y-8130384D01*
X24349999Y-7474376D01*
X24349083Y-7462736D01*
X24336999Y-7386435D01*
X24329841Y-7364403D01*
X24282963Y-7272400D01*
X24269352Y-7253666D01*
X24196334Y-7180648D01*
X24177600Y-7167037D01*
X24085594Y-7120158D01*
X24063569Y-7113001D01*
X23987261Y-7100916D01*
X23975626Y-7100000D01*
X22969616Y-7100000D01*
X22954145Y-7104145D01*
X22950000Y-7119616D01*
X22950000Y-8130384D01*
X22450000Y-8130384D01*
X22450000Y-7119617D01*
X22445855Y-7104146D01*
X22430384Y-7100001D01*
X21424376Y-7100001D01*
X21412736Y-7100917D01*
X21336435Y-7113001D01*
X21314403Y-7120159D01*
X21222400Y-7167037D01*
X21203666Y-7180648D01*
X21130648Y-7253666D01*
X21117037Y-7272400D01*
X21070158Y-7364406D01*
X21063001Y-7386431D01*
X21050916Y-7462739D01*
X21050000Y-7474374D01*
X21050000Y-8130384D01*
X300500Y-8130384D01*
X300500Y-6165861D01*
X4693555Y-6165861D01*
X4697858Y-6173315D01*
X4792150Y-6242453D01*
X4801505Y-6248299D01*
X5015329Y-6360798D01*
X5025451Y-6365199D01*
X5253558Y-6444856D01*
X5264200Y-6447708D01*
X5501586Y-6492778D01*
X5512537Y-6494026D01*
X5753971Y-6503512D01*
X5764994Y-6503127D01*
X6005166Y-6476824D01*
X6016018Y-6474813D01*
X6249676Y-6413295D01*
X6260094Y-6409708D01*
X6482093Y-6314330D01*
X6491880Y-6309235D01*
X6697331Y-6182097D01*
X6700919Y-6179490D01*
X6708972Y-6167882D01*
X6708019Y-6165861D01*
X9693555Y-6165861D01*
X9697858Y-6173315D01*
X9792150Y-6242453D01*
X9801505Y-6248299D01*
X10015329Y-6360798D01*
X10025451Y-6365199D01*
X10253558Y-6444856D01*
X10264200Y-6447708D01*
X10501586Y-6492778D01*
X10512537Y-6494026D01*
X10753971Y-6503512D01*
X10764994Y-6503127D01*
X11005166Y-6476824D01*
X11016018Y-6474813D01*
X11249676Y-6413295D01*
X11260094Y-6409708D01*
X11482093Y-6314330D01*
X11491880Y-6309235D01*
X11697331Y-6182097D01*
X11700919Y-6179490D01*
X11708972Y-6167882D01*
X11708019Y-6165861D01*
X14693555Y-6165861D01*
X14697858Y-6173315D01*
X14792150Y-6242453D01*
X14801505Y-6248299D01*
X15015329Y-6360798D01*
X15025451Y-6365199D01*
X15253558Y-6444856D01*
X15264200Y-6447708D01*
X15501586Y-6492778D01*
X15512537Y-6494026D01*
X15753971Y-6503512D01*
X15764994Y-6503127D01*
X16005166Y-6476824D01*
X16016018Y-6474813D01*
X16249676Y-6413295D01*
X16260094Y-6409708D01*
X16482093Y-6314330D01*
X16491880Y-6309235D01*
X16697331Y-6182097D01*
X16700919Y-6179490D01*
X16708972Y-6167882D01*
X16704191Y-6157744D01*
X16672071Y-6125624D01*
X19000001Y-6125624D01*
X19000917Y-6137264D01*
X19013001Y-6213565D01*
X19020159Y-6235597D01*
X19067037Y-6327600D01*
X19080648Y-6346334D01*
X19153666Y-6419352D01*
X19172400Y-6432963D01*
X19264406Y-6479842D01*
X19286431Y-6486999D01*
X19362739Y-6499084D01*
X19374374Y-6500000D01*
X20430384Y-6500000D01*
X20445855Y-6495855D01*
X20450000Y-6480384D01*
X20450000Y-6480383D01*
X20950000Y-6480383D01*
X20954145Y-6495854D01*
X20969616Y-6499999D01*
X22025624Y-6499999D01*
X22037264Y-6499083D01*
X22113565Y-6486999D01*
X22135597Y-6479841D01*
X22227600Y-6432963D01*
X22246334Y-6419352D01*
X22319352Y-6346334D01*
X22332963Y-6327600D01*
X22379842Y-6235594D01*
X22386999Y-6213569D01*
X22399084Y-6137261D01*
X22400000Y-6125626D01*
X22400000Y-5069616D01*
X22395855Y-5054145D01*
X22380384Y-5050000D01*
X20969616Y-5050000D01*
X20954145Y-5054145D01*
X20950000Y-5069616D01*
X20950000Y-6480383D01*
X20450000Y-6480383D01*
X20450000Y-5069616D01*
X20445855Y-5054145D01*
X20430384Y-5050000D01*
X19019617Y-5050000D01*
X19004146Y-5054145D01*
X19000001Y-5069616D01*
X19000001Y-6125624D01*
X16672071Y-6125624D01*
X15713871Y-5167424D01*
X15700000Y-5159416D01*
X15686129Y-5167424D01*
X14701563Y-6151990D01*
X14693555Y-6165861D01*
X11708019Y-6165861D01*
X11704191Y-6157744D01*
X10713871Y-5167424D01*
X10700000Y-5159416D01*
X10686129Y-5167424D01*
X9701563Y-6151990D01*
X9693555Y-6165861D01*
X6708019Y-6165861D01*
X6704191Y-6157744D01*
X5713871Y-5167424D01*
X5700000Y-5159416D01*
X5686129Y-5167424D01*
X4701563Y-6151990D01*
X4693555Y-6165861D01*
X300500Y-6165861D01*
X300500Y-4760902D01*
X3996083Y-4760902D01*
X4007674Y-5002229D01*
X4009020Y-5013186D01*
X4056156Y-5250156D01*
X4059105Y-5260786D01*
X4140750Y-5488189D01*
X4145233Y-5498257D01*
X4259599Y-5711104D01*
X4265521Y-5720399D01*
X4322410Y-5796582D01*
X4334988Y-5806498D01*
X4343242Y-5803205D01*
X5332576Y-4813871D01*
X5340584Y-4800000D01*
X6059416Y-4800000D01*
X6067424Y-4813871D01*
X7054670Y-5801117D01*
X7068541Y-5809125D01*
X7074540Y-5805662D01*
X7195185Y-5618098D01*
X7200452Y-5608397D01*
X7299685Y-5388110D01*
X7303458Y-5377743D01*
X7369044Y-5145191D01*
X7371240Y-5134399D01*
X7401960Y-4892925D01*
X7402529Y-4885486D01*
X7404669Y-4803738D01*
X7404490Y-4796267D01*
X7401862Y-4760902D01*
X8996083Y-4760902D01*
X9007674Y-5002229D01*
X9009020Y-5013186D01*
X9056156Y-5250156D01*
X9059105Y-5260786D01*
X9140750Y-5488189D01*
X9145233Y-5498257D01*
X9259599Y-5711104D01*
X9265521Y-5720399D01*
X9322410Y-5796582D01*
X9334988Y-5806498D01*
X9343242Y-5803205D01*
X10332576Y-4813871D01*
X10340584Y-4800000D01*
X11059416Y-4800000D01*
X11067424Y-4813871D01*
X12054670Y-5801117D01*
X12068541Y-5809125D01*
X12074540Y-5805662D01*
X12195185Y-5618098D01*
X12200452Y-5608397D01*
X12299685Y-5388110D01*
X12303458Y-5377743D01*
X12369044Y-5145191D01*
X12371240Y-5134399D01*
X12401960Y-4892925D01*
X12402529Y-4885486D01*
X12404669Y-4803738D01*
X12404490Y-4796267D01*
X12401862Y-4760902D01*
X13996083Y-4760902D01*
X14007674Y-5002229D01*
X14009020Y-5013186D01*
X14056156Y-5250156D01*
X14059105Y-5260786D01*
X14140750Y-5488189D01*
X14145233Y-5498257D01*
X14259599Y-5711104D01*
X14265521Y-5720399D01*
X14322410Y-5796582D01*
X14334988Y-5806498D01*
X14343242Y-5803205D01*
X15332576Y-4813871D01*
X15340584Y-4800000D01*
X16059416Y-4800000D01*
X16067424Y-4813871D01*
X17054670Y-5801117D01*
X17068541Y-5809125D01*
X17074540Y-5805662D01*
X17195185Y-5618098D01*
X17200452Y-5608397D01*
X17299685Y-5388110D01*
X17303458Y-5377743D01*
X17369044Y-5145191D01*
X17371240Y-5134399D01*
X17401960Y-4892925D01*
X17402529Y-4885486D01*
X17404669Y-4803738D01*
X17404490Y-4796267D01*
X17386452Y-4553541D01*
X17384820Y-4542621D01*
X17382051Y-4530384D01*
X19000000Y-4530384D01*
X19004145Y-4545855D01*
X19019616Y-4550000D01*
X20430384Y-4550000D01*
X20445855Y-4545855D01*
X20450000Y-4530384D01*
X20950000Y-4530384D01*
X20954145Y-4545855D01*
X20969616Y-4550000D01*
X22380383Y-4550000D01*
X22395854Y-4545855D01*
X22399999Y-4530384D01*
X22399999Y-3474376D01*
X22399083Y-3462736D01*
X22386999Y-3386435D01*
X22379841Y-3364403D01*
X22332963Y-3272400D01*
X22319352Y-3253666D01*
X22246334Y-3180648D01*
X22227600Y-3167037D01*
X22135594Y-3120158D01*
X22113569Y-3113001D01*
X22037261Y-3100916D01*
X22025626Y-3100000D01*
X20969616Y-3100000D01*
X20954145Y-3104145D01*
X20950000Y-3119616D01*
X20950000Y-4530384D01*
X20450000Y-4530384D01*
X20450000Y-3119617D01*
X20445855Y-3104146D01*
X20430384Y-3100001D01*
X19374376Y-3100001D01*
X19362736Y-3100917D01*
X19286435Y-3113001D01*
X19264403Y-3120159D01*
X19172400Y-3167037D01*
X19153666Y-3180648D01*
X19080648Y-3253666D01*
X19067037Y-3272400D01*
X19020158Y-3364406D01*
X19013001Y-3386431D01*
X19000916Y-3462739D01*
X19000000Y-3474374D01*
X19000000Y-4530384D01*
X17382051Y-4530384D01*
X17331498Y-4306968D01*
X17328272Y-4296418D01*
X17240704Y-4071237D01*
X17235954Y-4061277D01*
X17116058Y-3851504D01*
X17109893Y-3842364D01*
X17078527Y-3802576D01*
X17065693Y-3792993D01*
X17056693Y-3796860D01*
X16067424Y-4786129D01*
X16059416Y-4800000D01*
X15340584Y-4800000D01*
X15332576Y-4786129D01*
X14346136Y-3799689D01*
X14332265Y-3791681D01*
X14322886Y-3797096D01*
X14315664Y-3805779D01*
X14309253Y-3814767D01*
X14183905Y-4021333D01*
X14178905Y-4031145D01*
X14085467Y-4253970D01*
X14081967Y-4264430D01*
X14022493Y-4498610D01*
X14020578Y-4509471D01*
X13996371Y-4749868D01*
X13996083Y-4760902D01*
X12401862Y-4760902D01*
X12386452Y-4553541D01*
X12384820Y-4542621D01*
X12331498Y-4306968D01*
X12328272Y-4296418D01*
X12240704Y-4071237D01*
X12235954Y-4061277D01*
X12116058Y-3851504D01*
X12109893Y-3842364D01*
X12078527Y-3802576D01*
X12065693Y-3792993D01*
X12056693Y-3796860D01*
X11067424Y-4786129D01*
X11059416Y-4800000D01*
X10340584Y-4800000D01*
X10332576Y-4786129D01*
X9346136Y-3799689D01*
X9332265Y-3791681D01*
X9322886Y-3797096D01*
X9315664Y-3805779D01*
X9309253Y-3814767D01*
X9183905Y-4021333D01*
X9178905Y-4031145D01*
X9085467Y-4253970D01*
X9081967Y-4264430D01*
X9022493Y-4498610D01*
X9020578Y-4509471D01*
X8996371Y-4749868D01*
X8996083Y-4760902D01*
X7401862Y-4760902D01*
X7386452Y-4553541D01*
X7384820Y-4542621D01*
X7331498Y-4306968D01*
X7328272Y-4296418D01*
X7240704Y-4071237D01*
X7235954Y-4061277D01*
X7116058Y-3851504D01*
X7109893Y-3842364D01*
X7078527Y-3802576D01*
X7065693Y-3792993D01*
X7056693Y-3796860D01*
X6067424Y-4786129D01*
X6059416Y-4800000D01*
X5340584Y-4800000D01*
X5332576Y-4786129D01*
X4346136Y-3799689D01*
X4332265Y-3791681D01*
X4322886Y-3797096D01*
X4315664Y-3805779D01*
X4309253Y-3814767D01*
X4183905Y-4021333D01*
X4178905Y-4031145D01*
X4085467Y-4253970D01*
X4081967Y-4264430D01*
X4022493Y-4498610D01*
X4020578Y-4509471D01*
X3996371Y-4749868D01*
X3996083Y-4760902D01*
X300500Y-4760902D01*
X300500Y-3433319D01*
X4691419Y-3433319D01*
X4693655Y-3440102D01*
X5686129Y-4432576D01*
X5700000Y-4440584D01*
X5713871Y-4432576D01*
X6699020Y-3447427D01*
X6707028Y-3433556D01*
X6706891Y-3433319D01*
X9691419Y-3433319D01*
X9693655Y-3440102D01*
X10686129Y-4432576D01*
X10700000Y-4440584D01*
X10713871Y-4432576D01*
X11699020Y-3447427D01*
X11707028Y-3433556D01*
X11706891Y-3433319D01*
X14691419Y-3433319D01*
X14693655Y-3440102D01*
X15686129Y-4432576D01*
X15700000Y-4440584D01*
X15713871Y-4432576D01*
X16699020Y-3447427D01*
X16707028Y-3433556D01*
X16703111Y-3426772D01*
X16569785Y-3334280D01*
X16560268Y-3328674D01*
X16343574Y-3221813D01*
X16333354Y-3217683D01*
X16103237Y-3144022D01*
X16092509Y-3141447D01*
X15854043Y-3102610D01*
X15843047Y-3101648D01*
X15601454Y-3098485D01*
X15590449Y-3099158D01*
X15351044Y-3131740D01*
X15340242Y-3134036D01*
X15108293Y-3201643D01*
X15097950Y-3205510D01*
X14878532Y-3306663D01*
X14868897Y-3312004D01*
X14702083Y-3421371D01*
X14691419Y-3433319D01*
X11706891Y-3433319D01*
X11703111Y-3426772D01*
X11569785Y-3334280D01*
X11560268Y-3328674D01*
X11343574Y-3221813D01*
X11333354Y-3217683D01*
X11103237Y-3144022D01*
X11092509Y-3141447D01*
X10854043Y-3102610D01*
X10843047Y-3101648D01*
X10601454Y-3098485D01*
X10590449Y-3099158D01*
X10351044Y-3131740D01*
X10340242Y-3134036D01*
X10108293Y-3201643D01*
X10097950Y-3205510D01*
X9878532Y-3306663D01*
X9868897Y-3312004D01*
X9702083Y-3421371D01*
X9691419Y-3433319D01*
X6706891Y-3433319D01*
X6703111Y-3426772D01*
X6569785Y-3334280D01*
X6560268Y-3328674D01*
X6343574Y-3221813D01*
X6333354Y-3217683D01*
X6103237Y-3144022D01*
X6092509Y-3141447D01*
X5854043Y-3102610D01*
X5843047Y-3101648D01*
X5601454Y-3098485D01*
X5590449Y-3099158D01*
X5351044Y-3131740D01*
X5340242Y-3134036D01*
X5108293Y-3201643D01*
X5097950Y-3205510D01*
X4878532Y-3306663D01*
X4868897Y-3312004D01*
X4702083Y-3421371D01*
X4691419Y-3433319D01*
X300500Y-3433319D01*
X300500Y-1039326D01*
X302764Y-1013452D01*
X302872Y-1012838D01*
X305136Y-1000000D01*
X302873Y-987163D01*
X302873Y-983235D01*
X303590Y-968634D01*
X312503Y-878135D01*
X318202Y-849487D01*
X349486Y-746356D01*
X360661Y-719375D01*
X411468Y-624324D01*
X427694Y-600040D01*
X496069Y-516724D01*
X516724Y-496069D01*
X600040Y-427694D01*
X624325Y-411467D01*
X719375Y-360661D01*
X746356Y-349486D01*
X849487Y-318202D01*
X878135Y-312503D01*
X968634Y-303590D01*
X983235Y-302873D01*
X987163Y-302873D01*
X1000000Y-305136D01*
X1013452Y-302764D01*
X1039326Y-300500D01*
X22948119Y-300500D01*
X23022619Y-320462D01*
G37*
%TD.AperFunction*%
%TD*%
M02*
