<?xml version="1.0" encoding="UTF-8" standalone="no"?>
<!-- Created with Inkscape (http://www.inkscape.org/) -->

<svg
   width="210mm"
   height="297mm"
   viewBox="0 0 210 297"
   version="1.1"
   id="svg5"
   inkscape:version="1.1.2 (1:1.1+202202050950+0a00cf5339)"
   sodipodi:docname="bellows.svg"
   xmlns:inkscape="http://www.inkscape.org/namespaces/inkscape"
   xmlns:sodipodi="http://sodipodi.sourceforge.net/DTD/sodipodi-0.dtd"
   xmlns="http://www.w3.org/2000/svg"
   xmlns:svg="http://www.w3.org/2000/svg">
  <sodipodi:namedview
     id="namedview7"
     pagecolor="#ffffff"
     bordercolor="#666666"
     borderopacity="1.0"
     inkscape:pageshadow="2"
     inkscape:pageopacity="0.0"
     inkscape:pagecheckerboard="0"
     inkscape:document-units="mm"
     showgrid="true"
     inkscape:zoom="0.90583672"
     inkscape:cx="220.23837"
     inkscape:cy="636.98014"
     inkscape:window-width="2560"
     inkscape:window-height="1373"
     inkscape:window-x="-4"
     inkscape:window-y="-2"
     inkscape:window-maximized="1"
     inkscape:current-layer="layer1">
    <inkscape:grid
       type="xygrid"
       id="grid824"
       units="mm"
       spacingx="1"
       spacingy="1"
       empspacing="10" />
  </sodipodi:namedview>
  <defs
     id="defs2" />
  <g
     inkscape:label="Layer 1"
     inkscape:groupmode="layer"
     id="layer1">
    <g
       id="g3852"
       transform="translate(11.233334)">
      <path
         style="fill:none;fill-rule:evenodd;stroke:#000000;stroke-width:0.264583px;stroke-linecap:butt;stroke-linejoin:miter;stroke-opacity:1"
         d="m 59,100 c 1,-6 4,-10 10,-10 h 80 c 6,0 9,4 10,10 1,8 -5,17 3,20 h 20 L 179,80 C 178,74 175,70 169,70 H 49 c -6,0 -9,4 -10,10 l -3,40 h 20 c 8,-4 2,-13 3,-20 z"
         id="path859"
         sodipodi:nodetypes="ccccccccccccc" />
      <path
         style="fill:none;fill-rule:evenodd;stroke:#000000;stroke-width:0.264583px;stroke-linecap:butt;stroke-linejoin:miter;stroke-opacity:1"
         d="m 60,40 c 1,6 4,10 10,10 h 80 c 6,0 9,-4 10,-10 1,-8 -5,-17 3,-20 h 20 l -3,40 c -1,6 -4,10 -10,10 H 50 C 44,70 41,66 40,60 L 37,20 h 20 c 8,4 2,13 3,20 z"
         id="path3758"
         sodipodi:nodetypes="ccccccccccccc" />
    </g>
    <g
       id="g3846"
       transform="translate(7.2333337,-5.8208336)">
      <path
         style="fill:none;fill-rule:evenodd;stroke:#000000;stroke-width:0.264583px;stroke-linecap:butt;stroke-linejoin:miter;stroke-opacity:1"
         d="m 30,180 c 1,-6 4,-10 10,-10 h 80 c 6,0 9,4 10,10 1,8 -5,17 3,20 h 20 l -3,-40 c -1,-6 -4,-10 -10,-10 H 20 c -6,0 -9,4 -10,10 l -3,40 h 20 c 8,-4 2,-13 3,-20 z"
         id="path3840"
         sodipodi:nodetypes="ccccccccccccc" />
      <path
         style="fill:none;fill-rule:evenodd;stroke:#000000;stroke-width:0.264583px;stroke-linecap:butt;stroke-linejoin:miter;stroke-opacity:1"
         d="m 31,120 c 1,6 4,10 10,10 h 80 c 6,0 9,-4 10,-10 1,-8 -5,-17 3,-20 h 20 l -3,40 c -1,6 -4,10 -10,10 H 21 c -6,0 -9,-4 -10,-10 L 8,100 h 20 c 8,4 2,13 3,20 z"
         id="path3842"
         sodipodi:nodetypes="ccccccccccccc" />
    </g>
    <g
       id="g3858"
       transform="translate(11.233334,150)">
      <path
         style="fill:none;fill-rule:evenodd;stroke:#000000;stroke-width:0.264583px;stroke-linecap:butt;stroke-linejoin:miter;stroke-opacity:1"
         d="m 59,100 c 1,-6 4,-10 10,-10 h 80 c 6,0 9,4 10,10 1,8 -5,17 3,20 h 20 L 179,80 C 178,74 175,70 169,70 H 49 c -6,0 -9,4 -10,10 l -3,40 h 20 c 8,-4 2,-13 3,-20 z"
         id="path3854"
         sodipodi:nodetypes="ccccccccccccc" />
      <path
         style="fill:none;fill-rule:evenodd;stroke:#000000;stroke-width:0.264583px;stroke-linecap:butt;stroke-linejoin:miter;stroke-opacity:1"
         d="m 60,40 c 1,6 4,10 10,10 h 80 c 6,0 9,-4 10,-10 1,-8 -5,-17 3,-20 h 20 l -3,40 c -1,6 -4,10 -10,10 H 50 C 44,70 41,66 40,60 L 37,20 h 20 c 8,4 2,13 3,20 z"
         id="path3856"
         sodipodi:nodetypes="ccccccccccccc" />
    </g>
  </g>
</svg>
