<?xml version="1.0" encoding="UTF-8" standalone="no"?>
<!-- Created with Inkscape (http://www.inkscape.org/) -->

<svg
   width="297mm"
   height="210mm"
   viewBox="0 0 297 210"
   version="1.1"
   id="svg5"
   inkscape:version="1.1.2 (1:1.1+202202050950+0a00cf5339)"
   sodipodi:docname="motors_active_sign.svg"
   xmlns:inkscape="http://www.inkscape.org/namespaces/inkscape"
   xmlns:sodipodi="http://sodipodi.sourceforge.net/DTD/sodipodi-0.dtd"
   xmlns="http://www.w3.org/2000/svg"
   xmlns:svg="http://www.w3.org/2000/svg">
  <sodipodi:namedview
     id="namedview7"
     pagecolor="#ffffff"
     bordercolor="#666666"
     borderopacity="1.0"
     inkscape:pageshadow="2"
     inkscape:pageopacity="0.0"
     inkscape:pagecheckerboard="0"
     inkscape:document-units="mm"
     showgrid="false"
     inkscape:zoom="0.64052329"
     inkscape:cx="56.984657"
     inkscape:cy="326.29571"
     inkscape:window-width="2560"
     inkscape:window-height="1373"
     inkscape:window-x="-4"
     inkscape:window-y="-2"
     inkscape:window-maximized="1"
     inkscape:current-layer="layer1" />
  <defs
     id="defs2" />
  <g
     inkscape:label="Layer 1"
     inkscape:groupmode="layer"
     id="layer1">
    <path
       id="rect8045"
       style="overflow:visible;fill:none;fill-rule:evenodd;stroke:#000000;stroke-width:0.999998;stroke-linecap:round;stroke-linejoin:round;stop-color:#000000"
       d="M 36.861352,17.230616 H 178.99785 c 1.662,0 3,1.338002 3,3.000004 v 53.713961 c 0,1.662003 -1.338,3.000005 -3,3.000005 H 36.861352 c -1.662003,0 -3.000005,-1.338002 -3.000005,-3.000005 V 20.23062 c 0,-1.662002 1.338002,-3.000004 3.000005,-3.000004 z" />
    <path
       style="fill:none;stroke:#ef2929;stroke-width:0.5"
       d="m 159.31471,67.987617 c 0.53296,-0.189824 0.82891,-0.53318 0.9364,-1.086397 0.10125,-0.521056 0.23366,-0.278175 -5.28063,-9.686587 -4.64684,-7.928395 -10.20087,-17.416964 -15.93212,-27.218646 -1.75068,-2.994051 -3.31585,-5.585878 -3.47815,-5.759617 -0.58062,-0.621547 -1.52548,-0.621547 -2.1061,0 -0.16229,0.173739 -1.72746,2.765566 -3.47815,5.759617 -5.73125,9.801682 -11.28527,19.290251 -15.93212,27.218646 -5.53082,9.436623 -5.38162,9.162521 -5.28055,9.701279 0.10082,0.537416 0.50619,0.964881 1.06112,1.118966 0.31042,0.08619 7.747,0.121915 24.74005,0.118844 20.617,-0.0039 24.36498,-0.02889 24.75025,-0.166105 z m -48.22937,-2.435484 c 0.28968,-0.488504 2.39768,-4.085663 4.68444,-7.993686 2.28676,-3.908025 6.25596,-10.689765 8.82045,-15.070536 2.56448,-4.380769 5.83092,-9.963456 7.25874,-12.40597 1.42783,-2.442516 2.62402,-4.440937 2.65819,-4.440937 0.0342,0 1.23036,1.998421 2.65819,4.440937 1.42783,2.442514 4.69427,8.025201 7.25875,12.40597 2.56448,4.380771 6.53368,11.162511 8.82045,15.070536 2.28676,3.908023 4.39476,7.505182 4.68443,7.993686 l 0.52669,0.888187 h -23.94851 -23.9485 z m 24.64611,-0.343814 c 0.2577,-0.727509 3.08337,-6.934357 3.32608,-7.306058 0.32152,-0.492402 3.28081,-4.588316 5.60644,-7.759816 l 1.42688,-1.945862 -1.22524,-2.023452 c -0.67388,-1.112897 -1.51366,-2.500493 -1.86617,-3.083545 -0.35251,-0.583052 -0.66922,-1.060094 -0.7038,-1.060094 -0.0346,0 -1.20804,1.830047 -2.60771,4.066772 l -2.54485,4.066773 v 2.236494 2.23649 l -4.21173,0.003 -4.21173,0.003 -0.97414,0.799053 -0.97414,0.799052 -1.86233,3.43e-4 c -2.0624,3.46e-4 -2.00309,-0.02647 -1.68001,0.759919 0.28312,0.68914 0.8182,1.172594 1.53509,1.386983 0.75916,0.227037 3.09473,0.260978 3.59053,0.05219 0.47474,-0.19993 7.23106,-0.192952 7.15191,0.0074 -0.0311,0.07879 -0.24087,0.5866 -0.46609,1.128465 -0.6129,1.474605 -0.99169,2.891415 -0.99169,3.709215 0,0.607245 0.0501,0.784118 0.33285,1.174409 0.29172,0.40268 0.98473,0.950132 1.20278,0.950132 0.0418,0 0.108,-0.09025 0.14707,-0.200558 z M 123.79161,55.43095 c 0.41484,-0.122149 0.9495,-0.600583 1.09302,-0.978062 0.0921,-0.242275 0.17663,-0.275285 0.70483,-0.275285 0.54781,0 0.64171,0.04076 1.07609,0.467072 l 0.47591,0.467068 0.93234,-0.713999 c 0.51278,-0.392696 0.93128,-0.744701 0.92998,-0.78223 -0.003,-0.100664 -1.82935,-1.445445 -2.25006,-1.657183 -0.33474,-0.16847 -0.4236,-0.165538 -1.20335,0.03972 -0.75034,0.197509 -1.73485,0.517036 -2.30313,0.747491 -0.17521,0.07105 -0.20056,0.253627 -0.20056,1.444332 0,1.500802 -0.0206,1.466497 0.74493,1.241084 z m 12.77844,-8.989174 v -7.621219 h -3.55275 -3.55275 v 7.621219 7.621223 h 3.55275 3.55275 z m -4.74658,3.810612 -1.11715,-1.232001 h 0.58247 0.58246 v -1.1747 -1.1747 h 1.08875 1.08875 v 1.168709 1.16871 l 0.56122,0.03465 0.56122,0.03465 -1.09785,1.230195 c -0.60382,0.676609 -1.1057,1.218114 -1.11529,1.203353 -0.01,-0.01477 -0.52015,-0.581247 -1.13458,-1.258849 z m -3.00633,1.887689 c 0.04,-0.423661 0.0731,-0.97713 0.0736,-1.22993 l 8.7e-4,-0.459635 -2.77916,-1.746183 -2.77917,-1.746184 -0.10019,0.335325 c -0.13823,0.462637 0.008,1.307175 0.28679,1.66226 0.31828,0.404629 4.12636,3.30255 5.09761,3.87924 0.0853,0.05064 0.15087,-0.177501 0.19974,-0.694893 z"
       id="path854"
       sodipodi:nodetypes="sssssssssscsssssssssscccscsscssssccccccccssssssssccsssscsssssssscccccccccccccccccccccsssccccccssscc" />
    <path
       d="M 108.56338,42.648956 V 31.744097 H 107.362 l -3.16519,6.461283 -3.16518,-6.461283 h -1.20138 v 10.904859 h 1.20138 v -8.640715 l 2.6184,5.398522 h 1.09357 l 2.6184,-5.398522 v 8.640715 z"
       id="path8398"
       style="font-size:15.772px;line-height:100%;font-family:Gidole;-inkscape-font-specification:Gidole;text-align:center;letter-spacing:0px;word-spacing:0px;text-anchor:middle;fill:none;stroke:#ef2929;stroke-width:0.5" />
    <path
       d="m 95.663916,32.129155 q -0.85483,-0.531381 -2.056213,-0.531381 -1.201383,0 -2.056213,0.531381 -0.85483,0.531381 -1.270693,1.432418 -0.238737,0.508278 -0.354254,1.216785 -0.123219,0.708508 -0.138621,1.170579 -0.0154,0.46207 -0.0154,1.24759 0,0.785519 0.0154,1.247589 0.0154,0.462071 0.138621,1.170579 0.115517,0.708507 0.354254,1.216785 0.415863,0.901037 1.270693,1.432418 0.85483,0.531381 2.056213,0.531381 1.201383,0 2.056213,-0.531381 0.85483,-0.531381 1.270693,-1.432418 0.238737,-0.508278 0.361955,-1.216785 0.115518,-0.708508 0.13092,-1.170579 0.0154,-0.46207 0.0154,-1.247589 0,-0.78552 -0.0154,-1.24759 -0.0154,-0.462071 -0.13092,-1.170579 -0.123218,-0.708507 -0.361955,-1.216785 -0.415863,-0.901037 -1.270693,-1.432418 z m -3.434723,0.893336 q 0.562186,-0.346552 1.37851,-0.346552 0.816324,0 1.37851,0.346552 0.562185,0.338852 0.839428,0.947244 0.192529,0.408163 0.292644,1.024256 0.09241,0.608393 0.107817,1.04736 0.0154,0.431265 0.0154,1.155176 0,0.72391 -0.0154,1.162876 -0.0154,0.431266 -0.107817,1.04736 -0.100115,0.608392 -0.292644,1.016555 -0.277243,0.608392 -0.839428,0.954945 -0.562186,0.338851 -1.37851,0.338851 -0.816324,0 -1.37851,-0.338851 -0.562185,-0.346553 -0.839428,-0.954945 -0.192529,-0.408163 -0.284943,-1.016555 -0.100115,-0.616094 -0.115517,-1.04736 -0.0154,-0.438966 -0.0154,-1.162876 0,-0.723911 0.0154,-1.155176 0.0154,-0.438967 0.115517,-1.04736 0.09241,-0.616093 0.284943,-1.024256 0.277243,-0.608392 0.839428,-0.947244 z"
       id="path8400"
       style="font-size:15.772px;line-height:100%;font-family:Gidole;-inkscape-font-specification:Gidole;text-align:center;letter-spacing:0px;word-spacing:0px;text-anchor:middle;fill:none;stroke:#ef2929;stroke-width:0.5" />
    <path
       d="m 88.617344,31.736396 h -7.146688 v 1.078164 h 2.972653 v 9.834396 h 1.201382 V 32.81456 h 2.972653 z"
       id="path8402"
       style="font-size:15.772px;line-height:100%;font-family:Gidole;-inkscape-font-specification:Gidole;text-align:center;letter-spacing:0px;word-spacing:0px;text-anchor:middle;fill:none;stroke:#ef2929;stroke-width:0.5" />
    <path
       d="m 78.53651,32.129155 q -0.85483,-0.531381 -2.056213,-0.531381 -1.201383,0 -2.056213,0.531381 -0.85483,0.531381 -1.270693,1.432418 -0.238737,0.508278 -0.354254,1.216785 -0.123219,0.708508 -0.138621,1.170579 -0.0154,0.46207 -0.0154,1.24759 0,0.785519 0.0154,1.247589 0.0154,0.462071 0.138621,1.170579 0.115517,0.708507 0.354254,1.216785 0.415863,0.901037 1.270693,1.432418 0.85483,0.531381 2.056213,0.531381 1.201383,0 2.056213,-0.531381 0.85483,-0.531381 1.270693,-1.432418 0.238737,-0.508278 0.361955,-1.216785 0.115518,-0.708508 0.13092,-1.170579 0.0154,-0.46207 0.0154,-1.247589 0,-0.78552 -0.0154,-1.24759 -0.0154,-0.462071 -0.13092,-1.170579 Q 80.04594,34.069851 79.807203,33.561573 79.39134,32.660536 78.53651,32.129155 Z m -3.434723,0.893336 q 0.562186,-0.346552 1.37851,-0.346552 0.816324,0 1.37851,0.346552 0.562185,0.338852 0.839427,0.947244 0.19253,0.408163 0.292645,1.024256 0.09241,0.608393 0.107816,1.04736 0.0154,0.431265 0.0154,1.155176 0,0.72391 -0.0154,1.162876 -0.0154,0.431266 -0.107816,1.04736 -0.100115,0.608392 -0.292645,1.016555 -0.277242,0.608392 -0.839427,0.954945 -0.562186,0.338851 -1.37851,0.338851 -0.816324,0 -1.37851,-0.338851 -0.562185,-0.346553 -0.839428,-0.954945 -0.192529,-0.408163 -0.284943,-1.016555 -0.100115,-0.616094 -0.115518,-1.04736 -0.0154,-0.438966 -0.0154,-1.162876 0,-0.723911 0.0154,-1.155176 0.0154,-0.438967 0.115518,-1.04736 0.09241,-0.616093 0.284943,-1.024256 0.277243,-0.608392 0.839428,-0.947244 z"
       id="path8404"
       style="font-size:15.772px;line-height:100%;font-family:Gidole;-inkscape-font-specification:Gidole;text-align:center;letter-spacing:0px;word-spacing:0px;text-anchor:middle;fill:none;stroke:#ef2929;stroke-width:0.5" />
    <path
       d="m 67.739466,31.744097 q -0.53138,0 -0.785519,0.0154 -0.26184,0.0077 -0.608393,0.06931 -0.354254,0.06161 -0.685404,0.20023 -0.870232,0.354254 -1.393912,1.170578 -0.52368,0.808623 -0.52368,1.855983 0,1.05506 0.531381,1.871384 0.531381,0.816325 1.409315,1.162877 l -2.133225,4.559094 h 1.301498 l 1.956098,-4.281851 h 2.248742 v 4.281851 H 70.25775 V 31.744097 Z m 0,1.078164 h 1.316901 v 4.46668 h -1.316901 q -0.423564,0 -0.623794,-0.0077 -0.207932,-0.0077 -0.469772,-0.04621 -0.269541,-0.04621 -0.477473,-0.13092 -0.346552,-0.146322 -0.59299,-0.392759 -0.254139,-0.254139 -0.385058,-0.546784 -0.13092,-0.292644 -0.184829,-0.562185 -0.06161,-0.277242 -0.06161,-0.546783 0,-0.269541 0.06161,-0.539082 0.05391,-0.277243 0.184829,-0.569887 0.130919,-0.292645 0.385058,-0.539082 0.246438,-0.254139 0.59299,-0.400461 0.207932,-0.08471 0.477473,-0.123219 0.26184,-0.04621 0.469772,-0.05391 0.20023,-0.0077 0.623794,-0.0077 z"
       id="path8406"
       style="font-size:15.772px;line-height:100%;font-family:Gidole;-inkscape-font-specification:Gidole;text-align:center;letter-spacing:0px;word-spacing:0px;text-anchor:middle;fill:none;stroke:#ef2929;stroke-width:0.5" />
    <path
       d="m 62.210025,41.763322 -0.531381,-0.970348 q -1.594142,0.92414 -2.803226,0.92414 -0.477473,0 -0.85483,-0.130919 -0.377358,-0.138622 -0.600692,-0.346553 -0.231035,-0.215633 -0.377357,-0.492875 -0.154024,-0.284944 -0.207932,-0.546783 -0.05391,-0.269541 -0.05391,-0.539082 0,-0.616094 0.284943,-1.108969 0.277243,-0.492875 0.91644,-0.731612 0.308047,-0.115517 0.98575,-0.246437 0.670002,-0.138621 1.008853,-0.254139 0.970348,-0.346552 1.486327,-1.093566 0.515978,-0.747014 0.515978,-1.701959 0,-1.232188 -0.831726,-2.079317 -0.831727,-0.847129 -2.271846,-0.847129 -1.270694,0 -2.872537,0.770118 l 0.46207,0.993451 q 1.417016,-0.685404 2.410467,-0.685404 0.947244,0 1.424717,0.539082 0.477472,0.539082 0.477472,1.309199 0,0.600691 -0.300345,1.085865 -0.300346,0.485174 -0.931842,0.700807 -0.284944,0.100115 -0.970348,0.238736 -0.693105,0.138621 -1.062762,0.277242 -0.962646,0.369657 -1.44782,1.124371 -0.485174,0.747014 -0.485174,1.709661 0,0.623794 0.215633,1.18598 0.207932,0.554484 0.608393,0.993451 0.392759,0.438967 1.039658,0.700807 0.639197,0.254139 1.432418,0.254139 0.901037,0 1.694258,-0.277243 0.79322,-0.277242 1.640349,-0.754714 z"
       id="path8408"
       style="font-size:15.772px;line-height:100%;font-family:Gidole;-inkscape-font-specification:Gidole;text-align:center;letter-spacing:0px;word-spacing:0px;text-anchor:middle;fill:none;stroke:#ef2929;stroke-width:0.5" />
    <path
       d="m 99.69933,54.708992 1.80978,-5.567948 1.80977,5.567948 z m 2.38736,-7.192895 h -1.15517 l -3.696565,10.90486 h 1.255291 l 0.854831,-2.633801 h 4.328063 l 0.85483,2.633801 h 1.25529 z"
       id="path8410"
       style="font-size:15.772px;line-height:100%;font-family:Gidole;-inkscape-font-specification:Gidole;text-align:center;letter-spacing:0px;word-spacing:0px;text-anchor:middle;fill:none;stroke:#ef2929;stroke-width:0.5" />
    <path
       d="m 92.321608,47.369775 q -1.555637,0 -2.880239,0.931842 l 0.616094,0.92414 q 1.093567,-0.777818 2.264145,-0.777818 1.601843,0 2.17173,1.309199 0.246438,0.562186 0.315748,1.332303 0.06931,0.770117 0.06931,1.879086 0,1.108969 -0.06931,1.879086 -0.06931,0.770117 -0.315748,1.332303 -0.569887,1.309199 -2.17173,1.309199 -1.417016,0 -2.49518,-0.91644 l -0.677703,0.893336 q 1.401613,1.101268 3.172883,1.101268 1.193681,0 2.04081,-0.531381 0.839428,-0.531381 1.24759,-1.44782 0.207932,-0.462071 0.323449,-1.124371 0.107817,-0.670002 0.13092,-1.17828 0.0154,-0.515978 0.0154,-1.3169 0,-1.232188 -0.08471,-2.10242 -0.09241,-0.870233 -0.385059,-1.517131 -0.423564,-0.924141 -1.262992,-1.44782 -0.847129,-0.531381 -2.025408,-0.531381 z"
       id="path8412"
       style="font-size:15.772px;line-height:100%;font-family:Gidole;-inkscape-font-specification:Gidole;text-align:center;letter-spacing:0px;word-spacing:0px;text-anchor:middle;fill:none;stroke:#ef2929;stroke-width:0.5" />
    <path
       d="m 87.885733,47.508396 h -7.146688 v 1.078164 h 2.972653 v 9.834397 h 1.201383 V 48.58656 h 2.972652 z"
       id="path8414"
       style="font-size:15.772px;line-height:100%;font-family:Gidole;-inkscape-font-specification:Gidole;text-align:center;letter-spacing:0px;word-spacing:0px;text-anchor:middle;fill:none;stroke:#ef2929;stroke-width:0.5" />
    <path
       d="m 77.68938,47.516097 v 10.90486 h 1.201383 v -10.90486 z"
       id="path8416"
       style="font-size:15.772px;line-height:100%;font-family:Gidole;-inkscape-font-specification:Gidole;text-align:center;letter-spacing:0px;word-spacing:0px;text-anchor:middle;fill:none;stroke:#ef2929;stroke-width:0.5" />
    <path
       d="m 75.995123,47.516097 h -1.255291 l -3.01886,9.279912 -3.018859,-9.279912 h -1.255291 l 3.696562,10.90486 h 1.155176 z"
       id="path8418"
       style="font-size:15.772px;line-height:100%;font-family:Gidole;-inkscape-font-specification:Gidole;text-align:center;letter-spacing:0px;word-spacing:0px;text-anchor:middle;fill:none;stroke:#ef2929;stroke-width:0.5" />
    <path
       d="m 65.752562,47.516097 h -6.006914 v 1.078164 h 4.805531 v 3.727367 h -4.112425 v 1.078164 h 4.112425 v 3.943001 h -4.805531 v 1.078164 h 6.006914 z"
       id="path8420"
       style="font-size:15.772px;line-height:100%;font-family:Gidole;-inkscape-font-specification:Gidole;text-align:center;letter-spacing:0px;word-spacing:0px;text-anchor:middle;fill:none;stroke:#ef2929;stroke-width:0.5" />
    <path
       id="path8211"
       style="overflow:visible;fill:none;fill-rule:evenodd;stroke:#000000;stroke-linecap:round;stroke-linejoin:round;stop-color:#000000"
       d="m 41.302582,23.831806 a 2,2 0 0 1 -2,2 2,2 0 0 1 -2,-2 2,2 0 0 1 2,-2 2,2 0 0 1 2,2 z" />
    <path
       id="circle8293"
       style="overflow:visible;fill:none;fill-rule:evenodd;stroke:#000000;stroke-linecap:round;stroke-linejoin:round;stop-color:#000000"
       d="m 178.25122,23.831806 a 2,2 0 0 1 -2,2 2,2 0 0 1 -2,-2 2,2 0 0 1 2,-2 2,2 0 0 1 2,2 z" />
    <path
       id="circle8295"
       style="overflow:visible;fill:none;fill-rule:evenodd;stroke:#000000;stroke-linecap:round;stroke-linejoin:round;stop-color:#000000"
       d="m 178.25122,70.702141 a 2,2 0 0 1 -2,2 2,2 0 0 1 -2,-2 2,2 0 0 1 2,-2 2,2 0 0 1 2,2 z" />
    <path
       id="circle8297"
       style="overflow:visible;fill:none;fill-rule:evenodd;stroke:#000000;stroke-linecap:round;stroke-linejoin:round;stop-color:#000000"
       d="m 41.302582,70.702141 a 2,2 0 0 1 -2,2 2,2 0 0 1 -2,-2 2,2 0 0 1 2,-2 2,2 0 0 1 2,2 z" />
  </g>
</svg>
