<?xml version="1.0" encoding="UTF-8" standalone="no"?>
<svg
   version="1.1"
   width="100mm"
   height="100mm"
   viewBox="0 0 100000000 1.0000001e+08"
   id="svg224"
   sodipodi:docname="motordriver_heatsink.svg"
   inkscape:version="1.1.1 (1:1.1+202109281949+c3084ef5ed)"
   xmlns:inkscape="http://www.inkscape.org/namespaces/inkscape"
   xmlns:sodipodi="http://sodipodi.sourceforge.net/DTD/sodipodi-0.dtd"
   xmlns="http://www.w3.org/2000/svg"
   xmlns:svg="http://www.w3.org/2000/svg"
   xmlns:rdf="http://www.w3.org/1999/02/22-rdf-syntax-ns#"
   xmlns:cc="http://creativecommons.org/ns#"
   xmlns:dc="http://purl.org/dc/elements/1.1/">
  <defs
     id="defs228" />
  <sodipodi:namedview
     id="namedview226"
     pagecolor="#ffffff"
     bordercolor="#666666"
     borderopacity="1.0"
     inkscape:pageshadow="2"
     inkscape:pageopacity="0.0"
     inkscape:pagecheckerboard="0"
     inkscape:document-units="cm"
     showgrid="false"
     inkscape:zoom="1.8117038"
     inkscape:cx="137.71567"
     inkscape:cy="288.12656"
     inkscape:window-width="2560"
     inkscape:window-height="1373"
     inkscape:window-x="-4"
     inkscape:window-y="-2"
     inkscape:window-maximized="1"
     inkscape:current-layer="svg224"
     units="mm"
     width="100mm" />
  <title
     id="title2">SVG Picture created as motor_driver-User_Drawings.svg date 2022/01/20 16:30:00 </title>
  <desc
     id="desc4">Picture generated by PCBNEW </desc>
  <path
     id="circle48"
     style="fill-opacity:0;stroke:#000000;stroke-width:100000;stroke-linecap:round;stroke-linejoin:round"
     d="m -19750001,-21000001 c 0,81878 -8045,163558 -24018,243863 -15974,80305 -39799,158846 -71133,234491 -31333,75646 -70023,148030 -115512,216109 -45489,68079 -97557,131524 -155454,189420 -57896,57897 -121341,109965 -189420,155454 -68079,45489 -140463,84179 -216109,115512 -75645,31334 -154186,55159 -234491,71133 -80305,15973 -161985,24018 -243863,24018 -81878,0 -163558,-8045 -243863,-24018 -80305,-15974 -158846,-39799 -234491,-71133 -75646,-31333 -148030,-70023 -216109,-115512 -68079,-45489 -131524,-97557 -189420,-155454 -116074,-116073 -208148,-253872 -270966,-405529 -62819,-151657 -95151,-314202 -95151,-478354 0,-164152 32332,-326697 95151,-478354 62818,-151657 154892,-289456 270966,-405529 116073,-116074 253872,-208148 405529,-270966 151657,-62819 314202,-95151 478354,-95151 164152,0 326697,32332 478354,95151 151657,62818 289456,154892 405529,270966 57897,57896 109965,121341 155454,189420 45489,68079 84179,140463 115512,216109 31334,75645 55159,154186 71133,234491 15973,80305 24018,161985 24018,243863 z m 41999998,41999997 c 0,81880 -8040,163560 -24020,243860 -15970,80310 -39800,158850 -71130,234490 -31330,75650 -70020,148030 -115510,216110 -45490,68080 -97560,131530 -155460,189420 -57890,57900 -121340,109970 -189420,155460 -68080,45490 -140460,84180 -216110,115510 -75640,31330 -154180,55160 -234490,71130 -80300,15980 -161980,24020 -243860,24020 -81880,0 -163560,-8040 -243860,-24020 -80310,-15970 -158850,-39800 -234490,-71130 -75650,-31330 -148030,-70020 -216110,-115510 -68080,-45490 -131530,-97560 -189420,-155460 -116080,-116070 -208149,-253870 -270967,-405530 -62819,-151650 -95151,-314200 -95151,-478350 0,-164150 32332,-326700 95151,-478350 62818,-151660 154887,-289460 270967,-405530 116070,-116080 253870,-208150 405530,-270970 151650,-62820 314200,-95150 478350,-95150 164150,0 326700,32330 478350,95150 151660,62820 289460,154890 405530,270970 57900,57890 109970,121340 155460,189420 45490,68080 84180,140460 115510,216110 31330,75640 55160,154180 71130,234490 15980,80300 24020,161980 24020,243860 z m -41999998,0 c 0,81880 -8045,163560 -24018,243860 -15974,80310 -39799,158850 -71133,234490 -31333,75650 -70023,148030 -115512,216110 -45489,68080 -97557,131530 -155454,189420 -57896,57900 -121341,109970 -189420,155460 -68079,45490 -140463,84180 -216109,115510 -75645,31330 -154186,55160 -234491,71130 -80305,15980 -161985,24020 -243863,24020 -81878,0 -163558,-8040 -243863,-24020 -80305,-15970 -158846,-39800 -234491,-71130 -75646,-31330 -148030,-70020 -216109,-115510 -68079,-45490 -131524,-97560 -189420,-155460 -116074,-116070 -208148,-253870 -270966,-405530 -62819,-151650 -95151,-314200 -95151,-478350 0,-164150 32332,-326700 95151,-478350 62818,-151660 154892,-289460 270966,-405530 116073,-116080 253872,-208150 405529,-270970 151657,-62820 314202,-95150 478354,-95150 164152,0 326697,32330 478354,95150 151657,62820 289456,154890 405529,270970 57897,57890 109965,121340 155454,189420 45489,68080 84179,140460 115512,216110 31334,75640 55159,154180 71133,234490 15973,80300 24018,161980 24018,243860 z m 41999998,-41999997 c 0,81878 -8040,163558 -24020,243863 -15970,80305 -39800,158846 -71130,234491 -31330,75646 -70020,148030 -115510,216109 -45490,68079 -97560,131524 -155460,189420 -57890,57897 -121340,109965 -189420,155454 -68080,45489 -140460,84179 -216110,115512 -75640,31334 -154180,55159 -234490,71133 -80300,15973 -161980,24018 -243860,24018 -81880,0 -163560,-8045 -243860,-24018 -80310,-15974 -158850,-39799 -234490,-71133 -75650,-31333 -148030,-70023 -216110,-115512 -68080,-45489 -131530,-97557 -189420,-155454 -116080,-116073 -208149,-253872 -270967,-405529 -62819,-151657 -95151,-314202 -95151,-478354 0,-164152 32332,-326697 95151,-478354 62818,-151657 154887,-289456 270967,-405529 116070,-116074 253870,-208148 405530,-270966 151650,-62819 314200,-95151 478350,-95151 164150,0 326700,32332 478350,95151 151660,62818 289460,154892 405530,270966 57900,57896 109970,121341 155460,189420 45490,68079 84180,140463 115510,216109 31330,75645 55160,154186 71130,234491 15980,80305 24020,161985 24020,243863 z m -40307642,585271 c -38337,192732 -95517,381230 -170717,562779 -75201,181549 -168057,355271 -277230,518661 -109174,163390 -234137,315658 -373089,454609 -138951,138952 -291219,263915 -454609,373089 -163390,109173 -337112,202029 -518661,277230 -181549,75200 -370047,132380 -562779,170717 -192732,38337 -388764,57644 -585271,57644 -196507,0 -392539,19307 -585271,57644 -192732,38337 -381230,95517 -562779,170717 -181549,75201 -355271,168057 -518661,277230 -163390,109174 -315658,234137 -454609,373089 -138952,138951 -263915,291219 -373089,454609 -109173,163390 -202029,337112 -277230,518661 -75200,181549 -132380,370047 -170717,562779 -38337,192732 -57644,388764 -57644,585271 v 29999997 c 0,196510 19307,392540 57644,585270 38337,192730 95517,381230 170717,562780 75201,181550 168057,355270 277230,518660 109174,163390 234137,315660 373089,454610 138951,138950 291219,263920 454609,373090 163390,109170 337112,202030 518661,277230 181549,75200 370047,132380 562779,170720 192732,38330 388764,57640 585271,57640 196507,0 392539,19310 585271,57640 192732,38340 381230,95520 562779,170720 181549,75200 355271,168060 518661,277230 163390,109180 315658,234140 454609,373090 138952,138950 263915,291220 373089,454610 109173,163390 202029,337110 277230,518660 75200,181550 132380,370050 170717,562780 38337,192730 57644,388760 57644,585270 0,196510 19307,392540 57644,585270 38337,192730 95517,381230 170717,562780 75201,181550 168057,355270 277230,518660 109174,163390 234137,315660 373089,454610 138951,138950 291219,263920 454609,373090 163390,109170 337112,202030 518661,277230 181549,75200 370047,132380 562779,170720 192732,38330 388764,57640 585271,57640 h 30000000 c 196507,0 392539,-19310 585271,-57640 192732,-38340 381230,-95520 562779,-170720 181549,-75200 355271,-168060 518661,-277230 163390,-109170 315658,-234140 454609,-373090 138952,-138950 263915,-291220 373089,-454610 109173,-163390 202029,-337110 277230,-518660 75200,-181550 132380,-370050 170717,-562780 38337,-192730 57644,-388760 57644,-585270 0,-196510 19307,-392540 57644,-585270 38337,-192730 95517,-381230 170717,-562780 75201,-181550 168057,-355270 277230,-518660 109174,-163390 234137,-315660 373089,-454610 138951,-138950 291219,-263910 454609,-373090 163390,-109170 337112,-202030 518661,-277230 181548,-75200 370048,-132380 562778,-170720 192730,-38330 388760,-57640 585270,-57640 196510,0 392540,-19310 585270,-57640 192730,-38340 381230,-95520 562780,-170720 181550,-75200 355270,-168060 518660,-277230 163390,-109170 315660,-234140 454610,-373090 138950,-138950 263920,-291220 373090,-454610 109170,-163390 202030,-337110 277230,-518660 75200,-181550 132380,-370050 170720,-562780 38330,-192730 57640,-388760 57640,-585270 v -29999997 c 0,-196507 -19310,-392539 -57640,-585271 -38340,-192732 -95520,-381230 -170720,-562779 -75200,-181549 -168060,-355271 -277230,-518661 -109170,-163390 -234140,-315658 -373090,-454609 -138950,-138952 -291220,-263915 -454610,-373089 -163390,-109173 -337110,-202029 -518660,-277230 -181550,-75200 -370050,-132380 -562780,-170717 -192730,-38337 -388760,-57644 -585270,-57644 -196510,0 -392540,-19307 -585270,-57644 -192730,-38337 -381230,-95517 -562778,-170717 -181549,-75201 -355271,-168057 -518661,-277230 -163390,-109174 -315658,-234137 -454609,-373089 -138952,-138951 -263915,-291219 -373089,-454609 -109173,-163390 -202029,-337112 -277230,-518661 -75200,-181549 -132380,-370047 -170717,-562779 -38337,-192732 -57644,-388764 -57644,-585271 0,-196507 -19307,-392539 -57644,-585271 -38337,-192732 -95517,-381230 -170717,-562779 -75201,-181549 -168057,-355271 -277230,-518661 -109174,-163390 -234137,-315658 -373089,-454609 -138951,-138952 -291219,-263915 -454609,-373089 -163390,-109173 -337112,-202029 -518661,-277230 -181549,-75200 -370047,-132380 -562779,-170717 -192732,-38337 -388764,-57644 -585271,-57644 h -30000000 c -196507,0 -392539,19307 -585271,57644 -192732,38337 -381230,95517 -562779,170717 -181549,75201 -355271,168057 -518661,277230 -163390,109174 -315658,234137 -454609,373089 -138952,138951 -263915,291219 -373089,454609 -109173,163390 -202029,337112 -277230,518661 -75200,181549 -132380,370047 -170717,562779 -38337,192732 -57644,388764 -57644,585271 0,196507 -19307,392539 -57644,585271 z"
     sodipodi:nodetypes="ssssssssssssssssssssssssssssssssssssssssssssssssssssssssssssssssssssssssssssssssssssssssssssssssssssssssssscsssssssccssssssscssssssscsssssssccssssssscssssssscsssssssccssssssscssssssscsssssssccssssssscs" />
  <metadata
     id="metadata1045">
    <rdf:RDF>
      <cc:Work
         rdf:about="">
        <dc:title>SVG Picture created as motor_driver-User_Drawings.svg date 2022/01/20 16:30:00 </dc:title>
      </cc:Work>
    </rdf:RDF>
  </metadata>
</svg>
