<?xml version="1.0" encoding="UTF-8" standalone="no"?>
<!-- Created with Inkscape (http://www.inkscape.org/) -->

<svg
   version="1.1"
   id="svg2"
   xml:space="preserve"
   width="737.11969"
   height="1134.8097"
   viewBox="0 0 737.11966 1134.8097"
   sodipodi:docname="z_axis_bellows.svg"
   inkscape:version="1.1.2 (1:1.1+202202050950+0a00cf5339)"
   xmlns:inkscape="http://www.inkscape.org/namespaces/inkscape"
   xmlns:sodipodi="http://sodipodi.sourceforge.net/DTD/sodipodi-0.dtd"
   xmlns="http://www.w3.org/2000/svg"
   xmlns:svg="http://www.w3.org/2000/svg"><defs
     id="defs6"><clipPath
       clipPathUnits="userSpaceOnUse"
       id="clipPath18"><path
         d="m 209.992,539.613 h 7910.4 v 11180.4 h -7910.4 z"
         clip-rule="evenodd"
         id="path16" /></clipPath><clipPath
       clipPathUnits="userSpaceOnUse"
       id="clipPath46"><path
         d="m 209.992,539.613 h 7910.4 v 11180.4 h -7910.4 z"
         clip-rule="evenodd"
         id="path44" /></clipPath><clipPath
       clipPathUnits="userSpaceOnUse"
       id="clipPath70"><path
         d="m 209.992,539.613 h 7910.4 v 11180.4 h -7910.4 z"
         clip-rule="evenodd"
         id="path68" /></clipPath><clipPath
       clipPathUnits="userSpaceOnUse"
       id="clipPath84"><path
         d="m 209.992,539.613 h 7910.4 v 11180.4 h -7910.4 z"
         clip-rule="evenodd"
         id="path82" /></clipPath><clipPath
       clipPathUnits="userSpaceOnUse"
       id="clipPath118"><path
         d="m 209.992,539.613 h 7910.4 v 11180.4 h -7910.4 z"
         clip-rule="evenodd"
         id="path116" /></clipPath><clipPath
       clipPathUnits="userSpaceOnUse"
       id="clipPath132"><path
         d="m 209.992,539.613 h 7910.4 v 11180.4 h -7910.4 z"
         clip-rule="evenodd"
         id="path130" /></clipPath><clipPath
       clipPathUnits="userSpaceOnUse"
       id="clipPath166"><path
         d="m 209.992,539.613 h 7910.4 v 11180.4 h -7910.4 z"
         clip-rule="evenodd"
         id="path164" /></clipPath><clipPath
       clipPathUnits="userSpaceOnUse"
       id="clipPath180"><path
         d="m 209.992,539.613 h 7910.4 v 11180.4 h -7910.4 z"
         clip-rule="evenodd"
         id="path178" /></clipPath><clipPath
       clipPathUnits="userSpaceOnUse"
       id="clipPath214"><path
         d="m 209.992,539.613 h 7910.4 v 11180.4 h -7910.4 z"
         clip-rule="evenodd"
         id="path212" /></clipPath><clipPath
       clipPathUnits="userSpaceOnUse"
       id="clipPath228"><path
         d="m 209.992,539.613 h 7910.4 v 11180.4 h -7910.4 z"
         clip-rule="evenodd"
         id="path226" /></clipPath><clipPath
       clipPathUnits="userSpaceOnUse"
       id="clipPath262"><path
         d="m 209.992,539.613 h 7910.4 v 11180.4 h -7910.4 z"
         clip-rule="evenodd"
         id="path260" /></clipPath><clipPath
       clipPathUnits="userSpaceOnUse"
       id="clipPath276"><path
         d="m 209.992,539.613 h 7910.4 v 11180.4 h -7910.4 z"
         clip-rule="evenodd"
         id="path274" /></clipPath><clipPath
       clipPathUnits="userSpaceOnUse"
       id="clipPath310"><path
         d="m 209.992,539.613 h 7910.4 v 11180.4 h -7910.4 z"
         clip-rule="evenodd"
         id="path308" /></clipPath><clipPath
       clipPathUnits="userSpaceOnUse"
       id="clipPath324"><path
         d="m 209.992,539.613 h 7910.4 v 11180.4 h -7910.4 z"
         clip-rule="evenodd"
         id="path322" /></clipPath><clipPath
       clipPathUnits="userSpaceOnUse"
       id="clipPath358"><path
         d="m 209.992,539.613 h 7910.4 v 11180.4 h -7910.4 z"
         clip-rule="evenodd"
         id="path356" /></clipPath><clipPath
       clipPathUnits="userSpaceOnUse"
       id="clipPath372"><path
         d="m 209.992,539.613 h 7910.4 v 11180.4 h -7910.4 z"
         clip-rule="evenodd"
         id="path370" /></clipPath><clipPath
       clipPathUnits="userSpaceOnUse"
       id="clipPath406"><path
         d="m 209.992,539.613 h 7910.4 v 11180.4 h -7910.4 z"
         clip-rule="evenodd"
         id="path404" /></clipPath><clipPath
       clipPathUnits="userSpaceOnUse"
       id="clipPath420"><path
         d="m 209.992,539.613 h 7910.4 v 11180.4 h -7910.4 z"
         clip-rule="evenodd"
         id="path418" /></clipPath><clipPath
       clipPathUnits="userSpaceOnUse"
       id="clipPath454"><path
         d="m 209.992,539.613 h 7910.4 v 11180.4 h -7910.4 z"
         clip-rule="evenodd"
         id="path452" /></clipPath><clipPath
       clipPathUnits="userSpaceOnUse"
       id="clipPath468"><path
         d="m 209.992,539.613 h 7910.4 v 11180.4 h -7910.4 z"
         clip-rule="evenodd"
         id="path466" /></clipPath><clipPath
       clipPathUnits="userSpaceOnUse"
       id="clipPath502"><path
         d="m 209.992,539.613 h 7910.4 v 11180.4 h -7910.4 z"
         clip-rule="evenodd"
         id="path500" /></clipPath><clipPath
       clipPathUnits="userSpaceOnUse"
       id="clipPath516"><path
         d="m 209.992,539.613 h 7910.4 v 11180.4 h -7910.4 z"
         clip-rule="evenodd"
         id="path514" /></clipPath><clipPath
       clipPathUnits="userSpaceOnUse"
       id="clipPath550"><path
         d="m 209.992,539.613 h 7910.4 v 11180.4 h -7910.4 z"
         clip-rule="evenodd"
         id="path548" /></clipPath><clipPath
       clipPathUnits="userSpaceOnUse"
       id="clipPath564"><path
         d="m 209.992,539.613 h 7910.4 v 11180.4 h -7910.4 z"
         clip-rule="evenodd"
         id="path562" /></clipPath><clipPath
       clipPathUnits="userSpaceOnUse"
       id="clipPath598"><path
         d="m 209.992,539.613 h 7910.4 v 11180.4 h -7910.4 z"
         clip-rule="evenodd"
         id="path596" /></clipPath><clipPath
       clipPathUnits="userSpaceOnUse"
       id="clipPath612"><path
         d="m 209.992,539.613 h 7910.4 v 11180.4 h -7910.4 z"
         clip-rule="evenodd"
         id="path610" /></clipPath><clipPath
       clipPathUnits="userSpaceOnUse"
       id="clipPath646"><path
         d="m 209.992,539.613 h 7910.4 v 11180.4 h -7910.4 z"
         clip-rule="evenodd"
         id="path644" /></clipPath><clipPath
       clipPathUnits="userSpaceOnUse"
       id="clipPath660"><path
         d="m 209.992,539.613 h 7910.4 v 11180.4 h -7910.4 z"
         clip-rule="evenodd"
         id="path658" /></clipPath><clipPath
       clipPathUnits="userSpaceOnUse"
       id="clipPath694"><path
         d="m 209.992,539.613 h 7910.4 v 11180.4 h -7910.4 z"
         clip-rule="evenodd"
         id="path692" /></clipPath><clipPath
       clipPathUnits="userSpaceOnUse"
       id="clipPath708"><path
         d="m 209.992,539.613 h 7910.4 v 11180.4 h -7910.4 z"
         clip-rule="evenodd"
         id="path706" /></clipPath></defs><sodipodi:namedview
     id="namedview4"
     pagecolor="#ffffff"
     bordercolor="#666666"
     borderopacity="1.0"
     inkscape:pageshadow="2"
     inkscape:pageopacity="0.0"
     inkscape:pagecheckerboard="0"
     showgrid="false"
     fit-margin-top="0"
     fit-margin-left="0"
     fit-margin-right="0"
     fit-margin-bottom="0"
     inkscape:zoom="0.64031458"
     inkscape:cx="761.34453"
     inkscape:cy="685.60051"
     inkscape:window-width="2560"
     inkscape:window-height="1373"
     inkscape:window-x="-4"
     inkscape:window-y="-2"
     inkscape:window-maximized="1"
     inkscape:current-layer="g8" /><g
     id="g8"
     inkscape:groupmode="layer"
     inkscape:label="ink_ext_XXXXXX"
     transform="matrix(1.3333333,0,0,-1.3333333,-27.998933,1563.0852)"><path
       id="path732"
       style="fill:none;stroke:#ef2929;stroke-width:0.70866;stroke-linecap:butt;stroke-linejoin:miter;stroke-miterlimit:10;stroke-dasharray:0.177165, 0.177165;stroke-dashoffset:0;stroke-opacity:1"
       d="m 543.119,321.561 -54.36,28.32 m -436.9199,-28.32 54.2399,28.32 m 328.44,28.32 54.24,-28.32 m -328.32,28.32 -54.36,-28.32 m 391.56,-28.32 h 76.2 m -476.6398,0 H 497.639 m -476.6398,0 h 30.8399 m 382.6799,56.64 54.24,28.44 m -328.32,-28.44 -54.36,28.44 m 437.04,28.32 -54.36,-28.32 m -436.9199,28.32 54.2399,-28.32 m 373.8,-28.44 h 93.96 m -458.88,0 h 364.92 m -458.8798,0 H 160.439 m 382.68,56.76 -54.36,28.32 m -436.9199,-28.32 54.2399,28.32 m 328.44,28.32 54.24,-28.32 m -328.32,28.32 -54.36,-28.32 m 391.56,-28.32 h 76.2 m -476.6398,0 H 497.639 m -476.6398,0 h 30.8399 m 382.6799,56.64 54.24,28.32 m -328.32,-28.32 -54.36,28.32 m 437.04,28.44 -54.36,-28.44 m -436.9199,28.44 54.2399,-28.44 m 373.8,-28.32 h 93.96 m -458.88,0 h 364.92 m -458.8798,0 H 160.439 m 382.68,56.76 -54.36,28.32 m -436.9199,-28.32 54.2399,28.32 m 328.44,28.32 54.24,-28.32 m -328.32,28.32 -54.36,-28.32 m 391.56,-28.32 h 76.2 m -476.6398,0 H 497.639 m -476.6398,0 h 30.8399 m 382.6799,56.64 54.24,28.32 m -328.32,-28.32 -54.36,28.32 m 437.04,28.44 -54.36,-28.44 m -436.9199,28.44 54.2399,-28.44 m 373.8,-28.32 h 93.96 m -458.88,0 h 364.92 m -458.8798,0 H 160.439 m 382.68,56.76 -54.36,28.32 m -436.9199,-28.32 54.2399,28.32 m 328.44,28.32 54.24,-28.32 m -328.32,28.32 -54.36,-28.32 m 391.56,-28.32 h 76.2 m -476.6398,0 H 497.639 m -476.6398,0 h 30.8399 m 382.6799,56.64 54.24,28.32 m -328.32,-28.32 -54.36,28.32 m 437.04,28.32 -54.36,-28.32 m -436.9199,28.32 54.2399,-28.32 m 373.8,-28.32 h 93.96 m -458.88,0 h 364.92 m -458.8798,0 H 160.439 m 382.68,56.64 -54.36,28.44 m -436.9199,-28.44 54.2399,28.44 m 328.44,28.32 54.24,-28.32 m -328.32,28.32 -54.36,-28.32 m 391.56,-28.44 h 76.2 m -476.6398,0 H 497.639 m -476.6398,0 h 30.8399 m 382.6799,56.76 54.24,28.32 m -328.32,-28.32 -54.36,28.32 m 437.04,28.32 -54.36,-28.32 m -436.9199,28.32 54.2399,-28.32 m 373.8,-28.32 h 93.96 m -458.88,0 h 364.92 m -458.8798,0 H 160.439 m 382.68,56.64 -54.36,28.44 m -436.9199,-28.44 54.2399,28.44 m 328.44,28.32 54.24,-28.32 m -328.32,28.32 -54.36,-28.32 m 391.56,-28.44 h 76.2 m -476.6398,0 H 497.639 m -476.6398,0 h 30.8399 m 382.6799,56.76 54.24,28.32 m -328.32,-28.32 -54.36,28.32 m 437.04,28.319 -54.36,-28.319 M 51.8391,1001.84 106.079,973.521 m 373.8,-28.32 h 93.96 m -458.88,0 h 364.92 m -458.8798,0 H 160.439 m 382.68,56.639 -54.36,28.32 m -436.9199,-28.32 54.2399,28.32 m 328.44,28.44 54.24,-28.44 m -328.32,28.44 -54.36,-28.44 m 391.56,-28.32 h 76.2 m -476.6398,0 H 497.639 m -476.6398,0 h 30.8399 m 382.6799,56.76 54.24,28.32 m -328.32,-28.32 -54.36,28.32 m 437.04,28.32 -54.36,-28.32 m -436.9199,28.32 54.2399,-28.32 m 373.8,-28.32 h 93.96 m -458.88,0 h 364.92 m -458.8798,0 H 160.439 m 382.68,56.64 -54.36,28.32 m -436.9199,-28.32 54.2399,28.32 m 328.44,28.44 54.24,-28.44 m -328.32,28.44 -54.36,-28.44 m 391.56,-28.32 h 76.2 m -476.6398,0 H 497.639 m -476.6398,0 h 30.8399" /><path
       id="path734"
       style="fill:none;stroke:#000000;stroke-width:0.70866;stroke-linecap:butt;stroke-linejoin:miter;stroke-miterlimit:10;stroke-dasharray:none;stroke-opacity:1"
       d="m 497.639,321.561 -8.88,28.32 m -391.5598,-28.32 8.8798,28.32 m 373.8,28.32 8.88,-28.32 m -373.8,28.32 -8.88,-28.32 m 391.56,-28.32 h 45.48 m -491.2799,0 h 45.3601 m -76.2,28.32 H 573.839 m -93.96,28.32 8.88,28.44 m -373.8,-28.44 -8.88,28.44 m 391.56,28.32 -8.88,-28.32 m -391.5598,28.32 8.8798,-28.32 m 373.8,-28.44 h -45.36 m -274.08,0 h -45.48 m -93.9598,28.44 H 573.839 m -76.2,28.32 -8.88,28.32 m -391.5598,-28.32 8.8798,28.32 m 373.8,28.32 8.88,-28.32 m -373.8,28.32 -8.88,-28.32 m 391.56,-28.32 h 45.48 m -491.2799,0 h 45.3601 m -76.2,28.32 H 573.839 m -93.96,28.32 8.88,28.32 m -373.8,-28.32 -8.88,28.32 m 391.56,28.44 -8.88,-28.44 m -391.5598,28.44 8.8798,-28.44 m 373.8,-28.32 h -45.36 m -274.08,0 h -45.48 m -93.9598,28.32 H 573.839 m -76.2,28.44 -8.88,28.32 m -391.5598,-28.32 8.8798,28.32 m 373.8,28.32 8.88,-28.32 m -373.8,28.32 -8.88,-28.32 m 391.56,-28.32 h 45.48 m -491.2799,0 h 45.3601 m -76.2,28.32 H 573.839 m -93.96,28.32 8.88,28.32 m -373.8,-28.32 -8.88,28.32 m 391.56,28.44 -8.88,-28.44 m -391.5598,28.44 8.8798,-28.44 m 373.8,-28.32 h -45.36 m -274.08,0 h -45.48 m -93.9598,28.32 H 573.839 m -76.2,28.44 -8.88,28.32 m -391.5598,-28.32 8.8798,28.32 m 373.8,28.32 8.88,-28.32 m -373.8,28.32 -8.88,-28.32 m 391.56,-28.32 h 45.48 m -491.2799,0 h 45.3601 m -76.2,28.32 H 573.839 m -93.96,28.32 8.88,28.32 m -373.8,-28.32 -8.88,28.32 m 391.56,28.32 -8.88,-28.32 m -391.5598,28.32 8.8798,-28.32 m 373.8,-28.32 h -45.36 m -274.08,0 h -45.48 m -93.9598,28.32 H 573.839 m -76.2,28.32 -8.88,28.44 m -391.5598,-28.44 8.8798,28.44 m 373.8,28.32 8.88,-28.32 m -373.8,28.32 -8.88,-28.32 m 391.56,-28.44 h 45.48 m -491.2799,0 h 45.3601 m -76.2,28.44 H 573.839 m -93.96,28.32 8.88,28.32 m -373.8,-28.32 -8.88,28.32 m 391.56,28.32 -8.88,-28.32 m -391.5598,28.32 8.8798,-28.32 m 373.8,-28.32 h -45.36 m -274.08,0 h -45.48 m -93.9598,28.32 H 573.839 m -76.2,28.32 -8.88,28.44 m -391.5598,-28.44 8.8798,28.44 m 373.8,28.32 8.88,-28.32 m -373.8,28.32 -8.88,-28.32 m 391.56,-28.44 h 45.48 m -491.2799,0 h 45.3601 m -76.2,28.44 H 573.839 m -93.96,28.32 8.88,28.32 m -373.8,-28.32 -8.88,28.32 m 391.56,28.319 -8.88,-28.319 m -391.5598,28.319 8.8798,-28.319 m 373.8,-28.32 h -45.36 m -274.08,0 h -45.48 m -93.9598,28.32 H 573.839 m -76.2,28.319 -8.88,28.32 m -391.5598,-28.32 8.8798,28.32 m 373.8,28.44 8.88,-28.44 m -373.8,28.44 -8.88,-28.44 m 391.56,-28.32 h 45.48 m -491.2799,0 h 45.3601 m -76.2,28.32 H 573.839 m -93.96,28.44 8.88,28.32 m -373.8,-28.32 -8.88,28.32 m 391.56,28.32 -8.88,-28.32 m -391.5598,28.32 8.8798,-28.32 m 373.8,-28.32 h -45.36 m -274.08,0 h -45.48 m -93.9598,28.32 H 573.839 m -76.2,28.32 -8.88,28.32 m -391.5598,-28.32 8.8798,28.32 m 373.8,28.44 8.88,-28.44 m -373.8,28.44 -8.88,-28.44 m 391.56,-28.32 h 45.48 m -491.2799,0 h 45.3601 m -76.2,28.32 H 573.839" /></g></svg>
